<svg xmlns="http://www.w3.org/2000/svg" xmlns:xlink="http://www.w3.org/1999/xlink" preserveAspectRatio="xMidYMid meet" width="650" height="450" viewBox="0 0 650 450" style="width:100%;height:100%"><defs><animateMotion repeatCount="indefinite" dur="4s" begin="0s" xlink:href="#_R_G_L_2_G" fill="freeze" keyTimes="0;0.25;0.5;0.75;1" path="M284.19 119.95 C289.52,98.78 311.86,101.95 336.69,100.95 C355.53,100.19 394.53,104.02 393.69,125.95 C392.37,160.1 356.71,163.67 337.69,163.95 C303.19,164.45 285.02,138.61 283.69,120.95 " keyPoints="0;0.22;0.46;0.73;1" keySplines="0.167 0.167 0.833 0.833;0.167 0.167 0.833 0.833;0.167 0.167 0.833 0.833;0.167 0.167 0.833 0.833" calcMode="spline"/><animateTransform repeatCount="indefinite" dur="4s" begin="0s" xlink:href="#_R_G_L_2_G" fill="freeze" attributeName="transform" from="0.5 0.5" to="0.5 0.5" type="scale" additive="sum" keyTimes="0;1" values="0.5 0.5;0.5 0.5" keySplines="0 0 1 1" calcMode="spline"/><animateTransform repeatCount="indefinite" dur="4s" begin="0s" xlink:href="#_R_G_L_2_G" fill="freeze" attributeName="transform" from="-679.379 -229.891" to="-679.379 -229.891" type="translate" additive="sum" keyTimes="0;1" values="-679.379 -229.891;-679.379 -229.891" keySplines="0 0 1 1" calcMode="spline"/><animateTransform repeatCount="indefinite" dur="4s" begin="0s" xlink:href="#_R_G_L_1_G" fill="freeze" attributeName="transform" from="0 0" to="0 0" type="scale" additive="sum" keyTimes="0;0.25;0.5;0.75;1" values="0 0;0.5 0.5;0 0;0.5 0.5;0 0" keySplines="0.167 0.167 0.833 0.833;0.167 0.167 0.833 0.833;0.167 0.167 0.833 0.833;0.167 0.167 0.833 0.833" calcMode="spline"/><animateTransform repeatCount="indefinite" dur="4s" begin="0s" xlink:href="#_R_G_L_1_G" fill="freeze" attributeName="transform" from="-514.281 -86.116" to="-514.281 -86.116" type="translate" additive="sum" keyTimes="0;1" values="-514.281 -86.116;-514.281 -86.116" keySplines="0 0 1 1" calcMode="spline"/><animateTransform repeatCount="indefinite" dur="4s" begin="0s" xlink:href="#_R_G_L_0_G" fill="freeze" attributeName="transform" from="0.5 0.5" to="0.5 0.5" type="scale" additive="sum" keyTimes="0;0.25;0.5;0.75;1" values="0.5 0.5;0 0;0.5 0.5;0 0;0.5 0.5" keySplines="0.167 0.167 0.833 0.833;0.167 0.167 0.833 0.833;0.167 0.167 0.833 0.833;0.167 0.167 0.833 0.833" calcMode="spline"/><animateTransform repeatCount="indefinite" dur="4s" begin="0s" xlink:href="#_R_G_L_0_G" fill="freeze" attributeName="transform" from="-861.89 -92.363" to="-861.89 -92.363" type="translate" additive="sum" keyTimes="0;1" values="-861.89 -92.363;-861.89 -92.363" keySplines="0 0 1 1" calcMode="spline"/><animate attributeType="XML" attributeName="opacity" dur="4s" from="0" to="1" xlink:href="#time_group"/></defs><g id="_R_G"><g id="_R_G_L_2_G"><path id="_R_G_L_2_G_D_0_P_0" fill="#31277a" fill-opacity="1" fill-rule="nonzero" d=" M861.89 229.89 C861.89,330.69 780.18,412.4 679.38,412.4 C578.58,412.4 496.87,330.69 496.87,229.89 C496.87,129.09 578.58,47.38 679.38,47.38 C780.18,47.38 861.89,129.09 861.89,229.89z "/></g><g id="_R_G_L_1_G" transform=" translate(258.14, 54.058)"><path id="_R_G_L_1_G_D_0_P_0" fill="#ffffff" fill-opacity="1" fill-rule="nonzero" d=" M514.28 33.76 C514.28,33.76 532.79,67.61 532.79,67.61 C532.79,67.61 566.64,86.12 566.64,86.12 C566.64,86.12 532.79,104.63 532.79,104.63 C532.79,104.63 514.28,138.47 514.28,138.47 C514.28,138.47 495.77,104.63 495.77,104.63 C495.77,104.63 461.93,86.12 461.93,86.12 C461.93,86.12 495.77,67.61 495.77,67.61 C495.77,67.61 514.28,33.76 514.28,33.76z "/></g><g id="_R_G_L_0_G" transform=" translate(431.945, 57.182)"><path id="_R_G_L_0_G_D_0_P_0" fill="#ffffff" fill-opacity="1" fill-rule="nonzero" d=" M861.89 28.18 C861.89,28.18 870.49,83.76 870.49,83.76 C870.49,83.76 926.07,92.36 926.07,92.36 C926.07,92.36 870.49,100.97 870.49,100.97 C870.49,100.97 861.89,156.55 861.89,156.55 C861.89,156.55 853.29,100.97 853.29,100.97 C853.29,100.97 797.71,92.36 797.71,92.36 C797.71,92.36 853.29,83.76 853.29,83.76 C853.29,83.76 861.89,28.18 861.89,28.18z "/></g></g><g id="time_group"/></svg>