<svg width="25" height="24" viewBox="0 0 25 24" fill="none" xmlns="http://www.w3.org/2000/svg">
<g clip-path="url(#clip0_385_450)">
<path d="M9.375 12.5C10.6111 12.5 11.8195 12.1334 12.8473 11.4467C13.8751 10.7599 14.6762 9.78381 15.1492 8.64177C15.6223 7.49974 15.7461 6.24307 15.5049 5.03069C15.2638 3.81831 14.6685 2.70466 13.7944 1.83059C12.9203 0.956507 11.8067 0.361252 10.5943 0.120095C9.38193 -0.121063 8.12527 0.00270804 6.98323 0.475756C5.84119 0.948803 4.86507 1.74988 4.17832 2.77769C3.49156 3.8055 3.125 5.01387 3.125 6.25C3.12665 7.9071 3.78567 9.49585 4.95741 10.6676C6.12915 11.8393 7.71791 12.4983 9.375 12.5ZM9.375 2.08334C10.1991 2.08334 11.0047 2.32771 11.6899 2.78555C12.3751 3.24339 12.9091 3.89413 13.2245 4.65549C13.5399 5.41685 13.6224 6.25462 13.4616 7.06288C13.3008 7.87113 12.904 8.61356 12.3213 9.19628C11.7386 9.779 10.9961 10.1758 10.1879 10.3366C9.37962 10.4974 8.54184 10.4149 7.78049 10.0995C7.01913 9.78414 6.36838 9.25008 5.91054 8.56488C5.4527 7.87967 5.20833 7.07409 5.20833 6.25C5.20833 5.14493 5.64732 4.08513 6.42872 3.30372C7.21012 2.52232 8.26993 2.08334 9.375 2.08334Z" fill="#b8b8d2"/>
<path d="M9.375 14.5835C6.88953 14.5865 4.50672 15.5752 2.74922 17.3327C0.991726 19.0902 0.00303225 21.473 0 23.9585C0 24.2348 0.109747 24.4997 0.305097 24.6951C0.500448 24.8904 0.765399 25.0002 1.04167 25.0002C1.31793 25.0002 1.58289 24.8904 1.77824 24.6951C1.97359 24.4997 2.08333 24.2348 2.08333 23.9585C2.08333 22.0246 2.85156 20.17 4.21901 18.8025C5.58647 17.4351 7.44113 16.6668 9.375 16.6668C11.3089 16.6668 13.1635 17.4351 14.531 18.8025C15.8984 20.17 16.6667 22.0246 16.6667 23.9585C16.6667 24.2348 16.7764 24.4997 16.9718 24.6951C17.1671 24.8904 17.4321 25.0002 17.7083 25.0002C17.9846 25.0002 18.2496 24.8904 18.4449 24.6951C18.6403 24.4997 18.75 24.2348 18.75 23.9585C18.747 21.473 17.7583 19.0902 16.0008 17.3327C14.2433 15.5752 11.8605 14.5865 9.375 14.5835Z" fill="#b8b8d2"/>
<path d="M22.9163 8.20312C22.3366 8.232 21.7919 8.48934 21.4015 8.91882C21.0111 9.3483 20.8066 9.91496 20.833 10.4948C20.8593 9.91496 20.6549 9.3483 20.2645 8.91882C19.874 8.48934 19.3294 8.232 18.7497 8.20312C18.1699 8.232 17.6253 8.48934 17.2348 8.91882C16.8444 9.3483 16.64 9.91496 16.6663 10.4948C16.6663 12.2969 19.0163 14.4083 20.1871 15.3479C20.3704 15.4947 20.5982 15.5746 20.833 15.5746C21.0678 15.5746 21.2955 15.4947 21.4788 15.3479C22.6496 14.4104 24.9996 12.2969 24.9996 10.4948C25.026 9.91496 24.8216 9.3483 24.4311 8.91882C24.0407 8.48934 23.496 8.232 22.9163 8.20312Z" fill="#b8b8d2"/>
</g>
<defs>
<clipPath id="clip0_385_450">
<rect width="25" height="24" fill="#b8b8d2"/>
</clipPath>
</defs>
</svg>