<svg width="24" height="24" viewBox="0 0 24 24" fill="none" xmlns="http://www.w3.org/2000/svg">
<g clip-path="url(#clip0_385_455)">
<path d="M20.4854 1.86045C20.2109 1.5859 19.7656 1.5859 19.4911 1.86045C19.2165 2.13504 19.2165 2.58026 19.4911 2.85481C21.4921 4.85567 22.594 7.51597 22.594 10.3458C22.594 10.7341 22.9088 11.0489 23.2971 11.0489C23.6855 11.0489 24.0003 10.7341 24.0003 10.3458C24.0003 7.14036 22.752 4.12686 20.4854 1.86045Z" fill="white"/>
<path d="M4.50905 1.8612C4.23445 1.58665 3.78928 1.58661 3.51469 1.8612C1.24819 4.12779 0 7.14125 0 10.3465C0 10.7348 0.314813 11.0496 0.703125 11.0496C1.09144 11.0496 1.40625 10.7348 1.40625 10.3465C1.40625 7.51686 2.50819 4.85656 4.50905 2.85561C4.78364 2.58101 4.78364 2.13579 4.50905 1.8612Z" fill="white"/>
<path d="M17.3607 3.99034C17.0861 4.26493 17.0862 4.71011 17.3607 4.9847C18.7927 6.41664 19.5814 8.32051 19.5814 10.3457C19.5814 10.734 19.8962 11.0488 20.2845 11.0488C20.6728 11.0488 20.9876 10.734 20.9876 10.3457C20.9876 7.9449 20.0527 5.68782 18.3551 3.99029C18.0805 3.71579 17.6353 3.71579 17.3607 3.99034Z" fill="white"/>
<path d="M6.63878 3.99082C6.36419 3.71627 5.91897 3.71627 5.64442 3.99086C3.94703 5.68849 3.01221 7.94538 3.01221 10.3458C3.01221 10.7342 3.32702 11.049 3.71533 11.049C4.10364 11.049 4.41845 10.7342 4.41845 10.3458C4.41845 8.32099 5.20703 6.41721 6.63887 4.98518C6.91342 4.71058 6.91337 4.26541 6.63878 3.99082Z" fill="white"/>
<path d="M17.9753 15.4515V11.8519C17.9753 10.5388 17.5573 9.29295 16.7664 8.24881C16.1054 7.37614 15.204 6.69443 14.1912 6.29332C14.0502 5.21 13.1215 4.37061 12.0003 4.37061C10.8792 4.37061 9.95033 5.20995 9.80938 6.29332C8.7966 6.69448 7.89514 7.37618 7.23416 8.24881C6.44328 9.29295 6.02525 10.5388 6.02525 11.8519V15.4515L4.59327 18.3155C4.48428 18.5335 4.49595 18.7924 4.62406 18.9996C4.75217 19.2069 4.97849 19.3331 5.22219 19.3331H8.35222C8.68189 21.0468 10.1919 22.3456 12.0003 22.3456C13.8086 22.3456 15.3186 21.0468 15.6482 19.3331H18.7784C19.0221 19.3331 19.2485 19.2069 19.3766 18.9996C19.5047 18.7924 19.5163 18.5335 19.4074 18.3155L17.9753 15.4515ZM12.0003 20.9394C10.972 20.9394 10.0985 20.2638 9.80033 19.3331H14.2003C13.9021 20.2638 13.0287 20.9394 12.0003 20.9394ZM15.0128 17.9269H8.9878H6.35989L7.35735 15.9319C7.40619 15.8343 7.43155 15.7266 7.43155 15.6175V11.8519C7.43155 9.84593 8.77335 8.04546 10.6946 7.4735C10.9927 7.38471 11.1971 7.11064 11.1971 6.79962V6.57997C11.1971 6.13714 11.5574 5.77686 12.0003 5.77686C12.4431 5.77686 12.8034 6.13714 12.8034 6.57997V6.79962C12.8034 7.11068 13.0078 7.38476 13.3059 7.4735C15.2272 8.04546 16.5691 9.84589 16.5691 11.8519V15.6175C16.5691 15.7266 16.5945 15.8343 16.6433 15.9319L17.6407 17.9269H15.0128Z" fill="white"/>
</g>
<defs>
<clipPath id="clip0_385_455">
<rect width="24" height="24" fill="white"/>
</clipPath>
</defs>
</svg>