<svg width="24" height="24" viewBox="0 0 24 24" fill="none" xmlns="http://www.w3.org/2000/svg">
<g clip-path="url(#clip0_385_464)">
<path d="M23.479 10.924C23.9514 10.4636 24.1181 9.78792 23.9144 9.1598C23.7101 8.53169 23.1781 8.08331 22.5245 7.98816L16.7134 7.14378C16.4659 7.10774 16.252 6.95251 16.1415 6.72808L13.5435 1.4624C13.2518 0.870815 12.6597 0.503174 11.9999 0.503174C11.3405 0.503174 10.7485 0.870815 10.4568 1.4624L7.85829 6.72808C7.74776 6.95251 7.53342 7.10774 7.28592 7.14378L1.47479 7.98864C0.821687 8.08331 0.289688 8.53169 0.0854429 9.1598C-0.118322 9.78792 0.0484385 10.4636 0.520845 10.924L4.72541 15.0224C4.90467 15.1973 4.98684 15.4491 4.94455 15.6952L3.95216 21.4827C3.84067 22.133 4.10258 22.7774 4.6365 23.1657C5.16994 23.5545 5.86438 23.605 6.44924 23.2969L11.6462 20.5644C11.8677 20.4481 12.1321 20.4481 12.3536 20.5644L17.551 23.2969C17.8048 23.4305 18.0797 23.4964 18.3531 23.4964C18.7083 23.4964 19.062 23.3854 19.3638 23.1657C19.8977 22.7774 20.1596 22.133 20.0481 21.4827L19.0552 15.6956C19.013 15.4491 19.0951 15.1978 19.2744 15.0228L23.479 10.924ZM18.1085 15.8581L19.1009 21.6452C19.1509 21.9364 19.0379 22.2147 18.7986 22.3886C18.5588 22.5621 18.2604 22.5833 17.9985 22.4468L12.801 19.7137C12.5506 19.5826 12.2748 19.5162 11.9999 19.5162C11.725 19.5162 11.4496 19.5826 11.1988 19.7142L6.0023 22.4468C5.73943 22.5833 5.44099 22.5621 5.20166 22.3886C4.96234 22.2147 4.84988 21.9369 4.89938 21.6452L5.89177 15.8581C5.98741 15.2997 5.80238 14.7297 5.39678 14.3347L1.19173 10.2358C0.979796 10.0292 0.90771 9.73794 0.9995 9.4568C1.09081 9.17518 1.32004 8.98199 1.61272 8.93922L7.42337 8.09484C7.9842 8.01363 8.4691 7.66184 8.71948 7.15339L11.318 1.88772C11.4487 1.62244 11.7039 1.46433 11.9994 1.46433C12.2955 1.46433 12.5502 1.62244 12.6814 1.88772L15.2798 7.15339C15.5302 7.66184 16.0146 8.01363 16.5755 8.09484L22.3866 8.93922C22.6793 8.98199 22.9085 9.17518 22.9998 9.4568C23.0911 9.73794 23.0195 10.0292 22.8076 10.2358L18.603 14.3342C18.1974 14.7297 18.0124 15.2992 18.1085 15.8581Z" fill="white"/>
</g>
<defs>
<clipPath id="clip0_385_464">
<rect width="24" height="24" fill="white"/>
</clipPath>
</defs>
</svg>