<svg xmlns="http://www.w3.org/2000/svg" xmlns:xlink="http://www.w3.org/1999/xlink" preserveAspectRatio="xMidYMid meet" width="600" height="450" viewBox="0 0 600 450" style="width:100%;height:100%"><defs><animate repeatCount="indefinite" dur="4s" begin="0s" xlink:href="#_R_G_L_15_G_D_0_P_0" fill="freeze" attributeName="d" attributeType="XML" from="M-115.38 -186.82 C-115.38,-186.82 -111.37,-187.09 -111.37,-187.09 C-111.37,-187.09 -107.4,-187.36 -107.4,-187.36 " to="M-115.38 -186.82 C-115.38,-186.82 -111.37,-187.09 -111.37,-187.09 C-111.37,-187.09 -107.4,-187.36 -107.4,-187.36 " keyTimes="0;0.03;0.17;0.2;1" values="M-115.38 -186.82 C-115.38,-186.82 -111.37,-187.09 -111.37,-187.09 C-111.37,-187.09 -107.4,-187.36 -107.4,-187.36 ;M-115.38 -186.82 C-115.38,-186.82 -113.4,-185.92 -111.3,-186.22 C-108.61,-186.48 -107.4,-187.36 -107.4,-187.36 ;M-115.38 -186.82 C-115.38,-186.82 -113.4,-185.92 -111.3,-186.22 C-108.61,-186.48 -107.4,-187.36 -107.4,-187.36 ;M-115.38 -186.82 C-115.38,-186.82 -111.37,-187.09 -111.37,-187.09 C-111.37,-187.09 -107.4,-187.36 -107.4,-187.36 ;M-115.38 -186.82 C-115.38,-186.82 -111.37,-187.09 -111.37,-187.09 C-111.37,-187.09 -107.4,-187.36 -107.4,-187.36 " keySplines="0.167 0.167 0.833 0.833;0.167 0.167 0.833 0.833;0.167 0.167 0.833 0.833;0 0 0 0" calcMode="spline"/><animateMotion repeatCount="indefinite" dur="4s" begin="0s" xlink:href="#_R_G_L_15_G" fill="freeze" keyTimes="0;0.03;0.17;0.2;1" path="M207.85 38.16 C207.85,37.86 207.85,36.7 207.85,36.41 C207.85,36.41 207.85,36.41 207.85,36.41 C207.85,36.7 207.85,37.86 207.85,38.16 C207.85,38.16 207.85,38.16 207.85,38.16 " keyPoints="0;0.5;0.5;1;1" keySplines="0.167 0.167 0.833 0.833;0.167 0.167 0.833 0.833;0.167 0.167 0.833 0.833;0 0 0 0" calcMode="spline"/><animateTransform repeatCount="indefinite" dur="4s" begin="0s" xlink:href="#_R_G_L_15_G" fill="freeze" attributeName="transform" from="8.864" to="8.864" type="rotate" additive="sum" keyTimes="0;1" values="8.864;8.864" keySplines="0 0 1 1" calcMode="spline"/><animateTransform repeatCount="indefinite" dur="4s" begin="0s" xlink:href="#_R_G_L_15_G" fill="freeze" attributeName="transform" from="111.397 187.093" to="111.397 187.093" type="translate" additive="sum" keyTimes="0;1" values="111.397 187.093;111.397 187.093" keySplines="0 0 1 1" calcMode="spline"/><animateMotion repeatCount="indefinite" dur="4s" begin="0s" xlink:href="#_R_G_L_14_G" fill="freeze" keyTimes="0;0.41;0.44;1" path="M380.25 57.25 C380.25,57.25 380.25,57.25 380.25,57.25 C390.42,57.25 431.08,57.25 441.25,57.25 C441.25,57.25 441.25,57.25 441.25,57.25 " keyPoints="0;0;1;1" keySplines="0.167 0.167 0.833 0.833;0.167 0.167 0.833 0.833;0 0 0 0" calcMode="spline"/><animateTransform repeatCount="indefinite" dur="4s" begin="0s" xlink:href="#_R_G_L_14_G" fill="freeze" attributeName="transform" from="0.2 0.2" to="0.2 0.2" type="scale" additive="sum" keyTimes="0;1" values="0.2 0.2;0.2 0.2" keySplines="0 0 1 1" calcMode="spline"/><animateTransform repeatCount="indefinite" dur="4s" begin="0s" xlink:href="#_R_G_L_14_G" fill="freeze" attributeName="transform" from="-150 -150" to="-150 -150" type="translate" additive="sum" keyTimes="0;1" values="-150 -150;-150 -150" keySplines="0 0 1 1" calcMode="spline"/><animate repeatCount="indefinite" dur="4s" begin="0s" xlink:href="#_R_G_L_14_G_M" fill="freeze" attributeName="opacity" from="0" to="1" keyTimes="0;0.41;0.410001;1" values="0;0;1;1" keySplines="0 0 0 0;0 0 0 0;0 0 0 0" calcMode="spline"/><animateMotion repeatCount="indefinite" dur="4s" begin="0s" xlink:href="#_R_G_L_13_G" fill="freeze" keyTimes="0;0.41;0.44;1" path="M380.25 57.25 C380.25,57.25 380.25,57.25 380.25,57.25 C390.42,57.25 431.08,57.25 441.25,57.25 C441.25,57.25 441.25,57.25 441.25,57.25 " keyPoints="0;0;1;1" keySplines="0.167 0.167 0.833 0.833;0.167 0.167 0.833 0.833;0 0 0 0" calcMode="spline"/><animateTransform repeatCount="indefinite" dur="4s" begin="0s" xlink:href="#_R_G_L_13_G" fill="freeze" attributeName="transform" from="0.2 0.2" to="0.2 0.2" type="scale" additive="sum" keyTimes="0;1" values="0.2 0.2;0.2 0.2" keySplines="0 0 1 1" calcMode="spline"/><animateTransform repeatCount="indefinite" dur="4s" begin="0s" xlink:href="#_R_G_L_13_G" fill="freeze" attributeName="transform" from="-150 -150" to="-150 -150" type="translate" additive="sum" keyTimes="0;1" values="-150 -150;-150 -150" keySplines="0 0 1 1" calcMode="spline"/><animate repeatCount="indefinite" dur="4s" begin="0s" xlink:href="#_R_G_L_13_G_M" fill="freeze" attributeName="opacity" from="0" to="1" keyTimes="0;0.41;0.410001;1" values="0;0;1;1" keySplines="0 0 0 0;0 0 0 0;0 0 0 0" calcMode="spline"/><animateMotion repeatCount="indefinite" dur="4s" begin="0s" xlink:href="#_R_G_L_12_G" fill="freeze" keyTimes="0;0.41;0.44;1" path="M380.25 57.25 C380.25,57.25 380.25,57.25 380.25,57.25 C390.42,57.25 431.08,57.25 441.25,57.25 C441.25,57.25 441.25,57.25 441.25,57.25 " keyPoints="0;0;1;1" keySplines="0.167 0.167 0.833 0.833;0.167 0.167 0.833 0.833;0 0 0 0" calcMode="spline"/><animateTransform repeatCount="indefinite" dur="4s" begin="0s" xlink:href="#_R_G_L_12_G" fill="freeze" attributeName="transform" from="0.2 0.2" to="0.2 0.2" type="scale" additive="sum" keyTimes="0;1" values="0.2 0.2;0.2 0.2" keySplines="0 0 1 1" calcMode="spline"/><animateTransform repeatCount="indefinite" dur="4s" begin="0s" xlink:href="#_R_G_L_12_G" fill="freeze" attributeName="transform" from="-150 -150" to="-150 -150" type="translate" additive="sum" keyTimes="0;1" values="-150 -150;-150 -150" keySplines="0 0 1 1" calcMode="spline"/><animate repeatCount="indefinite" dur="4s" begin="0s" xlink:href="#_R_G_L_12_G_M" fill="freeze" attributeName="opacity" from="0" to="1" keyTimes="0;0.41;0.410001;1" values="0;0;1;1" keySplines="0 0 0 0;0 0 0 0;0 0 0 0" calcMode="spline"/><animateMotion repeatCount="indefinite" dur="4s" begin="0s" xlink:href="#_R_G_L_11_G" fill="freeze" keyTimes="0;0.41;0.44;1" path="M380.25 57.25 C380.25,57.25 380.25,57.25 380.25,57.25 C390.42,57.25 431.08,57.25 441.25,57.25 C441.25,57.25 441.25,57.25 441.25,57.25 " keyPoints="0;0;1;1" keySplines="0.167 0.167 0.833 0.833;0.167 0.167 0.833 0.833;0 0 0 0" calcMode="spline"/><animateTransform repeatCount="indefinite" dur="4s" begin="0s" xlink:href="#_R_G_L_11_G" fill="freeze" attributeName="transform" from="0.2 0.2" to="0.2 0.2" type="scale" additive="sum" keyTimes="0;1" values="0.2 0.2;0.2 0.2" keySplines="0 0 1 1" calcMode="spline"/><animateTransform repeatCount="indefinite" dur="4s" begin="0s" xlink:href="#_R_G_L_11_G" fill="freeze" attributeName="transform" from="-150 -150" to="-150 -150" type="translate" additive="sum" keyTimes="0;1" values="-150 -150;-150 -150" keySplines="0 0 1 1" calcMode="spline"/><animate repeatCount="indefinite" dur="4s" begin="0s" xlink:href="#_R_G_L_11_G_M" fill="freeze" attributeName="opacity" from="0" to="1" keyTimes="0;0.41;0.410001;1" values="0;0;1;1" keySplines="0 0 0 0;0 0 0 0;0 0 0 0" calcMode="spline"/><animateMotion repeatCount="indefinite" dur="4s" begin="0s" xlink:href="#_R_G_L_10_G" fill="freeze" keyTimes="0;0.41;0.44;1" path="M380.25 57.25 C380.25,57.25 380.25,57.25 380.25,57.25 C390.42,57.25 431.08,57.25 441.25,57.25 C441.25,57.25 441.25,57.25 441.25,57.25 " keyPoints="0;0;1;1" keySplines="0.167 0.167 0.833 0.833;0.167 0.167 0.833 0.833;0 0 0 0" calcMode="spline"/><animateTransform repeatCount="indefinite" dur="4s" begin="0s" xlink:href="#_R_G_L_10_G" fill="freeze" attributeName="transform" from="0.2 0.2" to="0.2 0.2" type="scale" additive="sum" keyTimes="0;1" values="0.2 0.2;0.2 0.2" keySplines="0 0 1 1" calcMode="spline"/><animateTransform repeatCount="indefinite" dur="4s" begin="0s" xlink:href="#_R_G_L_10_G" fill="freeze" attributeName="transform" from="-150 -150" to="-150 -150" type="translate" additive="sum" keyTimes="0;1" values="-150 -150;-150 -150" keySplines="0 0 1 1" calcMode="spline"/><animate repeatCount="indefinite" dur="4s" begin="0s" xlink:href="#_R_G_L_10_G_M" fill="freeze" attributeName="opacity" from="0" to="1" keyTimes="0;0.41;0.410001;1" values="0;0;1;1" keySplines="0 0 0 0;0 0 0 0;0 0 0 0" calcMode="spline"/><animateMotion repeatCount="indefinite" dur="4s" begin="0s" xlink:href="#_R_G_L_9_G" fill="freeze" keyTimes="0;0.48;0.52;1" path="M441.25 57.25 C441.25,57.25 441.25,57.25 441.25,57.25 C451.5,57.25 492.5,57.25 502.75,57.25 C502.75,57.25 502.75,57.25 502.75,57.25 " keyPoints="0;0;1;1" keySplines="0.167 0.167 0.833 0.833;0.167 0.167 0.833 0.833;0 0 0 0" calcMode="spline"/><animateTransform repeatCount="indefinite" dur="4s" begin="0s" xlink:href="#_R_G_L_9_G" fill="freeze" attributeName="transform" from="0.2 0.2" to="0.2 0.2" type="scale" additive="sum" keyTimes="0;1" values="0.2 0.2;0.2 0.2" keySplines="0 0 1 1" calcMode="spline"/><animateTransform repeatCount="indefinite" dur="4s" begin="0s" xlink:href="#_R_G_L_9_G" fill="freeze" attributeName="transform" from="-150 -150" to="-150 -150" type="translate" additive="sum" keyTimes="0;1" values="-150 -150;-150 -150" keySplines="0 0 1 1" calcMode="spline"/><animate repeatCount="indefinite" dur="4s" begin="0s" xlink:href="#_R_G_L_9_G_M" fill="freeze" attributeName="opacity" from="0" to="1" keyTimes="0;0.48;0.480001;1" values="0;0;1;1" keySplines="0 0 0 0;0 0 0 0;0 0 0 0" calcMode="spline"/><animateMotion repeatCount="indefinite" dur="4s" begin="0s" xlink:href="#_R_G_L_8_G" fill="freeze" keyTimes="0;0.48;0.52;1" path="M441.25 57.25 C441.25,57.25 441.25,57.25 441.25,57.25 C451.5,57.25 492.5,57.25 502.75,57.25 C502.75,57.25 502.75,57.25 502.75,57.25 " keyPoints="0;0;1;1" keySplines="0.167 0.167 0.833 0.833;0.167 0.167 0.833 0.833;0 0 0 0" calcMode="spline"/><animateTransform repeatCount="indefinite" dur="4s" begin="0s" xlink:href="#_R_G_L_8_G" fill="freeze" attributeName="transform" from="0.2 0.2" to="0.2 0.2" type="scale" additive="sum" keyTimes="0;1" values="0.2 0.2;0.2 0.2" keySplines="0 0 1 1" calcMode="spline"/><animateTransform repeatCount="indefinite" dur="4s" begin="0s" xlink:href="#_R_G_L_8_G" fill="freeze" attributeName="transform" from="-150 -150" to="-150 -150" type="translate" additive="sum" keyTimes="0;1" values="-150 -150;-150 -150" keySplines="0 0 1 1" calcMode="spline"/><animate repeatCount="indefinite" dur="4s" begin="0s" xlink:href="#_R_G_L_8_G_M" fill="freeze" attributeName="opacity" from="0" to="1" keyTimes="0;0.48;0.480001;1" values="0;0;1;1" keySplines="0 0 0 0;0 0 0 0;0 0 0 0" calcMode="spline"/><animateMotion repeatCount="indefinite" dur="4s" begin="0s" xlink:href="#_R_G_L_7_G" fill="freeze" keyTimes="0;0.48;0.52;1" path="M441.25 57.25 C441.25,57.25 441.25,57.25 441.25,57.25 C451.5,57.25 492.5,57.25 502.75,57.25 C502.75,57.25 502.75,57.25 502.75,57.25 " keyPoints="0;0;1;1" keySplines="0.167 0.167 0.833 0.833;0.167 0.167 0.833 0.833;0 0 0 0" calcMode="spline"/><animateTransform repeatCount="indefinite" dur="4s" begin="0s" xlink:href="#_R_G_L_7_G" fill="freeze" attributeName="transform" from="0.2 0.2" to="0.2 0.2" type="scale" additive="sum" keyTimes="0;1" values="0.2 0.2;0.2 0.2" keySplines="0 0 1 1" calcMode="spline"/><animateTransform repeatCount="indefinite" dur="4s" begin="0s" xlink:href="#_R_G_L_7_G" fill="freeze" attributeName="transform" from="-150 -150" to="-150 -150" type="translate" additive="sum" keyTimes="0;1" values="-150 -150;-150 -150" keySplines="0 0 1 1" calcMode="spline"/><animate repeatCount="indefinite" dur="4s" begin="0s" xlink:href="#_R_G_L_7_G_M" fill="freeze" attributeName="opacity" from="0" to="1" keyTimes="0;0.48;0.480001;1" values="0;0;1;1" keySplines="0 0 0 0;0 0 0 0;0 0 0 0" calcMode="spline"/><animateMotion repeatCount="indefinite" dur="4s" begin="0s" xlink:href="#_R_G_L_6_G" fill="freeze" keyTimes="0;0.48;0.52;1" path="M441.25 57.25 C441.25,57.25 441.25,57.25 441.25,57.25 C451.5,57.25 492.5,57.25 502.75,57.25 C502.75,57.25 502.75,57.25 502.75,57.25 " keyPoints="0;0;1;1" keySplines="0.167 0.167 0.833 0.833;0.167 0.167 0.833 0.833;0 0 0 0" calcMode="spline"/><animateTransform repeatCount="indefinite" dur="4s" begin="0s" xlink:href="#_R_G_L_6_G" fill="freeze" attributeName="transform" from="0.2 0.2" to="0.2 0.2" type="scale" additive="sum" keyTimes="0;1" values="0.2 0.2;0.2 0.2" keySplines="0 0 1 1" calcMode="spline"/><animateTransform repeatCount="indefinite" dur="4s" begin="0s" xlink:href="#_R_G_L_6_G" fill="freeze" attributeName="transform" from="-150 -150" to="-150 -150" type="translate" additive="sum" keyTimes="0;1" values="-150 -150;-150 -150" keySplines="0 0 1 1" calcMode="spline"/><animate repeatCount="indefinite" dur="4s" begin="0s" xlink:href="#_R_G_L_6_G_M" fill="freeze" attributeName="opacity" from="0" to="1" keyTimes="0;0.48;0.480001;1" values="0;0;1;1" keySplines="0 0 0 0;0 0 0 0;0 0 0 0" calcMode="spline"/><animateMotion repeatCount="indefinite" dur="4s" begin="0s" xlink:href="#_R_G_L_5_G" fill="freeze" keyTimes="0;0.34;0.37;0.48;0.52;1" path="M380.25 57.25 C380.25,57.25 380.25,57.25 380.25,57.25 C390.42,57.25 431.08,57.25 441.25,57.25 C441.25,57.25 441.25,57.25 441.25,57.25 C451.5,57.25 492.5,57.25 502.75,57.25 C502.75,57.25 502.75,57.25 502.75,57.25 " keyPoints="0;0;0.5;0.5;1;1" keySplines="0.167 0.167 0.833 0.833;0.167 0.167 0.833 0.833;0.167 0.167 0.833 0.833;0.167 0.167 0.833 0.833;0 0 0 0" calcMode="spline"/><animateTransform repeatCount="indefinite" dur="4s" begin="0s" xlink:href="#_R_G_L_5_G" fill="freeze" attributeName="transform" from="0.2 0.2" to="0.2 0.2" type="scale" additive="sum" keyTimes="0;1" values="0.2 0.2;0.2 0.2" keySplines="0 0 1 1" calcMode="spline"/><animateTransform repeatCount="indefinite" dur="4s" begin="0s" xlink:href="#_R_G_L_5_G" fill="freeze" attributeName="transform" from="-150 -150" to="-150 -150" type="translate" additive="sum" keyTimes="0;1" values="-150 -150;-150 -150" keySplines="0 0 1 1" calcMode="spline"/><animate repeatCount="indefinite" dur="4s" begin="0s" xlink:href="#_R_G_L_5_G_M" fill="freeze" attributeName="opacity" from="0" to="1" keyTimes="0;0.48;0.480001;1" values="0;0;1;1" keySplines="0 0 0 0;0 0 0 0;0 0 0 0" calcMode="spline"/><animateMotion repeatCount="indefinite" dur="4s" begin="0s" xlink:href="#_R_G_L_4_G" fill="freeze" keyTimes="0;0.26;0.32;1" path="M330.75 138.75 C330.75,138.75 330.75,138.75 330.75,138.75 C381.75,130.92 397.5,98.33 380.25,57.25 C380.25,57.25 380.25,57.25 380.25,57.25 " keyPoints="0;0;1;1" keySplines="0.167 0.167 0.833 0.833;0.167 0.167 0.833 0.833;0 0 0 0" calcMode="spline"/><animateTransform repeatCount="indefinite" dur="4s" begin="0s" xlink:href="#_R_G_L_4_G" fill="freeze" attributeName="transform" from="0 0" to="0.2 0.2" type="scale" additive="sum" keyTimes="0;0.26;0.32;1" values="0 0;0 0;0.2 0.2;0.2 0.2" keySplines="0.167 0.167 0.833 0.833;0.167 0.167 0.833 0.833;0 0 0 0" calcMode="spline"/><animateTransform repeatCount="indefinite" dur="4s" begin="0s" xlink:href="#_R_G_L_4_G" fill="freeze" attributeName="transform" from="-150 -150" to="-150 -150" type="translate" additive="sum" keyTimes="0;1" values="-150 -150;-150 -150" keySplines="0 0 1 1" calcMode="spline"/><animateMotion repeatCount="indefinite" dur="4s" begin="0s" xlink:href="#_R_G_L_3_G" fill="freeze" keyTimes="0;0.26;0.32;1" path="M330.75 138.75 C330.75,138.75 330.75,138.75 330.75,138.75 C381.25,130.92 397.5,98.58 380.25,57.25 C380.25,57.25 380.25,57.25 380.25,57.25 " keyPoints="0;0;1;1" keySplines="0.167 0.167 0.833 0.833;0.167 0.167 0.833 0.833;0 0 0 0" calcMode="spline"/><animateTransform repeatCount="indefinite" dur="4s" begin="0s" xlink:href="#_R_G_L_3_G" fill="freeze" attributeName="transform" from="0 0" to="0.2 0.2" type="scale" additive="sum" keyTimes="0;0.26;0.32;1" values="0 0;0 0;0.2 0.2;0.2 0.2" keySplines="0.167 0.167 0.833 0.833;0.167 0.167 0.833 0.833;0 0 0 0" calcMode="spline"/><animateTransform repeatCount="indefinite" dur="4s" begin="0s" xlink:href="#_R_G_L_3_G" fill="freeze" attributeName="transform" from="-150 -150" to="-150 -150" type="translate" additive="sum" keyTimes="0;1" values="-150 -150;-150 -150" keySplines="0 0 1 1" calcMode="spline"/><animateMotion repeatCount="indefinite" dur="4s" begin="0s" xlink:href="#_R_G_L_2_G" fill="freeze" keyTimes="0;0.26;0.32;1" path="M330.75 138.75 C330.75,138.75 330.75,138.75 330.75,138.75 C381.25,131.17 397.5,98.58 380.25,57.25 C380.25,57.25 380.25,57.25 380.25,57.25 " keyPoints="0;0;1;1" keySplines="0.167 0.167 0.833 0.833;0.167 0.167 0.833 0.833;0 0 0 0" calcMode="spline"/><animateTransform repeatCount="indefinite" dur="4s" begin="0s" xlink:href="#_R_G_L_2_G" fill="freeze" attributeName="transform" from="0 0" to="0.2 0.2" type="scale" additive="sum" keyTimes="0;0.26;0.32;1" values="0 0;0 0;0.2 0.2;0.2 0.2" keySplines="0.167 0.167 0.833 0.833;0.167 0.167 0.833 0.833;0 0 0 0" calcMode="spline"/><animateTransform repeatCount="indefinite" dur="4s" begin="0s" xlink:href="#_R_G_L_2_G" fill="freeze" attributeName="transform" from="-150 -150" to="-150 -150" type="translate" additive="sum" keyTimes="0;1" values="-150 -150;-150 -150" keySplines="0 0 1 1" calcMode="spline"/><animateMotion repeatCount="indefinite" dur="4s" begin="0s" xlink:href="#_R_G_L_1_G" fill="freeze" keyTimes="0;0.26;0.32;1" path="M330.75 138.75 C330.75,138.75 330.75,138.75 330.75,138.75 C381.25,131.17 397.5,98.08 380.25,57.25 C380.25,57.25 380.25,57.25 380.25,57.25 " keyPoints="0;0;1;1" keySplines="0.167 0.167 0.833 0.833;0.167 0.167 0.833 0.833;0 0 0 0" calcMode="spline"/><animateTransform repeatCount="indefinite" dur="4s" begin="0s" xlink:href="#_R_G_L_1_G" fill="freeze" attributeName="transform" from="0 0" to="0.2 0.2" type="scale" additive="sum" keyTimes="0;0.26;0.32;1" values="0 0;0 0;0.2 0.2;0.2 0.2" keySplines="0.167 0.167 0.833 0.833;0.167 0.167 0.833 0.833;0 0 0 0" calcMode="spline"/><animateTransform repeatCount="indefinite" dur="4s" begin="0s" xlink:href="#_R_G_L_1_G" fill="freeze" attributeName="transform" from="-150 -150" to="-150 -150" type="translate" additive="sum" keyTimes="0;1" values="-150 -150;-150 -150" keySplines="0 0 1 1" calcMode="spline"/><animateMotion repeatCount="indefinite" dur="4s" begin="0s" xlink:href="#_R_G_L_0_G" fill="freeze" keyTimes="0;0.26;0.32;1" path="M330.75 138.75 C330.75,138.75 330.75,138.75 330.75,138.75 C381,131.17 397.5,98.33 380.25,57.25 C380.25,57.25 380.25,57.25 380.25,57.25 " keyPoints="0;0;1;1" keySplines="0.167 0.167 0.833 0.833;0.167 0.167 0.833 0.833;0 0 0 0" calcMode="spline"/><animateTransform repeatCount="indefinite" dur="4s" begin="0s" xlink:href="#_R_G_L_0_G" fill="freeze" attributeName="transform" from="0 0" to="0.2 0.2" type="scale" additive="sum" keyTimes="0;0.26;0.32;1" values="0 0;0 0;0.2 0.2;0.2 0.2" keySplines="0.167 0.167 0.833 0.833;0.167 0.167 0.833 0.833;0 0 0 0" calcMode="spline"/><animateTransform repeatCount="indefinite" dur="4s" begin="0s" xlink:href="#_R_G_L_0_G" fill="freeze" attributeName="transform" from="-150 -150" to="-150 -150" type="translate" additive="sum" keyTimes="0;1" values="-150 -150;-150 -150" keySplines="0 0 1 1" calcMode="spline"/><animate attributeType="XML" attributeName="opacity" dur="4s" from="0" to="1" xlink:href="#time_group"/></defs><g id="_R_G"><g id="_R_G_L_16_G" transform=" translate(300, 225.5) translate(0, 0)"><path id="_R_G_L_16_G_D_0_P_0" stroke="#74f4b7" stroke-linecap="round" stroke-linejoin="round" fill="none" stroke-width="3" stroke-opacity="1" d=" M-114.5 -186.5 C-114.5,-186.5 -106.5,-187 -106.5,-187 "/></g><g id="_R_G_L_15_G"><path id="_R_G_L_15_G_D_0_P_0" stroke="#74f4b7" stroke-linecap="round" stroke-linejoin="round" fill="none" stroke-width="3" stroke-opacity="1" d=" M-115.38 -186.82 C-115.38,-186.82 -111.37,-187.09 -111.37,-187.09 C-111.37,-187.09 -107.4,-187.36 -107.4,-187.36 "/></g><g id="_R_G_L_14_G_M"><g id="_R_G_L_14_G"><path id="_R_G_L_14_G_D_0_P_0" fill="#d38d00" fill-opacity="1" fill-rule="nonzero" d=" M289.78 135.95 C291.9,151.4 291.29,167.37 287.66,183.14 C287.66,183.14 287.66,183.15 287.66,183.15 C286.05,190.13 283.85,197.07 281.03,203.91 C280.22,205.89 279.36,207.84 278.45,209.76 C248.78,273.06 174.28,302.5 108.95,275.59 C105.95,274.35 103.03,273.02 100.17,271.59 C38.9,241.02 10.78,167.82 37.27,103.51 C44.99,84.76 56.54,68.75 70.64,56 C104.9,25 154.23,13.28 200.31,28.48 C203.34,29.48 206.35,30.59 209.35,31.83 C254.37,50.37 283.63,90.96 289.78,135.95z "/></g></g><g id="_R_G_L_13_G_M"><g id="_R_G_L_13_G"><path id="_R_G_L_13_G_D_0_P_0" fill="#ffc606" fill-opacity="1" fill-rule="nonzero" d=" M263.2 196.56 C261.55,200.58 259.72,204.48 257.72,208.24 C227.8,264.69 161.13,291.7 100.17,271.59 C97.14,270.6 94.12,269.48 91.12,268.25 C23.81,240.52 -8.28,163.47 19.44,96.16 C25.84,80.62 34.87,66.96 45.8,55.48 C45.82,55.46 45.83,55.45 45.84,55.44 C52.69,48.25 60.29,41.91 68.45,36.51 C68.65,36.38 68.75,36.31 68.75,36.31 C103.95,13.14 149.62,7.22 191.52,24.48 C194.52,25.72 197.45,27.05 200.31,28.48 C261.57,59.05 289.69,132.25 263.2,196.56z "/></g></g><g id="_R_G_L_12_G_M"><g id="_R_G_L_12_G"><path id="_R_G_L_12_G_D_0_P_0" fill="#f5b400" fill-opacity="1" fill-rule="nonzero" d=" M239.08 186.63 C216.84,240.61 155.05,266.35 101.06,244.12 C47.07,221.88 21.33,160.09 43.57,106.1 C65.81,52.11 127.6,26.37 181.59,48.61 C235.57,70.85 261.31,132.64 239.08,186.63z "/></g></g><g id="_R_G_L_11_G_M"><g id="_R_G_L_11_G"><path id="_R_G_L_11_G_D_0_P_0" fill="#d38d00" fill-opacity="1" fill-rule="nonzero" d=" M48.6 114.56 C70.84,60.57 132.63,34.83 186.62,57.07 C206.83,65.4 223.08,79.27 234.34,96.2 C223.18,75.46 205.07,58.28 181.58,48.61 C127.6,26.37 65.8,52.11 43.57,106.1 C30.98,136.67 33.78,169.74 48.38,196.72 C42.71,182.78 40,167.64 40.66,152.31 C40.96,139.69 43.51,126.92 48.6,114.56z "/></g></g><g id="_R_G_L_10_G_M"><g id="_R_G_L_10_G"><path id="_R_G_L_10_G_D_0_P_0" fill="#fce267" fill-opacity="1" fill-rule="nonzero" d=" M170.02 92.04 C170.02,92.04 174.61,80.9 174.61,80.9 C174.61,80.9 163.26,76.22 163.26,76.22 C163.26,76.22 158.67,87.37 158.67,87.37 C139.93,80.71 131.5,84.82 123.56,104.08 C116.67,120.83 115.58,127.54 120.1,134.47 C125.05,142.4 138.26,152.26 141.9,160.29 C143.52,163.54 143.15,165.32 141.6,169.21 C141.37,169.77 141.13,170.37 140.86,171.02 C136.48,181.65 134.39,184.16 126.47,180.9 C118.36,177.56 119.75,172.65 123.17,164.37 C124.13,162.03 125.05,160.3 125.82,158.94 C125.82,158.94 105.84,150.7 105.84,150.7 C103.96,153.72 101.89,157.71 99.89,162.58 C92.03,181.67 97.73,190.33 113.28,197.58 C113.28,197.58 107.5,211.61 107.5,211.61 C107.5,211.61 118.84,216.28 118.84,216.28 C118.84,216.28 124.7,202.07 124.7,202.07 C143.49,208.26 152.24,202.81 161.91,181.5 C162.74,179.68 163.57,177.74 164.43,175.68 C172.06,157.13 167.4,153.1 160.93,145.8 C156.28,140.73 150.61,136.08 145.21,130.27 C140.2,125.05 140.03,123.93 143.89,114.56 C147.6,105.56 150.29,104.14 156.77,106.81 C164.33,109.93 163.86,114.15 160.74,121.71 C159.63,124.42 158.89,126.22 158.04,127.76 C158.04,127.76 177.85,135.92 177.85,135.92 C179.32,133.37 181.09,130.1 183.09,125.24 C190.14,108.13 186.65,99.74 170.02,92.04z "/></g></g><g id="_R_G_L_9_G_M"><g id="_R_G_L_9_G"><path id="_R_G_L_9_G_D_0_P_0" fill="#d38d00" fill-opacity="1" fill-rule="nonzero" d=" M289.78 135.95 C291.9,151.4 291.29,167.37 287.66,183.14 C287.66,183.14 287.66,183.15 287.66,183.15 C286.05,190.13 283.85,197.07 281.03,203.91 C280.22,205.89 279.36,207.84 278.45,209.76 C248.78,273.06 174.28,302.5 108.95,275.59 C105.95,274.35 103.03,273.02 100.17,271.59 C38.9,241.02 10.78,167.82 37.27,103.51 C44.99,84.76 56.54,68.75 70.64,56 C104.9,25 154.23,13.28 200.31,28.48 C203.34,29.48 206.35,30.59 209.35,31.83 C254.37,50.37 283.63,90.96 289.78,135.95z "/></g></g><g id="_R_G_L_8_G_M"><g id="_R_G_L_8_G"><path id="_R_G_L_8_G_D_0_P_0" fill="#ffc606" fill-opacity="1" fill-rule="nonzero" d=" M263.2 196.56 C261.55,200.58 259.72,204.48 257.72,208.24 C227.8,264.69 161.13,291.7 100.17,271.59 C97.14,270.6 94.12,269.48 91.12,268.25 C23.81,240.52 -8.28,163.47 19.44,96.16 C25.84,80.62 34.87,66.96 45.8,55.48 C45.82,55.46 45.83,55.45 45.84,55.44 C52.69,48.25 60.29,41.91 68.45,36.51 C68.65,36.38 68.75,36.31 68.75,36.31 C103.95,13.14 149.62,7.22 191.52,24.48 C194.52,25.72 197.45,27.05 200.31,28.48 C261.57,59.05 289.69,132.25 263.2,196.56z "/></g></g><g id="_R_G_L_7_G_M"><g id="_R_G_L_7_G"><path id="_R_G_L_7_G_D_0_P_0" fill="#f5b400" fill-opacity="1" fill-rule="nonzero" d=" M239.08 186.63 C216.84,240.61 155.05,266.35 101.06,244.12 C47.07,221.88 21.33,160.09 43.57,106.1 C65.81,52.11 127.6,26.37 181.59,48.61 C235.57,70.85 261.31,132.64 239.08,186.63z "/></g></g><g id="_R_G_L_6_G_M"><g id="_R_G_L_6_G"><path id="_R_G_L_6_G_D_0_P_0" fill="#d38d00" fill-opacity="1" fill-rule="nonzero" d=" M48.6 114.56 C70.84,60.57 132.63,34.83 186.62,57.07 C206.83,65.4 223.08,79.27 234.34,96.2 C223.18,75.46 205.07,58.28 181.58,48.61 C127.6,26.37 65.8,52.11 43.57,106.1 C30.98,136.67 33.78,169.74 48.38,196.72 C42.71,182.78 40,167.64 40.66,152.31 C40.96,139.69 43.51,126.92 48.6,114.56z "/></g></g><g id="_R_G_L_5_G_M"><g id="_R_G_L_5_G"><path id="_R_G_L_5_G_D_0_P_0" fill="#fce267" fill-opacity="1" fill-rule="nonzero" d=" M170.02 92.04 C170.02,92.04 174.61,80.9 174.61,80.9 C174.61,80.9 163.26,76.22 163.26,76.22 C163.26,76.22 158.67,87.37 158.67,87.37 C139.93,80.71 131.5,84.82 123.56,104.08 C116.67,120.83 115.58,127.54 120.1,134.47 C125.05,142.4 138.26,152.26 141.9,160.29 C143.52,163.54 143.15,165.32 141.6,169.21 C141.37,169.77 141.13,170.37 140.86,171.02 C136.48,181.65 134.39,184.16 126.47,180.9 C118.36,177.56 119.75,172.65 123.17,164.37 C124.13,162.03 125.05,160.3 125.82,158.94 C125.82,158.94 105.84,150.7 105.84,150.7 C103.96,153.72 101.89,157.71 99.89,162.58 C92.03,181.67 97.73,190.33 113.28,197.58 C113.28,197.58 107.5,211.61 107.5,211.61 C107.5,211.61 118.84,216.28 118.84,216.28 C118.84,216.28 124.7,202.07 124.7,202.07 C143.49,208.26 152.24,202.81 161.91,181.5 C162.74,179.68 163.57,177.74 164.43,175.68 C172.06,157.13 167.4,153.1 160.93,145.8 C156.28,140.73 150.61,136.08 145.21,130.27 C140.2,125.05 140.03,123.93 143.89,114.56 C147.6,105.56 150.29,104.14 156.77,106.81 C164.33,109.93 163.86,114.15 160.74,121.71 C159.63,124.42 158.89,126.22 158.04,127.76 C158.04,127.76 177.85,135.92 177.85,135.92 C179.32,133.37 181.09,130.1 183.09,125.24 C190.14,108.13 186.65,99.74 170.02,92.04z "/></g></g><g id="_R_G_L_4_G"><path id="_R_G_L_4_G_D_0_P_0" fill="#d38d00" fill-opacity="1" fill-rule="nonzero" d=" M289.78 135.95 C291.9,151.4 291.29,167.37 287.66,183.14 C287.66,183.14 287.66,183.15 287.66,183.15 C286.05,190.13 283.85,197.07 281.03,203.91 C280.22,205.89 279.36,207.84 278.45,209.76 C248.78,273.06 174.28,302.5 108.95,275.59 C105.95,274.35 103.03,273.02 100.17,271.59 C38.9,241.02 10.78,167.82 37.27,103.51 C44.99,84.76 56.54,68.75 70.64,56 C104.9,25 154.23,13.28 200.31,28.48 C203.34,29.48 206.35,30.59 209.35,31.83 C254.37,50.37 283.63,90.96 289.78,135.95z "/></g><g id="_R_G_L_3_G"><path id="_R_G_L_3_G_D_0_P_0" fill="#ffc606" fill-opacity="1" fill-rule="nonzero" d=" M263.2 196.56 C261.55,200.58 259.72,204.48 257.72,208.24 C227.8,264.69 161.13,291.7 100.17,271.59 C97.14,270.6 94.12,269.48 91.12,268.25 C23.81,240.52 -8.28,163.47 19.44,96.16 C25.84,80.62 34.87,66.96 45.8,55.48 C45.82,55.46 45.83,55.45 45.84,55.44 C52.69,48.25 60.29,41.91 68.45,36.51 C68.65,36.38 68.75,36.31 68.75,36.31 C103.95,13.14 149.62,7.22 191.52,24.48 C194.52,25.72 197.45,27.05 200.31,28.48 C261.57,59.05 289.69,132.25 263.2,196.56z "/></g><g id="_R_G_L_2_G"><path id="_R_G_L_2_G_D_0_P_0" fill="#f5b400" fill-opacity="1" fill-rule="nonzero" d=" M239.08 186.63 C216.84,240.61 155.05,266.35 101.06,244.12 C47.07,221.88 21.33,160.09 43.57,106.1 C65.81,52.11 127.6,26.37 181.59,48.61 C235.57,70.85 261.31,132.64 239.08,186.63z "/></g><g id="_R_G_L_1_G"><path id="_R_G_L_1_G_D_0_P_0" fill="#d38d00" fill-opacity="1" fill-rule="nonzero" d=" M48.6 114.56 C70.84,60.57 132.63,34.83 186.62,57.07 C206.83,65.4 223.08,79.27 234.34,96.2 C223.18,75.46 205.07,58.28 181.58,48.61 C127.6,26.37 65.8,52.11 43.57,106.1 C30.98,136.67 33.78,169.74 48.38,196.72 C42.71,182.78 40,167.64 40.66,152.31 C40.96,139.69 43.51,126.92 48.6,114.56z "/></g><g id="_R_G_L_0_G"><path id="_R_G_L_0_G_D_0_P_0" fill="#fce267" fill-opacity="1" fill-rule="nonzero" d=" M170.02 92.04 C170.02,92.04 174.61,80.9 174.61,80.9 C174.61,80.9 163.26,76.22 163.26,76.22 C163.26,76.22 158.67,87.37 158.67,87.37 C139.93,80.71 131.5,84.82 123.56,104.08 C116.67,120.83 115.58,127.54 120.1,134.47 C125.05,142.4 138.26,152.26 141.9,160.29 C143.52,163.54 143.15,165.32 141.6,169.21 C141.37,169.77 141.13,170.37 140.86,171.02 C136.48,181.65 134.39,184.16 126.47,180.9 C118.36,177.56 119.75,172.65 123.17,164.37 C124.13,162.03 125.05,160.3 125.82,158.94 C125.82,158.94 105.84,150.7 105.84,150.7 C103.96,153.72 101.89,157.71 99.89,162.58 C92.03,181.67 97.73,190.33 113.28,197.58 C113.28,197.58 107.5,211.61 107.5,211.61 C107.5,211.61 118.84,216.28 118.84,216.28 C118.84,216.28 124.7,202.07 124.7,202.07 C143.49,208.26 152.24,202.81 161.91,181.5 C162.74,179.68 163.57,177.74 164.43,175.68 C172.06,157.13 167.4,153.1 160.93,145.8 C156.28,140.73 150.61,136.08 145.21,130.27 C140.2,125.05 140.03,123.93 143.89,114.56 C147.6,105.56 150.29,104.14 156.77,106.81 C164.33,109.93 163.86,114.15 160.74,121.71 C159.63,124.42 158.89,126.22 158.04,127.76 C158.04,127.76 177.85,135.92 177.85,135.92 C179.32,133.37 181.09,130.1 183.09,125.24 C190.14,108.13 186.65,99.74 170.02,92.04z "/></g></g><g id="time_group"/></svg>