<svg width="12" height="12" viewBox="0 0 12 12" fill="none" xmlns="http://www.w3.org/2000/svg">
<path d="M5.99614 11.8828C5.67296 11.8828 5.37359 11.7369 5.17437 11.4822L3.97576 9.9622L1.87472 9.96092C0.841093 9.96092 0 9.11983 0 8.08592V1.96875C0 0.934843 0.841093 0.09375 1.875 0.09375H10.125C11.1589 0.09375 12 0.934843 12 1.96875V5.74218C12 6.00109 11.7901 6.21093 11.5312 6.21093C11.2723 6.21093 11.0625 6.00109 11.0625 5.74218V1.96875C11.0625 1.45184 10.6419 1.03125 10.125 1.03125H1.875C1.35809 1.03125 0.937498 1.45184 0.937498 1.96875V8.08592C0.937498 8.60283 1.35809 9.02342 1.875 9.02342L4.20354 9.02479C4.34701 9.02489 4.4825 9.09071 4.57131 9.20332L5.91173 10.9032C5.93911 10.9382 5.97252 10.9453 5.99623 10.9453H5.99669C6.02031 10.9452 6.054 10.938 6.08019 10.904C6.08101 10.9029 6.08184 10.9018 6.08266 10.9008L7.41219 9.20314C7.50108 9.08971 7.63713 9.02342 7.78123 9.02342H10.125C10.642 9.02342 11.0625 8.60283 11.0625 8.08592C11.0625 7.82701 11.2723 7.61717 11.5312 7.61717C11.7901 7.61717 12 7.82701 12 8.08592C12 9.11983 11.1589 9.96092 10.125 9.96092H8.00957L6.82176 11.4775C6.62364 11.7338 6.32445 11.8815 6.00035 11.8828C5.99898 11.8828 5.99752 11.8828 5.99614 11.8828ZM6.46874 7.24217V4.71093C6.46874 4.45202 6.2589 4.24218 5.99999 4.24218C5.74108 4.24218 5.53124 4.45202 5.53124 4.71093V7.24217C5.53124 7.50109 5.74108 7.71092 5.99999 7.71092C6.2589 7.71092 6.46874 7.50109 6.46874 7.24217ZM5.99999 2.625C5.74108 2.625 5.53124 2.83483 5.53124 3.09374C5.53124 3.35266 5.74108 3.56249 5.99999 3.56249C6.2589 3.56249 6.46874 3.35266 6.46874 3.09374C6.46874 2.83483 6.2589 2.625 5.99999 2.625Z" fill="#B8B8D2"/>
</svg>
