<svg width="356" height="283" viewBox="0 0 356 283" fill="none" xmlns="http://www.w3.org/2000/svg">
<path d="M11.958 254.138H8.066L7.422 256H5.364L8.878 246.214H11.16L14.674 256H12.602L11.958 254.138ZM11.426 252.57L10.012 248.482L8.598 252.57H11.426ZM17.9475 249.448C18.1995 249.037 18.5262 248.715 18.9275 248.482C19.3382 248.249 19.8048 248.132 20.3275 248.132V250.19H19.8095C19.1935 250.19 18.7268 250.335 18.4095 250.624C18.1015 250.913 17.9475 251.417 17.9475 252.136V256H15.9875V248.244H17.9475V249.448ZM23.6076 249.448C23.8596 249.037 24.1863 248.715 24.5876 248.482C24.9983 248.249 25.465 248.132 25.9876 248.132V250.19H25.4696C24.8536 250.19 24.387 250.335 24.0696 250.624C23.7616 250.913 23.6076 251.417 23.6076 252.136V256H21.6476V248.244H23.6076V249.448ZM26.8038 252.094C26.8038 251.31 26.9578 250.615 27.2658 250.008C27.5831 249.401 28.0078 248.935 28.5398 248.608C29.0811 248.281 29.6831 248.118 30.3458 248.118C30.9245 248.118 31.4285 248.235 31.8578 248.468C32.2965 248.701 32.6465 248.995 32.9078 249.35V248.244H34.8818V256H32.9078V254.866C32.6558 255.23 32.3058 255.533 31.8578 255.776C31.4191 256.009 30.9105 256.126 30.3318 256.126C29.6785 256.126 29.0811 255.958 28.5398 255.622C28.0078 255.286 27.5831 254.815 27.2658 254.208C26.9578 253.592 26.8038 252.887 26.8038 252.094ZM32.9078 252.122C32.9078 251.646 32.8145 251.24 32.6278 250.904C32.4411 250.559 32.1891 250.297 31.8718 250.12C31.5545 249.933 31.2138 249.84 30.8498 249.84C30.4858 249.84 30.1498 249.929 29.8418 250.106C29.5338 250.283 29.2818 250.545 29.0858 250.89C28.8991 251.226 28.8058 251.627 28.8058 252.094C28.8058 252.561 28.8991 252.971 29.0858 253.326C29.2818 253.671 29.5338 253.937 29.8418 254.124C30.1591 254.311 30.4951 254.404 30.8498 254.404C31.2138 254.404 31.5545 254.315 31.8718 254.138C32.1891 253.951 32.4411 253.69 32.6278 253.354C32.8145 253.009 32.9078 252.598 32.9078 252.122ZM39.7641 256.126C39.1294 256.126 38.5601 256.014 38.0561 255.79C37.5521 255.557 37.1507 255.244 36.8521 254.852C36.5627 254.46 36.4041 254.026 36.3761 253.55H38.3501C38.3874 253.849 38.5321 254.096 38.7841 254.292C39.0454 254.488 39.3674 254.586 39.7501 254.586C40.1234 254.586 40.4127 254.511 40.6181 254.362C40.8327 254.213 40.9401 254.021 40.9401 253.788C40.9401 253.536 40.8094 253.349 40.5481 253.228C40.2961 253.097 39.8901 252.957 39.3301 252.808C38.7514 252.668 38.2754 252.523 37.9021 252.374C37.5381 252.225 37.2207 251.996 36.9501 251.688C36.6887 251.38 36.5581 250.965 36.5581 250.442C36.5581 250.013 36.6794 249.621 36.9221 249.266C37.1741 248.911 37.5287 248.631 37.9861 248.426C38.4527 248.221 38.9987 248.118 39.6241 248.118C40.5481 248.118 41.2854 248.351 41.8361 248.818C42.3867 249.275 42.6901 249.896 42.7461 250.68H40.8701C40.8421 250.372 40.7114 250.129 40.4781 249.952C40.2541 249.765 39.9507 249.672 39.5681 249.672C39.2134 249.672 38.9381 249.737 38.7421 249.868C38.5554 249.999 38.4621 250.181 38.4621 250.414C38.4621 250.675 38.5927 250.876 38.8541 251.016C39.1154 251.147 39.5214 251.282 40.0721 251.422C40.6321 251.562 41.0941 251.707 41.4581 251.856C41.8221 252.005 42.1347 252.239 42.3961 252.556C42.6667 252.864 42.8067 253.275 42.8161 253.788C42.8161 254.236 42.6901 254.637 42.4381 254.992C42.1954 255.347 41.8407 255.627 41.3741 255.832C40.9167 256.028 40.3801 256.126 39.7641 256.126ZM46.707 249.854V253.606C46.707 253.867 46.7677 254.059 46.889 254.18C47.0197 254.292 47.2343 254.348 47.533 254.348H48.443V256H47.211C45.559 256 44.733 255.197 44.733 253.592V249.854H43.809V248.244H44.733V246.326H46.707V248.244H48.443V249.854H46.707ZM51.8127 249.448C52.0647 249.037 52.3914 248.715 52.7927 248.482C53.2034 248.249 53.6701 248.132 54.1927 248.132V250.19H53.6747C53.0587 250.19 52.5921 250.335 52.2747 250.624C51.9667 250.913 51.8127 251.417 51.8127 252.136V256H49.8527V248.244H51.8127V249.448ZM55.0089 252.094C55.0089 251.31 55.1629 250.615 55.4709 250.008C55.7882 249.401 56.2129 248.935 56.7449 248.608C57.2862 248.281 57.8882 248.118 58.5509 248.118C59.1295 248.118 59.6335 248.235 60.0629 248.468C60.5015 248.701 60.8515 248.995 61.1129 249.35V248.244H63.0869V256H61.1129V254.866C60.8609 255.23 60.5109 255.533 60.0629 255.776C59.6242 256.009 59.1155 256.126 58.5369 256.126C57.8835 256.126 57.2862 255.958 56.7449 255.622C56.2129 255.286 55.7882 254.815 55.4709 254.208C55.1629 253.592 55.0089 252.887 55.0089 252.094ZM61.1129 252.122C61.1129 251.646 61.0195 251.24 60.8329 250.904C60.6462 250.559 60.3942 250.297 60.0769 250.12C59.7595 249.933 59.4189 249.84 59.0549 249.84C58.6909 249.84 58.3549 249.929 58.0469 250.106C57.7389 250.283 57.4869 250.545 57.2909 250.89C57.1042 251.226 57.0109 251.627 57.0109 252.094C57.0109 252.561 57.1042 252.971 57.2909 253.326C57.4869 253.671 57.7389 253.937 58.0469 254.124C58.3642 254.311 58.7002 254.404 59.0549 254.404C59.4189 254.404 59.7595 254.315 60.0769 254.138C60.3942 253.951 60.6462 253.69 60.8329 253.354C61.0195 253.009 61.1129 252.598 61.1129 252.122ZM75.7571 248.244L70.9551 259.668H68.8691L70.5491 255.804L67.4411 248.244H69.6391L71.6411 253.662L73.6711 248.244H75.7571ZM83.1176 256.126C82.4829 256.126 81.9136 256.014 81.4096 255.79C80.9056 255.557 80.5043 255.244 80.2056 254.852C79.9163 254.46 79.7576 254.026 79.7296 253.55H81.7036C81.7409 253.849 81.8856 254.096 82.1376 254.292C82.3989 254.488 82.7209 254.586 83.1036 254.586C83.4769 254.586 83.7663 254.511 83.9716 254.362C84.1863 254.213 84.2936 254.021 84.2936 253.788C84.2936 253.536 84.1629 253.349 83.9016 253.228C83.6496 253.097 83.2436 252.957 82.6836 252.808C82.1049 252.668 81.6289 252.523 81.2556 252.374C80.8916 252.225 80.5743 251.996 80.3036 251.688C80.0423 251.38 79.9116 250.965 79.9116 250.442C79.9116 250.013 80.0329 249.621 80.2756 249.266C80.5276 248.911 80.8823 248.631 81.3396 248.426C81.8063 248.221 82.3523 248.118 82.9776 248.118C83.9016 248.118 84.6389 248.351 85.1896 248.818C85.7403 249.275 86.0436 249.896 86.0996 250.68H84.2236C84.1956 250.372 84.0649 250.129 83.8316 249.952C83.6076 249.765 83.3043 249.672 82.9216 249.672C82.5669 249.672 82.2916 249.737 82.0956 249.868C81.9089 249.999 81.8156 250.181 81.8156 250.414C81.8156 250.675 81.9463 250.876 82.2076 251.016C82.4689 251.147 82.8749 251.282 83.4256 251.422C83.9856 251.562 84.4476 251.707 84.8116 251.856C85.1756 252.005 85.4883 252.239 85.7496 252.556C86.0203 252.864 86.1603 253.275 86.1696 253.788C86.1696 254.236 86.0436 254.637 85.7916 254.992C85.5489 255.347 85.1943 255.627 84.7276 255.832C84.2703 256.028 83.7336 256.126 83.1176 256.126ZM95.1005 248.244V256H93.1265V255.02C92.8745 255.356 92.5432 255.622 92.1325 255.818C91.7312 256.005 91.2925 256.098 90.8165 256.098C90.2098 256.098 89.6732 255.972 89.2065 255.72C88.7398 255.459 88.3712 255.081 88.1005 254.586C87.8392 254.082 87.7085 253.485 87.7085 252.794V248.244H89.6685V252.514C89.6685 253.13 89.8225 253.606 90.1305 253.942C90.4385 254.269 90.8585 254.432 91.3905 254.432C91.9318 254.432 92.3565 254.269 92.6645 253.942C92.9725 253.606 93.1265 253.13 93.1265 252.514V248.244H95.1005ZM104.244 251.954C104.244 252.234 104.226 252.486 104.188 252.71H98.5184C98.565 253.27 98.761 253.709 99.1064 254.026C99.4517 254.343 99.8764 254.502 100.38 254.502C101.108 254.502 101.626 254.189 101.934 253.564H104.048C103.824 254.311 103.395 254.927 102.76 255.412C102.126 255.888 101.346 256.126 100.422 256.126C99.6757 256.126 99.0037 255.963 98.4064 255.636C97.8184 255.3 97.3564 254.829 97.0204 254.222C96.6937 253.615 96.5304 252.915 96.5304 252.122C96.5304 251.319 96.6937 250.615 97.0204 250.008C97.347 249.401 97.8044 248.935 98.3924 248.608C98.9804 248.281 99.657 248.118 100.422 248.118C101.16 248.118 101.818 248.277 102.396 248.594C102.984 248.911 103.437 249.364 103.754 249.952C104.081 250.531 104.244 251.198 104.244 251.954ZM102.214 251.394C102.205 250.89 102.023 250.489 101.668 250.19C101.314 249.882 100.88 249.728 100.366 249.728C99.881 249.728 99.4704 249.877 99.1344 250.176C98.8077 250.465 98.607 250.871 98.5324 251.394H102.214ZM107.635 245.64V256H105.675V245.64H107.635ZM111.853 249.854V253.606C111.853 253.867 111.914 254.059 112.035 254.18C112.166 254.292 112.381 254.348 112.679 254.348H113.589V256H112.357C110.705 256 109.879 255.197 109.879 253.592V249.854H108.955V248.244H109.879V246.326H111.853V248.244H113.589V249.854H111.853ZM114.495 252.094C114.495 251.31 114.649 250.615 114.957 250.008C115.275 249.401 115.699 248.935 116.231 248.608C116.773 248.281 117.375 248.118 118.037 248.118C118.616 248.118 119.12 248.235 119.549 248.468C119.988 248.701 120.338 248.995 120.599 249.35V248.244H122.573V256H120.599V254.866C120.347 255.23 119.997 255.533 119.549 255.776C119.111 256.009 118.602 256.126 118.023 256.126C117.37 256.126 116.773 255.958 116.231 255.622C115.699 255.286 115.275 254.815 114.957 254.208C114.649 253.592 114.495 252.887 114.495 252.094ZM120.599 252.122C120.599 251.646 120.506 251.24 120.319 250.904C120.133 250.559 119.881 250.297 119.563 250.12C119.246 249.933 118.905 249.84 118.541 249.84C118.177 249.84 117.841 249.929 117.533 250.106C117.225 250.283 116.973 250.545 116.777 250.89C116.591 251.226 116.497 251.627 116.497 252.094C116.497 252.561 116.591 252.971 116.777 253.326C116.973 253.671 117.225 253.937 117.533 254.124C117.851 254.311 118.187 254.404 118.541 254.404C118.905 254.404 119.246 254.315 119.563 254.138C119.881 253.951 120.133 253.69 120.319 253.354C120.506 253.009 120.599 252.598 120.599 252.122ZM127.319 252.094C127.319 251.31 127.473 250.615 127.781 250.008C128.099 249.401 128.523 248.935 129.055 248.608C129.597 248.281 130.199 248.118 130.861 248.118C131.44 248.118 131.944 248.235 132.373 248.468C132.812 248.701 133.162 248.995 133.423 249.35V248.244H135.397V256H133.423V254.866C133.171 255.23 132.821 255.533 132.373 255.776C131.935 256.009 131.426 256.126 130.847 256.126C130.194 256.126 129.597 255.958 129.055 255.622C128.523 255.286 128.099 254.815 127.781 254.208C127.473 253.592 127.319 252.887 127.319 252.094ZM133.423 252.122C133.423 251.646 133.33 251.24 133.143 250.904C132.957 250.559 132.705 250.297 132.387 250.12C132.07 249.933 131.729 249.84 131.365 249.84C131.001 249.84 130.665 249.929 130.357 250.106C130.049 250.283 129.797 250.545 129.601 250.89C129.415 251.226 129.321 251.627 129.321 252.094C129.321 252.561 129.415 252.971 129.601 253.326C129.797 253.671 130.049 253.937 130.357 254.124C130.675 254.311 131.011 254.404 131.365 254.404C131.729 254.404 132.07 254.315 132.387 254.138C132.705 253.951 132.957 253.69 133.143 253.354C133.33 253.009 133.423 252.598 133.423 252.122ZM139.272 249.448C139.524 249.037 139.85 248.715 140.252 248.482C140.662 248.249 141.129 248.132 141.652 248.132V250.19H141.134C140.518 250.19 140.051 250.335 139.734 250.624C139.426 250.913 139.272 251.417 139.272 252.136V256H137.312V248.244H139.272V249.448ZM142.468 252.122C142.468 251.319 142.631 250.619 142.958 250.022C143.285 249.415 143.737 248.949 144.316 248.622C144.895 248.286 145.557 248.118 146.304 248.118C147.265 248.118 148.059 248.361 148.684 248.846C149.319 249.322 149.743 249.994 149.958 250.862H147.844C147.732 250.526 147.541 250.265 147.27 250.078C147.009 249.882 146.682 249.784 146.29 249.784C145.73 249.784 145.287 249.989 144.96 250.4C144.633 250.801 144.47 251.375 144.47 252.122C144.47 252.859 144.633 253.433 144.96 253.844C145.287 254.245 145.73 254.446 146.29 254.446C147.083 254.446 147.601 254.091 147.844 253.382H149.958C149.743 254.222 149.319 254.889 148.684 255.384C148.049 255.879 147.256 256.126 146.304 256.126C145.557 256.126 144.895 255.963 144.316 255.636C143.737 255.3 143.285 254.833 142.958 254.236C142.631 253.629 142.468 252.925 142.468 252.122ZM155.762 248.132C156.35 248.132 156.872 248.263 157.33 248.524C157.787 248.776 158.142 249.154 158.394 249.658C158.655 250.153 158.786 250.75 158.786 251.45V256H156.826V251.716C156.826 251.1 156.672 250.629 156.364 250.302C156.056 249.966 155.636 249.798 155.104 249.798C154.562 249.798 154.133 249.966 153.816 250.302C153.508 250.629 153.354 251.1 153.354 251.716V256H151.394V245.64H153.354V249.21C153.606 248.874 153.942 248.613 154.362 248.426C154.782 248.23 155.248 248.132 155.762 248.132ZM161.644 247.32C161.298 247.32 161.009 247.213 160.776 246.998C160.552 246.774 160.44 246.499 160.44 246.172C160.44 245.845 160.552 245.575 160.776 245.36C161.009 245.136 161.298 245.024 161.644 245.024C161.989 245.024 162.274 245.136 162.498 245.36C162.731 245.575 162.848 245.845 162.848 246.172C162.848 246.499 162.731 246.774 162.498 246.998C162.274 247.213 161.989 247.32 161.644 247.32ZM162.61 248.244V256H160.65V248.244H162.61ZM167.78 254.194L169.74 248.244H171.826L168.956 256H166.576L163.72 248.244H165.82L167.78 254.194ZM176.371 256.126C175.624 256.126 174.952 255.963 174.355 255.636C173.758 255.3 173.286 254.829 172.941 254.222C172.605 253.615 172.437 252.915 172.437 252.122C172.437 251.329 172.61 250.629 172.955 250.022C173.31 249.415 173.79 248.949 174.397 248.622C175.004 248.286 175.68 248.118 176.427 248.118C177.174 248.118 177.85 248.286 178.457 248.622C179.064 248.949 179.54 249.415 179.885 250.022C180.24 250.629 180.417 251.329 180.417 252.122C180.417 252.915 180.235 253.615 179.871 254.222C179.516 254.829 179.031 255.3 178.415 255.636C177.808 255.963 177.127 256.126 176.371 256.126ZM176.371 254.418C176.726 254.418 177.057 254.334 177.365 254.166C177.682 253.989 177.934 253.727 178.121 253.382C178.308 253.037 178.401 252.617 178.401 252.122C178.401 251.385 178.205 250.82 177.813 250.428C177.43 250.027 176.959 249.826 176.399 249.826C175.839 249.826 175.368 250.027 174.985 250.428C174.612 250.82 174.425 251.385 174.425 252.122C174.425 252.859 174.607 253.429 174.971 253.83C175.344 254.222 175.811 254.418 176.371 254.418ZM184.823 256.126C184.188 256.126 183.619 256.014 183.115 255.79C182.611 255.557 182.209 255.244 181.911 254.852C181.621 254.46 181.463 254.026 181.435 253.55H183.409C183.446 253.849 183.591 254.096 183.843 254.292C184.104 254.488 184.426 254.586 184.809 254.586C185.182 254.586 185.471 254.511 185.677 254.362C185.891 254.213 185.999 254.021 185.999 253.788C185.999 253.536 185.868 253.349 185.607 253.228C185.355 253.097 184.949 252.957 184.389 252.808C183.81 252.668 183.334 252.523 182.961 252.374C182.597 252.225 182.279 251.996 182.009 251.688C181.747 251.38 181.617 250.965 181.617 250.442C181.617 250.013 181.738 249.621 181.981 249.266C182.233 248.911 182.587 248.631 183.045 248.426C183.511 248.221 184.057 248.118 184.683 248.118C185.607 248.118 186.344 248.351 186.895 248.818C187.445 249.275 187.749 249.896 187.805 250.68H185.929C185.901 250.372 185.77 250.129 185.537 249.952C185.313 249.765 185.009 249.672 184.627 249.672C184.272 249.672 183.997 249.737 183.801 249.868C183.614 249.999 183.521 250.181 183.521 250.414C183.521 250.675 183.651 250.876 183.913 251.016C184.174 251.147 184.58 251.282 185.131 251.422C185.691 251.562 186.153 251.707 186.517 251.856C186.881 252.005 187.193 252.239 187.455 252.556C187.725 252.864 187.865 253.275 187.875 253.788C187.875 254.236 187.749 254.637 187.497 254.992C187.254 255.347 186.899 255.627 186.433 255.832C185.975 256.028 185.439 256.126 184.823 256.126ZM192.316 252.094C192.316 251.31 192.47 250.615 192.778 250.008C193.095 249.401 193.524 248.935 194.066 248.608C194.607 248.281 195.209 248.118 195.872 248.118C196.376 248.118 196.856 248.23 197.314 248.454C197.771 248.669 198.135 248.958 198.406 249.322V245.64H200.394V256H198.406V254.852C198.163 255.235 197.822 255.543 197.384 255.776C196.945 256.009 196.436 256.126 195.858 256.126C195.204 256.126 194.607 255.958 194.066 255.622C193.524 255.286 193.095 254.815 192.778 254.208C192.47 253.592 192.316 252.887 192.316 252.094ZM198.42 252.122C198.42 251.646 198.326 251.24 198.14 250.904C197.953 250.559 197.701 250.297 197.384 250.12C197.066 249.933 196.726 249.84 196.362 249.84C195.998 249.84 195.662 249.929 195.354 250.106C195.046 250.283 194.794 250.545 194.598 250.89C194.411 251.226 194.318 251.627 194.318 252.094C194.318 252.561 194.411 252.971 194.598 253.326C194.794 253.671 195.046 253.937 195.354 254.124C195.671 254.311 196.007 254.404 196.362 254.404C196.726 254.404 197.066 254.315 197.384 254.138C197.701 253.951 197.953 253.69 198.14 253.354C198.326 253.009 198.42 252.598 198.42 252.122ZM209.518 251.954C209.518 252.234 209.499 252.486 209.462 252.71H203.792C203.838 253.27 204.034 253.709 204.38 254.026C204.725 254.343 205.15 254.502 205.654 254.502C206.382 254.502 206.9 254.189 207.208 253.564H209.322C209.098 254.311 208.668 254.927 208.034 255.412C207.399 255.888 206.62 256.126 205.696 256.126C204.949 256.126 204.277 255.963 203.68 255.636C203.092 255.3 202.63 254.829 202.294 254.222C201.967 253.615 201.804 252.915 201.804 252.122C201.804 251.319 201.967 250.615 202.294 250.008C202.62 249.401 203.078 248.935 203.666 248.608C204.254 248.281 204.93 248.118 205.696 248.118C206.433 248.118 207.091 248.277 207.67 248.594C208.258 248.911 208.71 249.364 209.028 249.952C209.354 250.531 209.518 251.198 209.518 251.954ZM207.488 251.394C207.478 250.89 207.296 250.489 206.942 250.19C206.587 249.882 206.153 249.728 205.64 249.728C205.154 249.728 204.744 249.877 204.408 250.176C204.081 250.465 203.88 250.871 203.806 251.394H207.488ZM217.518 254.194L219.478 248.244H221.564L218.694 256H216.314L213.458 248.244H215.558L217.518 254.194ZM224.709 248.244V256H222.749V248.244H224.709ZM225.255 246.228L222.035 247.698V246.298L225.255 244.632V246.228ZM226.222 252.094C226.222 251.31 226.376 250.615 226.684 250.008C227.001 249.401 227.43 248.935 227.972 248.608C228.513 248.281 229.115 248.118 229.778 248.118C230.282 248.118 230.762 248.23 231.22 248.454C231.677 248.669 232.041 248.958 232.312 249.322V245.64H234.3V256H232.312V254.852C232.069 255.235 231.728 255.543 231.29 255.776C230.851 256.009 230.342 256.126 229.764 256.126C229.11 256.126 228.513 255.958 227.972 255.622C227.43 255.286 227.001 254.815 226.684 254.208C226.376 253.592 226.222 252.887 226.222 252.094ZM232.326 252.122C232.326 251.646 232.232 251.24 232.046 250.904C231.859 250.559 231.607 250.297 231.29 250.12C230.972 249.933 230.632 249.84 230.268 249.84C229.904 249.84 229.568 249.929 229.26 250.106C228.952 250.283 228.7 250.545 228.504 250.89C228.317 251.226 228.224 251.627 228.224 252.094C228.224 252.561 228.317 252.971 228.504 253.326C228.7 253.671 228.952 253.937 229.26 254.124C229.577 254.311 229.913 254.404 230.268 254.404C230.632 254.404 230.972 254.315 231.29 254.138C231.607 253.951 231.859 253.69 232.046 253.354C232.232 253.009 232.326 252.598 232.326 252.122ZM243.424 251.954C243.424 252.234 243.405 252.486 243.368 252.71H237.698C237.745 253.27 237.941 253.709 238.286 254.026C238.631 254.343 239.056 254.502 239.56 254.502C240.288 254.502 240.806 254.189 241.114 253.564H243.228C243.004 254.311 242.575 254.927 241.94 255.412C241.305 255.888 240.526 256.126 239.602 256.126C238.855 256.126 238.183 255.963 237.586 255.636C236.998 255.3 236.536 254.829 236.2 254.222C235.873 253.615 235.71 252.915 235.71 252.122C235.71 251.319 235.873 250.615 236.2 250.008C236.527 249.401 236.984 248.935 237.572 248.608C238.16 248.281 238.837 248.118 239.602 248.118C240.339 248.118 240.997 248.277 241.576 248.594C242.164 248.911 242.617 249.364 242.934 249.952C243.261 250.531 243.424 251.198 243.424 251.954ZM241.394 251.394C241.385 250.89 241.203 250.489 240.848 250.19C240.493 249.882 240.059 249.728 239.546 249.728C239.061 249.728 238.65 249.877 238.314 250.176C237.987 250.465 237.787 250.871 237.712 251.394H241.394ZM248.299 256.126C247.552 256.126 246.88 255.963 246.283 255.636C245.685 255.3 245.214 254.829 244.869 254.222C244.533 253.615 244.365 252.915 244.365 252.122C244.365 251.329 244.537 250.629 244.883 250.022C245.237 249.415 245.718 248.949 246.325 248.622C246.931 248.286 247.608 248.118 248.355 248.118C249.101 248.118 249.778 248.286 250.385 248.622C250.991 248.949 251.467 249.415 251.813 250.022C252.167 250.629 252.345 251.329 252.345 252.122C252.345 252.915 252.163 253.615 251.799 254.222C251.444 254.829 250.959 255.3 250.343 255.636C249.736 255.963 249.055 256.126 248.299 256.126ZM248.299 254.418C248.653 254.418 248.985 254.334 249.293 254.166C249.61 253.989 249.862 253.727 250.049 253.382C250.235 253.037 250.329 252.617 250.329 252.122C250.329 251.385 250.133 250.82 249.741 250.428C249.358 250.027 248.887 249.826 248.327 249.826C247.767 249.826 247.295 250.027 246.913 250.428C246.539 250.82 246.353 251.385 246.353 252.122C246.353 252.859 246.535 253.429 246.899 253.83C247.272 254.222 247.739 254.418 248.299 254.418ZM259.078 249.364C259.33 249.009 259.676 248.715 260.114 248.482C260.562 248.239 261.071 248.118 261.64 248.118C262.303 248.118 262.9 248.281 263.432 248.608C263.974 248.935 264.398 249.401 264.706 250.008C265.024 250.605 265.182 251.301 265.182 252.094C265.182 252.887 265.024 253.592 264.706 254.208C264.398 254.815 263.974 255.286 263.432 255.622C262.9 255.958 262.303 256.126 261.64 256.126C261.071 256.126 260.567 256.009 260.128 255.776C259.699 255.543 259.349 255.249 259.078 254.894V259.696H257.118V248.244H259.078V249.364ZM263.18 252.094C263.18 251.627 263.082 251.226 262.886 250.89C262.7 250.545 262.448 250.283 262.13 250.106C261.822 249.929 261.486 249.84 261.122 249.84C260.768 249.84 260.432 249.933 260.114 250.12C259.806 250.297 259.554 250.559 259.358 250.904C259.172 251.249 259.078 251.655 259.078 252.122C259.078 252.589 259.172 252.995 259.358 253.34C259.554 253.685 259.806 253.951 260.114 254.138C260.432 254.315 260.768 254.404 261.122 254.404C261.486 254.404 261.822 254.311 262.13 254.124C262.448 253.937 262.7 253.671 262.886 253.326C263.082 252.981 263.18 252.57 263.18 252.094ZM266.103 252.094C266.103 251.31 266.257 250.615 266.565 250.008C266.882 249.401 267.307 248.935 267.839 248.608C268.38 248.281 268.982 248.118 269.645 248.118C270.223 248.118 270.727 248.235 271.157 248.468C271.595 248.701 271.945 248.995 272.207 249.35V248.244H274.181V256H272.207V254.866C271.955 255.23 271.605 255.533 271.157 255.776C270.718 256.009 270.209 256.126 269.631 256.126C268.977 256.126 268.38 255.958 267.839 255.622C267.307 255.286 266.882 254.815 266.565 254.208C266.257 253.592 266.103 252.887 266.103 252.094ZM272.207 252.122C272.207 251.646 272.113 251.24 271.927 250.904C271.74 250.559 271.488 250.297 271.171 250.12C270.853 249.933 270.513 249.84 270.149 249.84C269.785 249.84 269.449 249.929 269.141 250.106C268.833 250.283 268.581 250.545 268.385 250.89C268.198 251.226 268.105 251.627 268.105 252.094C268.105 252.561 268.198 252.971 268.385 253.326C268.581 253.671 268.833 253.937 269.141 254.124C269.458 254.311 269.794 254.404 270.149 254.404C270.513 254.404 270.853 254.315 271.171 254.138C271.488 253.951 271.74 253.69 271.927 253.354C272.113 253.009 272.207 252.598 272.207 252.122ZM278.055 249.448C278.307 249.037 278.634 248.715 279.035 248.482C279.446 248.249 279.912 248.132 280.435 248.132V250.19H279.917C279.301 250.19 278.834 250.335 278.517 250.624C278.209 250.913 278.055 251.417 278.055 252.136V256H276.095V248.244H278.055V249.448ZM281.251 252.094C281.251 251.31 281.405 250.615 281.713 250.008C282.03 249.401 282.455 248.935 282.987 248.608C283.528 248.281 284.13 248.118 284.793 248.118C285.372 248.118 285.876 248.235 286.305 248.468C286.744 248.701 287.094 248.995 287.355 249.35V248.244H289.329V256H287.355V254.866C287.103 255.23 286.753 255.533 286.305 255.776C285.866 256.009 285.358 256.126 284.779 256.126C284.126 256.126 283.528 255.958 282.987 255.622C282.455 255.286 282.03 254.815 281.713 254.208C281.405 253.592 281.251 252.887 281.251 252.094ZM287.355 252.122C287.355 251.646 287.262 251.24 287.075 250.904C286.888 250.559 286.636 250.297 286.319 250.12C286.002 249.933 285.661 249.84 285.297 249.84C284.933 249.84 284.597 249.929 284.289 250.106C283.981 250.283 283.729 250.545 283.533 250.89C283.346 251.226 283.253 251.627 283.253 252.094C283.253 252.561 283.346 252.971 283.533 253.326C283.729 253.671 283.981 253.937 284.289 254.124C284.606 254.311 284.942 254.404 285.297 254.404C285.661 254.404 286.002 254.315 286.319 254.138C286.636 253.951 286.888 253.69 287.075 253.354C287.262 253.009 287.355 252.598 287.355 252.122ZM297.547 256.126C296.913 256.126 296.343 256.014 295.839 255.79C295.335 255.557 294.934 255.244 294.635 254.852C294.346 254.46 294.187 254.026 294.159 253.55H296.133C296.171 253.849 296.315 254.096 296.567 254.292C296.829 254.488 297.151 254.586 297.533 254.586C297.907 254.586 298.196 254.511 298.401 254.362C298.616 254.213 298.723 254.021 298.723 253.788C298.723 253.536 298.593 253.349 298.331 253.228C298.079 253.097 297.673 252.957 297.113 252.808C296.535 252.668 296.059 252.523 295.685 252.374C295.321 252.225 295.004 251.996 294.733 251.688C294.472 251.38 294.341 250.965 294.341 250.442C294.341 250.013 294.463 249.621 294.705 249.266C294.957 248.911 295.312 248.631 295.769 248.426C296.236 248.221 296.782 248.118 297.407 248.118C298.331 248.118 299.069 248.351 299.619 248.818C300.17 249.275 300.473 249.896 300.529 250.68H298.653C298.625 250.372 298.495 250.129 298.261 249.952C298.037 249.765 297.734 249.672 297.351 249.672C296.997 249.672 296.721 249.737 296.525 249.868C296.339 249.999 296.245 250.181 296.245 250.414C296.245 250.675 296.376 250.876 296.637 251.016C296.899 251.147 297.305 251.282 297.855 251.422C298.415 251.562 298.877 251.707 299.241 251.856C299.605 252.005 299.918 252.239 300.179 252.556C300.45 252.864 300.59 253.275 300.599 253.788C300.599 254.236 300.473 254.637 300.221 254.992C299.979 255.347 299.624 255.627 299.157 255.832C298.7 256.028 298.163 256.126 297.547 256.126ZM309.53 248.244V256H307.556V255.02C307.304 255.356 306.973 255.622 306.562 255.818C306.161 256.005 305.722 256.098 305.246 256.098C304.64 256.098 304.103 255.972 303.636 255.72C303.17 255.459 302.801 255.081 302.53 254.586C302.269 254.082 302.138 253.485 302.138 252.794V248.244H304.098V252.514C304.098 253.13 304.252 253.606 304.56 253.942C304.868 254.269 305.288 254.432 305.82 254.432C306.362 254.432 306.786 254.269 307.094 253.942C307.402 253.606 307.556 253.13 307.556 252.514V248.244H309.53ZM313.424 249.378C313.676 249.005 314.021 248.701 314.46 248.468C314.908 248.235 315.417 248.118 315.986 248.118C316.649 248.118 317.246 248.281 317.778 248.608C318.319 248.935 318.744 249.401 319.052 250.008C319.369 250.605 319.528 251.301 319.528 252.094C319.528 252.887 319.369 253.592 319.052 254.208C318.744 254.815 318.319 255.286 317.778 255.622C317.246 255.958 316.649 256.126 315.986 256.126C315.407 256.126 314.899 256.014 314.46 255.79C314.031 255.557 313.685 255.258 313.424 254.894V256H311.464V245.64H313.424V249.378ZM317.526 252.094C317.526 251.627 317.428 251.226 317.232 250.89C317.045 250.545 316.793 250.283 316.476 250.106C316.168 249.929 315.832 249.84 315.468 249.84C315.113 249.84 314.777 249.933 314.46 250.12C314.152 250.297 313.9 250.559 313.704 250.904C313.517 251.249 313.424 251.655 313.424 252.122C313.424 252.589 313.517 252.995 313.704 253.34C313.9 253.685 314.152 253.951 314.46 254.138C314.777 254.315 315.113 254.404 315.468 254.404C315.832 254.404 316.168 254.311 316.476 254.124C316.793 253.937 317.045 253.671 317.232 253.326C317.428 252.981 317.526 252.57 317.526 252.094ZM321.946 247.32C321.601 247.32 321.312 247.213 321.078 246.998C320.854 246.774 320.742 246.499 320.742 246.172C320.742 245.845 320.854 245.575 321.078 245.36C321.312 245.136 321.601 245.024 321.946 245.024C322.292 245.024 322.576 245.136 322.8 245.36C323.034 245.575 323.15 245.845 323.15 246.172C323.15 246.499 323.034 246.774 322.8 246.998C322.576 247.213 322.292 247.32 321.946 247.32ZM322.912 248.244V256H320.952V248.244H322.912ZM326.809 249.448C327.061 249.037 327.387 248.715 327.789 248.482C328.199 248.249 328.666 248.132 329.189 248.132V250.19H328.671C328.055 250.19 327.588 250.335 327.271 250.624C326.963 250.913 326.809 251.417 326.809 252.136V256H324.849V248.244H326.809V249.448ZM332.469 245.64V256H330.509V245.64H332.469ZM337.849 256.126C337.103 256.126 336.431 255.963 335.833 255.636C335.236 255.3 334.765 254.829 334.419 254.222C334.083 253.615 333.915 252.915 333.915 252.122C333.915 251.329 334.088 250.629 334.433 250.022C334.788 249.415 335.269 248.949 335.875 248.622C336.482 248.286 337.159 248.118 337.905 248.118C338.652 248.118 339.329 248.286 339.935 248.622C340.542 248.949 341.018 249.415 341.363 250.022C341.718 250.629 341.895 251.329 341.895 252.122C341.895 252.915 341.713 253.615 341.349 254.222C340.995 254.829 340.509 255.3 339.893 255.636C339.287 255.963 338.605 256.126 337.849 256.126ZM337.849 254.418C338.204 254.418 338.535 254.334 338.843 254.166C339.161 253.989 339.413 253.727 339.599 253.382C339.786 253.037 339.879 252.617 339.879 252.122C339.879 251.385 339.683 250.82 339.291 250.428C338.909 250.027 338.437 249.826 337.877 249.826C337.317 249.826 336.846 250.027 336.463 250.428C336.09 250.82 335.903 251.385 335.903 252.122C335.903 252.859 336.085 253.429 336.449 253.83C336.823 254.222 337.289 254.418 337.849 254.418ZM346.301 256.126C345.667 256.126 345.097 256.014 344.593 255.79C344.089 255.557 343.688 255.244 343.389 254.852C343.1 254.46 342.941 254.026 342.913 253.55H344.887C344.925 253.849 345.069 254.096 345.321 254.292C345.583 254.488 345.905 254.586 346.287 254.586C346.661 254.586 346.95 254.511 347.155 254.362C347.37 254.213 347.477 254.021 347.477 253.788C347.477 253.536 347.347 253.349 347.085 253.228C346.833 253.097 346.427 252.957 345.867 252.808C345.289 252.668 344.813 252.523 344.439 252.374C344.075 252.225 343.758 251.996 343.487 251.688C343.226 251.38 343.095 250.965 343.095 250.442C343.095 250.013 343.217 249.621 343.459 249.266C343.711 248.911 344.066 248.631 344.523 248.426C344.99 248.221 345.536 248.118 346.161 248.118C347.085 248.118 347.823 248.351 348.373 248.818C348.924 249.275 349.227 249.896 349.283 250.68H347.407C347.379 250.372 347.249 250.129 347.015 249.952C346.791 249.765 346.488 249.672 346.105 249.672C345.751 249.672 345.475 249.737 345.279 249.868C345.093 249.999 344.999 250.181 344.999 250.414C344.999 250.675 345.13 250.876 345.391 251.016C345.653 251.147 346.059 251.282 346.609 251.422C347.169 251.562 347.631 251.707 347.995 251.856C348.359 252.005 348.672 252.239 348.933 252.556C349.204 252.864 349.344 253.275 349.353 253.788C349.353 254.236 349.227 254.637 348.975 254.992C348.733 255.347 348.378 255.627 347.911 255.832C347.454 256.028 346.917 256.126 346.301 256.126Z" fill="#1F1F39"/>
<path d="M7.084 267.242V268.278H4.424V277H3.15V268.278H0.476V267.242H7.084ZM15.4562 269.328V277H14.1822V275.866C13.9396 276.258 13.5989 276.566 13.1602 276.79C12.7309 277.005 12.2549 277.112 11.7322 277.112C11.1349 277.112 10.5982 276.991 10.1222 276.748C9.64622 276.496 9.26822 276.123 8.98822 275.628C8.71755 275.133 8.58222 274.531 8.58222 273.822V269.328H9.84222V273.654C9.84222 274.41 10.0336 274.993 10.4162 275.404C10.7989 275.805 11.3216 276.006 11.9842 276.006C12.6656 276.006 13.2022 275.796 13.5942 275.376C13.9862 274.956 14.1822 274.345 14.1822 273.542V269.328H15.4562ZM20.3233 277.126C19.7353 277.126 19.208 277.028 18.7413 276.832C18.2746 276.627 17.906 276.347 17.6353 275.992C17.3646 275.628 17.2153 275.213 17.1873 274.746H18.5033C18.5406 275.129 18.718 275.441 19.0353 275.684C19.362 275.927 19.7866 276.048 20.3093 276.048C20.7946 276.048 21.1773 275.941 21.4573 275.726C21.7373 275.511 21.8773 275.241 21.8773 274.914C21.8773 274.578 21.728 274.331 21.4293 274.172C21.1306 274.004 20.6686 273.841 20.0433 273.682C19.474 273.533 19.0073 273.383 18.6433 273.234C18.2886 273.075 17.9806 272.847 17.7193 272.548C17.4673 272.24 17.3413 271.839 17.3413 271.344C17.3413 270.952 17.458 270.593 17.6913 270.266C17.9246 269.939 18.256 269.683 18.6853 269.496C19.1146 269.3 19.6046 269.202 20.1553 269.202C21.0046 269.202 21.6906 269.417 22.2133 269.846C22.736 270.275 23.016 270.863 23.0533 271.61H21.7793C21.7513 271.209 21.588 270.887 21.2893 270.644C21 270.401 20.608 270.28 20.1133 270.28C19.656 270.28 19.292 270.378 19.0213 270.574C18.7506 270.77 18.6153 271.027 18.6153 271.344C18.6153 271.596 18.6946 271.806 18.8533 271.974C19.0213 272.133 19.2266 272.263 19.4693 272.366C19.7213 272.459 20.0666 272.567 20.5053 272.688C21.056 272.837 21.504 272.987 21.8493 273.136C22.1946 273.276 22.4886 273.491 22.7313 273.78C22.9833 274.069 23.114 274.447 23.1233 274.914C23.1233 275.334 23.0066 275.712 22.7733 276.048C22.54 276.384 22.2086 276.65 21.7793 276.846C21.3593 277.033 20.874 277.126 20.3233 277.126ZM31.5102 275.824L33.8902 269.328H35.2482L32.2382 277H30.7542L27.7442 269.328H29.1162L31.5102 275.824ZM37.7758 269.328V277H36.5018V269.328H37.7758ZM38.5038 267.158L35.5218 268.754V267.802L38.5038 266.052V267.158ZM39.4711 273.136C39.4711 272.352 39.6298 271.666 39.9471 271.078C40.2645 270.481 40.6985 270.019 41.2491 269.692C41.8091 269.365 42.4345 269.202 43.1251 269.202C43.7225 269.202 44.2778 269.342 44.7911 269.622C45.3045 269.893 45.6965 270.252 45.9671 270.7V266.64H47.2551V277H45.9671V275.558C45.7151 276.015 45.3418 276.393 44.8471 276.692C44.3525 276.981 43.7738 277.126 43.1111 277.126C42.4298 277.126 41.8091 276.958 41.2491 276.622C40.6985 276.286 40.2645 275.815 39.9471 275.208C39.6298 274.601 39.4711 273.911 39.4711 273.136ZM45.9671 273.15C45.9671 272.571 45.8505 272.067 45.6171 271.638C45.3838 271.209 45.0665 270.882 44.6651 270.658C44.2731 270.425 43.8391 270.308 43.3631 270.308C42.8871 270.308 42.4531 270.42 42.0611 270.644C41.6691 270.868 41.3565 271.195 41.1231 271.624C40.8898 272.053 40.7731 272.557 40.7731 273.136C40.7731 273.724 40.8898 274.237 41.1231 274.676C41.3565 275.105 41.6691 275.437 42.0611 275.67C42.4531 275.894 42.8871 276.006 43.3631 276.006C43.8391 276.006 44.2731 275.894 44.6651 275.67C45.0665 275.437 45.3838 275.105 45.6171 274.676C45.8505 274.237 45.9671 273.729 45.9671 273.15ZM56.4081 272.87C56.4081 273.113 56.3941 273.369 56.3661 273.64H50.2341C50.2807 274.396 50.5374 274.989 51.0041 275.418C51.4801 275.838 52.0541 276.048 52.7261 276.048C53.2767 276.048 53.7341 275.922 54.0981 275.67C54.4714 275.409 54.7327 275.063 54.8821 274.634H56.2541C56.0487 275.371 55.6381 275.973 55.0221 276.44C54.4061 276.897 53.6407 277.126 52.7261 277.126C51.9981 277.126 51.3447 276.963 50.7661 276.636C50.1967 276.309 49.7487 275.847 49.4221 275.25C49.0954 274.643 48.9321 273.943 48.9321 273.15C48.9321 272.357 49.0907 271.661 49.4081 271.064C49.7254 270.467 50.1687 270.009 50.7381 269.692C51.3167 269.365 51.9794 269.202 52.7261 269.202C53.4541 269.202 54.0981 269.361 54.6581 269.678C55.2181 269.995 55.6474 270.434 55.9461 270.994C56.2541 271.545 56.4081 272.17 56.4081 272.87ZM55.0921 272.604C55.0921 272.119 54.9847 271.703 54.7701 271.358C54.5554 271.003 54.2614 270.737 53.8881 270.56C53.5241 270.373 53.1181 270.28 52.6701 270.28C52.0261 270.28 51.4754 270.485 51.0181 270.896C50.5701 271.307 50.3134 271.876 50.2481 272.604H55.0921ZM61.4357 277.126C60.7171 277.126 60.0637 276.963 59.4757 276.636C58.8971 276.309 58.4397 275.847 58.1037 275.25C57.7771 274.643 57.6137 273.943 57.6137 273.15C57.6137 272.366 57.7817 271.675 58.1177 271.078C58.4631 270.471 58.9297 270.009 59.5177 269.692C60.1057 269.365 60.7637 269.202 61.4917 269.202C62.2197 269.202 62.8777 269.365 63.4657 269.692C64.0537 270.009 64.5157 270.467 64.8517 271.064C65.1971 271.661 65.3697 272.357 65.3697 273.15C65.3697 273.943 65.1924 274.643 64.8377 275.25C64.4924 275.847 64.0211 276.309 63.4237 276.636C62.8264 276.963 62.1637 277.126 61.4357 277.126ZM61.4357 276.006C61.8931 276.006 62.3224 275.899 62.7237 275.684C63.1251 275.469 63.4471 275.147 63.6897 274.718C63.9417 274.289 64.0677 273.766 64.0677 273.15C64.0677 272.534 63.9464 272.011 63.7037 271.582C63.4611 271.153 63.1437 270.835 62.7517 270.63C62.3597 270.415 61.9351 270.308 61.4777 270.308C61.0111 270.308 60.5817 270.415 60.1897 270.63C59.8071 270.835 59.4991 271.153 59.2657 271.582C59.0324 272.011 58.9157 272.534 58.9157 273.15C58.9157 273.775 59.0277 274.303 59.2517 274.732C59.4851 275.161 59.7931 275.483 60.1757 275.698C60.5584 275.903 60.9784 276.006 61.4357 276.006ZM69.7608 277.126C69.1728 277.126 68.6455 277.028 68.1788 276.832C67.7121 276.627 67.3435 276.347 67.0728 275.992C66.8021 275.628 66.6528 275.213 66.6248 274.746H67.9408C67.9781 275.129 68.1555 275.441 68.4728 275.684C68.7995 275.927 69.2241 276.048 69.7468 276.048C70.2321 276.048 70.6148 275.941 70.8948 275.726C71.1748 275.511 71.3148 275.241 71.3148 274.914C71.3148 274.578 71.1655 274.331 70.8668 274.172C70.5681 274.004 70.1061 273.841 69.4808 273.682C68.9115 273.533 68.4448 273.383 68.0808 273.234C67.7261 273.075 67.4181 272.847 67.1568 272.548C66.9048 272.24 66.7788 271.839 66.7788 271.344C66.7788 270.952 66.8955 270.593 67.1288 270.266C67.3621 269.939 67.6935 269.683 68.1228 269.496C68.5521 269.3 69.0421 269.202 69.5928 269.202C70.4421 269.202 71.1281 269.417 71.6508 269.846C72.1735 270.275 72.4535 270.863 72.4908 271.61H71.2168C71.1888 271.209 71.0255 270.887 70.7268 270.644C70.4375 270.401 70.0455 270.28 69.5508 270.28C69.0935 270.28 68.7295 270.378 68.4588 270.574C68.1881 270.77 68.0528 271.027 68.0528 271.344C68.0528 271.596 68.1321 271.806 68.2908 271.974C68.4588 272.133 68.6641 272.263 68.9068 272.366C69.1588 272.459 69.5041 272.567 69.9428 272.688C70.4935 272.837 70.9415 272.987 71.2868 273.136C71.6321 273.276 71.9261 273.491 72.1688 273.78C72.4208 274.069 72.5515 274.447 72.5608 274.914C72.5608 275.334 72.4441 275.712 72.2108 276.048C71.9775 276.384 71.6461 276.65 71.2168 276.846C70.7968 277.033 70.3115 277.126 69.7608 277.126ZM80.8077 277.126C80.2197 277.126 79.6923 277.028 79.2257 276.832C78.759 276.627 78.3903 276.347 78.1197 275.992C77.849 275.628 77.6997 275.213 77.6717 274.746H78.9877C79.025 275.129 79.2023 275.441 79.5197 275.684C79.8463 275.927 80.271 276.048 80.7937 276.048C81.279 276.048 81.6617 275.941 81.9417 275.726C82.2217 275.511 82.3617 275.241 82.3617 274.914C82.3617 274.578 82.2123 274.331 81.9137 274.172C81.615 274.004 81.153 273.841 80.5277 273.682C79.9583 273.533 79.4917 273.383 79.1277 273.234C78.773 273.075 78.465 272.847 78.2037 272.548C77.9517 272.24 77.8257 271.839 77.8257 271.344C77.8257 270.952 77.9423 270.593 78.1757 270.266C78.409 269.939 78.7403 269.683 79.1697 269.496C79.599 269.3 80.089 269.202 80.6397 269.202C81.489 269.202 82.175 269.417 82.6977 269.846C83.2203 270.275 83.5003 270.863 83.5377 271.61H82.2637C82.2357 271.209 82.0723 270.887 81.7737 270.644C81.4843 270.401 81.0923 270.28 80.5977 270.28C80.1403 270.28 79.7763 270.378 79.5057 270.574C79.235 270.77 79.0997 271.027 79.0997 271.344C79.0997 271.596 79.179 271.806 79.3377 271.974C79.5057 272.133 79.711 272.263 79.9537 272.366C80.2057 272.459 80.551 272.567 80.9897 272.688C81.5403 272.837 81.9883 272.987 82.3337 273.136C82.679 273.276 82.973 273.491 83.2157 273.78C83.4677 274.069 83.5983 274.447 83.6077 274.914C83.6077 275.334 83.491 275.712 83.2577 276.048C83.0243 276.384 82.693 276.65 82.2637 276.846C81.8437 277.033 81.3583 277.126 80.8077 277.126ZM92.4061 272.87C92.4061 273.113 92.3921 273.369 92.3641 273.64H86.2321C86.2788 274.396 86.5355 274.989 87.0021 275.418C87.4781 275.838 88.0521 276.048 88.7241 276.048C89.2748 276.048 89.7321 275.922 90.0961 275.67C90.4695 275.409 90.7308 275.063 90.8801 274.634H92.2521C92.0468 275.371 91.6361 275.973 91.0201 276.44C90.4041 276.897 89.6388 277.126 88.7241 277.126C87.9961 277.126 87.3428 276.963 86.7641 276.636C86.1948 276.309 85.7468 275.847 85.4201 275.25C85.0935 274.643 84.9301 273.943 84.9301 273.15C84.9301 272.357 85.0888 271.661 85.4061 271.064C85.7235 270.467 86.1668 270.009 86.7361 269.692C87.3148 269.365 87.9775 269.202 88.7241 269.202C89.4521 269.202 90.0961 269.361 90.6561 269.678C91.2161 269.995 91.6455 270.434 91.9441 270.994C92.2521 271.545 92.4061 272.17 92.4061 272.87ZM91.0901 272.604C91.0901 272.119 90.9828 271.703 90.7681 271.358C90.5535 271.003 90.2595 270.737 89.8861 270.56C89.5221 270.373 89.1161 270.28 88.6681 270.28C88.0241 270.28 87.4735 270.485 87.0161 270.896C86.5681 271.307 86.3115 271.876 86.2461 272.604H91.0901ZM95.3618 270.574C95.5858 270.135 95.9031 269.795 96.3138 269.552C96.7338 269.309 97.2424 269.188 97.8398 269.188V270.504H97.5038C96.0758 270.504 95.3618 271.279 95.3618 272.828V277H94.0878V269.328H95.3618V270.574ZM98.8344 273.136C98.8344 272.352 98.9931 271.666 99.3104 271.078C99.6278 270.481 100.062 270.019 100.612 269.692C101.172 269.365 101.793 269.202 102.474 269.202C103.146 269.202 103.73 269.347 104.224 269.636C104.719 269.925 105.088 270.289 105.33 270.728V269.328H106.618V277H105.33V275.572C105.078 276.02 104.7 276.393 104.196 276.692C103.702 276.981 103.123 277.126 102.46 277.126C101.779 277.126 101.163 276.958 100.612 276.622C100.062 276.286 99.6278 275.815 99.3104 275.208C98.9931 274.601 98.8344 273.911 98.8344 273.136ZM105.33 273.15C105.33 272.571 105.214 272.067 104.98 271.638C104.747 271.209 104.43 270.882 104.028 270.658C103.636 270.425 103.202 270.308 102.726 270.308C102.25 270.308 101.816 270.42 101.424 270.644C101.032 270.868 100.72 271.195 100.486 271.624C100.253 272.053 100.136 272.557 100.136 273.136C100.136 273.724 100.253 274.237 100.486 274.676C100.72 275.105 101.032 275.437 101.424 275.67C101.816 275.894 102.25 276.006 102.726 276.006C103.202 276.006 103.636 275.894 104.028 275.67C104.43 275.437 104.747 275.105 104.98 274.676C105.214 274.237 105.33 273.729 105.33 273.15ZM104.336 267.158L101.354 268.754V267.802L104.336 266.052V267.158ZM112.509 269.188C113.443 269.188 114.199 269.473 114.777 270.042C115.356 270.602 115.645 271.414 115.645 272.478V277H114.385V272.66C114.385 271.895 114.194 271.311 113.811 270.91C113.429 270.499 112.906 270.294 112.243 270.294C111.571 270.294 111.035 270.504 110.633 270.924C110.241 271.344 110.045 271.955 110.045 272.758V277H108.771V269.328H110.045V270.42C110.297 270.028 110.638 269.725 111.067 269.51C111.506 269.295 111.987 269.188 112.509 269.188ZM122.733 270.742C122.985 270.303 123.358 269.939 123.853 269.65C124.357 269.351 124.94 269.202 125.603 269.202C126.284 269.202 126.9 269.365 127.451 269.692C128.011 270.019 128.45 270.481 128.767 271.078C129.084 271.666 129.243 272.352 129.243 273.136C129.243 273.911 129.084 274.601 128.767 275.208C128.45 275.815 128.011 276.286 127.451 276.622C126.9 276.958 126.284 277.126 125.603 277.126C124.95 277.126 124.371 276.981 123.867 276.692C123.372 276.393 122.994 276.025 122.733 275.586V280.64H121.459V269.328H122.733V270.742ZM127.941 273.136C127.941 272.557 127.824 272.053 127.591 271.624C127.358 271.195 127.04 270.868 126.639 270.644C126.247 270.42 125.813 270.308 125.337 270.308C124.87 270.308 124.436 270.425 124.035 270.658C123.643 270.882 123.326 271.213 123.083 271.652C122.85 272.081 122.733 272.581 122.733 273.15C122.733 273.729 122.85 274.237 123.083 274.676C123.326 275.105 123.643 275.437 124.035 275.67C124.436 275.894 124.87 276.006 125.337 276.006C125.813 276.006 126.247 275.894 126.639 275.67C127.04 275.437 127.358 275.105 127.591 274.676C127.824 274.237 127.941 273.724 127.941 273.136ZM132.194 270.574C132.418 270.135 132.735 269.795 133.146 269.552C133.566 269.309 134.074 269.188 134.672 269.188V270.504H134.336C132.908 270.504 132.194 271.279 132.194 272.828V277H130.92V269.328H132.194V270.574ZM136.8 268.082C136.558 268.082 136.352 267.998 136.184 267.83C136.016 267.662 135.932 267.457 135.932 267.214C135.932 266.971 136.016 266.766 136.184 266.598C136.352 266.43 136.558 266.346 136.8 266.346C137.034 266.346 137.23 266.43 137.388 266.598C137.556 266.766 137.64 266.971 137.64 267.214C137.64 267.457 137.556 267.662 137.388 267.83C137.23 267.998 137.034 268.082 136.8 268.082ZM137.416 269.328V277H136.142V269.328H137.416ZM142.444 275.824L144.824 269.328H146.182L143.172 277H141.688L138.678 269.328H140.05L142.444 275.824ZM146.959 273.136C146.959 272.352 147.118 271.666 147.435 271.078C147.753 270.481 148.187 270.019 148.737 269.692C149.297 269.365 149.918 269.202 150.599 269.202C151.271 269.202 151.855 269.347 152.349 269.636C152.844 269.925 153.213 270.289 153.455 270.728V269.328H154.743V277H153.455V275.572C153.203 276.02 152.825 276.393 152.321 276.692C151.827 276.981 151.248 277.126 150.585 277.126C149.904 277.126 149.288 276.958 148.737 276.622C148.187 276.286 147.753 275.815 147.435 275.208C147.118 274.601 146.959 273.911 146.959 273.136ZM153.455 273.15C153.455 272.571 153.339 272.067 153.105 271.638C152.872 271.209 152.555 270.882 152.153 270.658C151.761 270.425 151.327 270.308 150.851 270.308C150.375 270.308 149.941 270.42 149.549 270.644C149.157 270.868 148.845 271.195 148.611 271.624C148.378 272.053 148.261 272.557 148.261 273.136C148.261 273.724 148.378 274.237 148.611 274.676C148.845 275.105 149.157 275.437 149.549 275.67C149.941 275.894 150.375 276.006 150.851 276.006C151.327 276.006 151.761 275.894 152.153 275.67C152.555 275.437 152.872 275.105 153.105 274.676C153.339 274.237 153.455 273.729 153.455 273.15ZM156.42 273.136C156.42 272.352 156.579 271.666 156.896 271.078C157.214 270.481 157.648 270.019 158.198 269.692C158.758 269.365 159.384 269.202 160.074 269.202C160.672 269.202 161.227 269.342 161.74 269.622C162.254 269.893 162.646 270.252 162.916 270.7V266.64H164.204V277H162.916V275.558C162.664 276.015 162.291 276.393 161.796 276.692C161.302 276.981 160.723 277.126 160.06 277.126C159.379 277.126 158.758 276.958 158.198 276.622C157.648 276.286 157.214 275.815 156.896 275.208C156.579 274.601 156.42 273.911 156.42 273.136ZM162.916 273.15C162.916 272.571 162.8 272.067 162.566 271.638C162.333 271.209 162.016 270.882 161.614 270.658C161.222 270.425 160.788 270.308 160.312 270.308C159.836 270.308 159.402 270.42 159.01 270.644C158.618 270.868 158.306 271.195 158.072 271.624C157.839 272.053 157.722 272.557 157.722 273.136C157.722 273.724 157.839 274.237 158.072 274.676C158.306 275.105 158.618 275.437 159.01 275.67C159.402 275.894 159.836 276.006 160.312 276.006C160.788 276.006 161.222 275.894 161.614 275.67C162.016 275.437 162.333 275.105 162.566 274.676C162.8 274.237 162.916 273.729 162.916 273.15ZM169.703 277.126C168.985 277.126 168.331 276.963 167.743 276.636C167.165 276.309 166.707 275.847 166.371 275.25C166.045 274.643 165.881 273.943 165.881 273.15C165.881 272.366 166.049 271.675 166.385 271.078C166.731 270.471 167.197 270.009 167.785 269.692C168.373 269.365 169.031 269.202 169.759 269.202C170.487 269.202 171.145 269.365 171.733 269.692C172.321 270.009 172.783 270.467 173.119 271.064C173.465 271.661 173.637 272.357 173.637 273.15C173.637 273.943 173.46 274.643 173.105 275.25C172.76 275.847 172.289 276.309 171.691 276.636C171.094 276.963 170.431 277.126 169.703 277.126ZM169.703 276.006C170.161 276.006 170.59 275.899 170.991 275.684C171.393 275.469 171.715 275.147 171.957 274.718C172.209 274.289 172.335 273.766 172.335 273.15C172.335 272.534 172.214 272.011 171.971 271.582C171.729 271.153 171.411 270.835 171.019 270.63C170.627 270.415 170.203 270.308 169.745 270.308C169.279 270.308 168.849 270.415 168.457 270.63C168.075 270.835 167.767 271.153 167.533 271.582C167.3 272.011 167.183 272.534 167.183 273.15C167.183 273.775 167.295 274.303 167.519 274.732C167.753 275.161 168.061 275.483 168.443 275.698C168.826 275.903 169.246 276.006 169.703 276.006ZM178.028 277.126C177.44 277.126 176.913 277.028 176.446 276.832C175.98 276.627 175.611 276.347 175.34 275.992C175.07 275.628 174.92 275.213 174.892 274.746H176.208C176.246 275.129 176.423 275.441 176.74 275.684C177.067 275.927 177.492 276.048 178.014 276.048C178.5 276.048 178.882 275.941 179.162 275.726C179.442 275.511 179.582 275.241 179.582 274.914C179.582 274.578 179.433 274.331 179.134 274.172C178.836 274.004 178.374 273.841 177.748 273.682C177.179 273.533 176.712 273.383 176.348 273.234C175.994 273.075 175.686 272.847 175.424 272.548C175.172 272.24 175.046 271.839 175.046 271.344C175.046 270.952 175.163 270.593 175.396 270.266C175.63 269.939 175.961 269.683 176.39 269.496C176.82 269.3 177.31 269.202 177.86 269.202C178.71 269.202 179.396 269.417 179.918 269.846C180.441 270.275 180.721 270.863 180.758 271.61H179.484C179.456 271.209 179.293 270.887 178.994 270.644C178.705 270.401 178.313 270.28 177.818 270.28C177.361 270.28 176.997 270.378 176.726 270.574C176.456 270.77 176.32 271.027 176.32 271.344C176.32 271.596 176.4 271.806 176.558 271.974C176.726 272.133 176.932 272.263 177.174 272.366C177.426 272.459 177.772 272.567 178.21 272.688C178.761 272.837 179.209 272.987 179.554 273.136C179.9 273.276 180.194 273.491 180.436 273.78C180.688 274.069 180.819 274.447 180.828 274.914C180.828 275.334 180.712 275.712 180.478 276.048C180.245 276.384 179.914 276.65 179.484 276.846C179.064 277.033 178.579 277.126 178.028 277.126ZM190.167 269.188C190.746 269.188 191.269 269.314 191.735 269.566C192.202 269.809 192.566 270.177 192.827 270.672C193.098 271.167 193.233 271.769 193.233 272.478V277H191.973V272.66C191.973 271.895 191.782 271.311 191.399 270.91C191.017 270.499 190.494 270.294 189.831 270.294C189.159 270.294 188.623 270.504 188.221 270.924C187.829 271.344 187.633 271.955 187.633 272.758V277H186.359V266.64H187.633V270.42C187.885 270.028 188.231 269.725 188.669 269.51C189.117 269.295 189.617 269.188 190.167 269.188ZM194.838 273.136C194.838 272.352 194.997 271.666 195.314 271.078C195.632 270.481 196.066 270.019 196.616 269.692C197.176 269.365 197.797 269.202 198.478 269.202C199.15 269.202 199.734 269.347 200.228 269.636C200.723 269.925 201.092 270.289 201.334 270.728V269.328H202.622V277H201.334V275.572C201.082 276.02 200.704 276.393 200.2 276.692C199.706 276.981 199.127 277.126 198.464 277.126C197.783 277.126 197.167 276.958 196.616 276.622C196.066 276.286 195.632 275.815 195.314 275.208C194.997 274.601 194.838 273.911 194.838 273.136ZM201.334 273.15C201.334 272.571 201.218 272.067 200.984 271.638C200.751 271.209 200.434 270.882 200.032 270.658C199.64 270.425 199.206 270.308 198.73 270.308C198.254 270.308 197.82 270.42 197.428 270.644C197.036 270.868 196.724 271.195 196.49 271.624C196.257 272.053 196.14 272.557 196.14 273.136C196.14 273.724 196.257 274.237 196.49 274.676C196.724 275.105 197.036 275.437 197.428 275.67C197.82 275.894 198.254 276.006 198.73 276.006C199.206 276.006 199.64 275.894 200.032 275.67C200.434 275.437 200.751 275.105 200.984 274.676C201.218 274.237 201.334 273.729 201.334 273.15ZM207.491 277.126C206.903 277.126 206.376 277.028 205.909 276.832C205.443 276.627 205.074 276.347 204.803 275.992C204.533 275.628 204.383 275.213 204.355 274.746H205.671C205.709 275.129 205.886 275.441 206.203 275.684C206.53 275.927 206.955 276.048 207.477 276.048C207.963 276.048 208.345 275.941 208.625 275.726C208.905 275.511 209.045 275.241 209.045 274.914C209.045 274.578 208.896 274.331 208.597 274.172C208.299 274.004 207.837 273.841 207.211 273.682C206.642 273.533 206.175 273.383 205.811 273.234C205.457 273.075 205.149 272.847 204.887 272.548C204.635 272.24 204.509 271.839 204.509 271.344C204.509 270.952 204.626 270.593 204.859 270.266C205.093 269.939 205.424 269.683 205.853 269.496C206.283 269.3 206.773 269.202 207.323 269.202C208.173 269.202 208.859 269.417 209.381 269.846C209.904 270.275 210.184 270.863 210.221 271.61H208.947C208.919 271.209 208.756 270.887 208.457 270.644C208.168 270.401 207.776 270.28 207.281 270.28C206.824 270.28 206.46 270.378 206.189 270.574C205.919 270.77 205.783 271.027 205.783 271.344C205.783 271.596 205.863 271.806 206.021 271.974C206.189 272.133 206.395 272.263 206.637 272.366C206.889 272.459 207.235 272.567 207.673 272.688C208.224 272.837 208.672 272.987 209.017 273.136C209.363 273.276 209.657 273.491 209.899 273.78C210.151 274.069 210.282 274.447 210.291 274.914C210.291 275.334 210.175 275.712 209.941 276.048C209.708 276.384 209.377 276.65 208.947 276.846C208.527 277.033 208.042 277.126 207.491 277.126ZM213.644 270.378V274.9C213.644 275.273 213.723 275.539 213.882 275.698C214.04 275.847 214.316 275.922 214.708 275.922H215.646V277H214.498C213.788 277 213.256 276.837 212.902 276.51C212.547 276.183 212.37 275.647 212.37 274.9V270.378H211.376V269.328H212.37V267.396H213.644V269.328H215.646V270.378H213.644ZM216.713 273.136C216.713 272.352 216.872 271.666 217.189 271.078C217.507 270.481 217.941 270.019 218.491 269.692C219.051 269.365 219.672 269.202 220.353 269.202C221.025 269.202 221.609 269.347 222.103 269.636C222.598 269.925 222.967 270.289 223.209 270.728V269.328H224.497V277H223.209V275.572C222.957 276.02 222.579 276.393 222.075 276.692C221.581 276.981 221.002 277.126 220.339 277.126C219.658 277.126 219.042 276.958 218.491 276.622C217.941 276.286 217.507 275.815 217.189 275.208C216.872 274.601 216.713 273.911 216.713 273.136ZM223.209 273.15C223.209 272.571 223.093 272.067 222.859 271.638C222.626 271.209 222.309 270.882 221.907 270.658C221.515 270.425 221.081 270.308 220.605 270.308C220.129 270.308 219.695 270.42 219.303 270.644C218.911 270.868 218.599 271.195 218.365 271.624C218.132 272.053 218.015 272.557 218.015 273.136C218.015 273.724 218.132 274.237 218.365 274.676C218.599 275.105 218.911 275.437 219.303 275.67C219.695 275.894 220.129 276.006 220.605 276.006C221.081 276.006 221.515 275.894 221.907 275.67C222.309 275.437 222.626 275.105 222.859 274.676C223.093 274.237 223.209 273.729 223.209 273.15ZM229.907 273.136C229.907 272.352 230.065 271.666 230.383 271.078C230.7 270.481 231.134 270.019 231.685 269.692C232.245 269.365 232.87 269.202 233.561 269.202C234.223 269.202 234.802 269.351 235.297 269.65C235.801 269.939 236.169 270.299 236.403 270.728V269.328H237.691V280.64H236.403V275.586C236.16 276.015 235.787 276.379 235.283 276.678C234.779 276.977 234.191 277.126 233.519 277.126C232.847 277.126 232.235 276.958 231.685 276.622C231.134 276.286 230.7 275.815 230.383 275.208C230.065 274.601 229.907 273.911 229.907 273.136ZM236.403 273.15C236.403 272.571 236.286 272.067 236.053 271.638C235.819 271.209 235.502 270.882 235.101 270.658C234.709 270.425 234.275 270.308 233.799 270.308C233.323 270.308 232.889 270.42 232.497 270.644C232.105 270.868 231.792 271.195 231.559 271.624C231.325 272.053 231.209 272.557 231.209 273.136C231.209 273.724 231.325 274.237 231.559 274.676C231.792 275.105 232.105 275.437 232.497 275.67C232.889 275.894 233.323 276.006 233.799 276.006C234.275 276.006 234.709 275.894 235.101 275.67C235.502 275.437 235.819 275.105 236.053 274.676C236.286 274.237 236.403 273.729 236.403 273.15ZM246.648 269.328V277H245.374V275.866C245.131 276.258 244.79 276.566 244.352 276.79C243.922 277.005 243.446 277.112 242.924 277.112C242.326 277.112 241.79 276.991 241.314 276.748C240.838 276.496 240.46 276.123 240.18 275.628C239.909 275.133 239.774 274.531 239.774 273.822V269.328H241.034V273.654C241.034 274.41 241.225 274.993 241.608 275.404C241.99 275.805 242.513 276.006 243.176 276.006C243.857 276.006 244.394 275.796 244.786 275.376C245.178 274.956 245.374 274.345 245.374 273.542V269.328H246.648ZM255.799 272.87C255.799 273.113 255.785 273.369 255.757 273.64H249.625C249.671 274.396 249.928 274.989 250.395 275.418C250.871 275.838 251.445 276.048 252.117 276.048C252.667 276.048 253.125 275.922 253.489 275.67C253.862 275.409 254.123 275.063 254.273 274.634H255.645C255.439 275.371 255.029 275.973 254.413 276.44C253.797 276.897 253.031 277.126 252.117 277.126C251.389 277.126 250.735 276.963 250.157 276.636C249.587 276.309 249.139 275.847 248.813 275.25C248.486 274.643 248.323 273.943 248.323 273.15C248.323 272.357 248.481 271.661 248.799 271.064C249.116 270.467 249.559 270.009 250.129 269.692C250.707 269.365 251.37 269.202 252.117 269.202C252.845 269.202 253.489 269.361 254.049 269.678C254.609 269.995 255.038 270.434 255.337 270.994C255.645 271.545 255.799 272.17 255.799 272.87ZM254.483 272.604C254.483 272.119 254.375 271.703 254.161 271.358C253.946 271.003 253.652 270.737 253.279 270.56C252.915 270.373 252.509 270.28 252.061 270.28C251.417 270.28 250.866 270.485 250.409 270.896C249.961 271.307 249.704 271.876 249.639 272.604H254.483ZM262.487 266.64V277H261.213V266.64H262.487ZM268.004 277.126C267.285 277.126 266.632 276.963 266.044 276.636C265.465 276.309 265.008 275.847 264.672 275.25C264.345 274.643 264.182 273.943 264.182 273.15C264.182 272.366 264.35 271.675 264.686 271.078C265.031 270.471 265.498 270.009 266.086 269.692C266.674 269.365 267.332 269.202 268.06 269.202C268.788 269.202 269.446 269.365 270.034 269.692C270.622 270.009 271.084 270.467 271.42 271.064C271.765 271.661 271.938 272.357 271.938 273.15C271.938 273.943 271.761 274.643 271.406 275.25C271.061 275.847 270.589 276.309 269.992 276.636C269.395 276.963 268.732 277.126 268.004 277.126ZM268.004 276.006C268.461 276.006 268.891 275.899 269.292 275.684C269.693 275.469 270.015 275.147 270.258 274.718C270.51 274.289 270.636 273.766 270.636 273.15C270.636 272.534 270.515 272.011 270.272 271.582C270.029 271.153 269.712 270.835 269.32 270.63C268.928 270.415 268.503 270.308 268.046 270.308C267.579 270.308 267.15 270.415 266.758 270.63C266.375 270.835 266.067 271.153 265.834 271.582C265.601 272.011 265.484 272.534 265.484 273.15C265.484 273.775 265.596 274.303 265.82 274.732C266.053 275.161 266.361 275.483 266.744 275.698C267.127 275.903 267.547 276.006 268.004 276.006ZM276.329 277.126C275.741 277.126 275.214 277.028 274.747 276.832C274.28 276.627 273.912 276.347 273.641 275.992C273.37 275.628 273.221 275.213 273.193 274.746H274.509C274.546 275.129 274.724 275.441 275.041 275.684C275.368 275.927 275.792 276.048 276.315 276.048C276.8 276.048 277.183 275.941 277.463 275.726C277.743 275.511 277.883 275.241 277.883 274.914C277.883 274.578 277.734 274.331 277.435 274.172C277.136 274.004 276.674 273.841 276.049 273.682C275.48 273.533 275.013 273.383 274.649 273.234C274.294 273.075 273.986 272.847 273.725 272.548C273.473 272.24 273.347 271.839 273.347 271.344C273.347 270.952 273.464 270.593 273.697 270.266C273.93 269.939 274.262 269.683 274.691 269.496C275.12 269.3 275.61 269.202 276.161 269.202C277.01 269.202 277.696 269.417 278.219 269.846C278.742 270.275 279.022 270.863 279.059 271.61H277.785C277.757 271.209 277.594 270.887 277.295 270.644C277.006 270.401 276.614 270.28 276.119 270.28C275.662 270.28 275.298 270.378 275.027 270.574C274.756 270.77 274.621 271.027 274.621 271.344C274.621 271.596 274.7 271.806 274.859 271.974C275.027 272.133 275.232 272.263 275.475 272.366C275.727 272.459 276.072 272.567 276.511 272.688C277.062 272.837 277.51 272.987 277.855 273.136C278.2 273.276 278.494 273.491 278.737 273.78C278.989 274.069 279.12 274.447 279.129 274.914C279.129 275.334 279.012 275.712 278.779 276.048C278.546 276.384 278.214 276.65 277.785 276.846C277.365 277.033 276.88 277.126 276.329 277.126ZM285.934 270.742C286.186 270.303 286.559 269.939 287.054 269.65C287.558 269.351 288.141 269.202 288.804 269.202C289.485 269.202 290.101 269.365 290.652 269.692C291.212 270.019 291.651 270.481 291.968 271.078C292.285 271.666 292.444 272.352 292.444 273.136C292.444 273.911 292.285 274.601 291.968 275.208C291.651 275.815 291.212 276.286 290.652 276.622C290.101 276.958 289.485 277.126 288.804 277.126C288.151 277.126 287.572 276.981 287.068 276.692C286.573 276.393 286.195 276.025 285.934 275.586V280.64H284.66V269.328H285.934V270.742ZM291.142 273.136C291.142 272.557 291.025 272.053 290.792 271.624C290.559 271.195 290.241 270.868 289.84 270.644C289.448 270.42 289.014 270.308 288.538 270.308C288.071 270.308 287.637 270.425 287.236 270.658C286.844 270.882 286.527 271.213 286.284 271.652C286.051 272.081 285.934 272.581 285.934 273.15C285.934 273.729 286.051 274.237 286.284 274.676C286.527 275.105 286.844 275.437 287.236 275.67C287.637 275.894 288.071 276.006 288.538 276.006C289.014 276.006 289.448 275.894 289.84 275.67C290.241 275.437 290.559 275.105 290.792 274.676C291.025 274.237 291.142 273.724 291.142 273.136ZM300.925 269.328V277H299.651V275.866C299.408 276.258 299.068 276.566 298.629 276.79C298.2 277.005 297.724 277.112 297.201 277.112C296.604 277.112 296.067 276.991 295.591 276.748C295.115 276.496 294.737 276.123 294.457 275.628C294.186 275.133 294.051 274.531 294.051 273.822V269.328H295.311V273.654C295.311 274.41 295.502 274.993 295.885 275.404C296.268 275.805 296.79 276.006 297.453 276.006C298.134 276.006 298.671 275.796 299.063 275.376C299.455 274.956 299.651 274.345 299.651 273.542V269.328H300.925ZM304.35 270.756C304.611 270.299 304.994 269.925 305.498 269.636C306.002 269.347 306.576 269.202 307.22 269.202C307.911 269.202 308.531 269.365 309.082 269.692C309.633 270.019 310.067 270.481 310.384 271.078C310.701 271.666 310.86 272.352 310.86 273.136C310.86 273.911 310.701 274.601 310.384 275.208C310.067 275.815 309.628 276.286 309.068 276.622C308.517 276.958 307.901 277.126 307.22 277.126C306.557 277.126 305.974 276.981 305.47 276.692C304.975 276.403 304.602 276.034 304.35 275.586V277H303.076V266.64H304.35V270.756ZM309.558 273.136C309.558 272.557 309.441 272.053 309.208 271.624C308.975 271.195 308.657 270.868 308.256 270.644C307.864 270.42 307.43 270.308 306.954 270.308C306.487 270.308 306.053 270.425 305.652 270.658C305.26 270.882 304.943 271.213 304.7 271.652C304.467 272.081 304.35 272.581 304.35 273.15C304.35 273.729 304.467 274.237 304.7 274.676C304.943 275.105 305.26 275.437 305.652 275.67C306.053 275.894 306.487 276.006 306.954 276.006C307.43 276.006 307.864 275.894 308.256 275.67C308.657 275.437 308.975 275.105 309.208 274.676C309.441 274.237 309.558 273.724 309.558 273.136ZM313.811 266.64V277H312.537V266.64H313.811ZM316.64 268.082C316.398 268.082 316.192 267.998 316.024 267.83C315.856 267.662 315.772 267.457 315.772 267.214C315.772 266.971 315.856 266.766 316.024 266.598C316.192 266.43 316.398 266.346 316.64 266.346C316.874 266.346 317.07 266.43 317.228 266.598C317.396 266.766 317.48 266.971 317.48 267.214C317.48 267.457 317.396 267.662 317.228 267.83C317.07 267.998 316.874 268.082 316.64 268.082ZM317.256 269.328V277H315.982V269.328H317.256ZM318.952 273.136C318.952 272.352 319.11 271.666 319.428 271.078C319.745 270.481 320.179 270.019 320.73 269.692C321.29 269.365 321.915 269.202 322.606 269.202C323.268 269.202 323.847 269.351 324.342 269.65C324.846 269.939 325.214 270.299 325.448 270.728V269.328H326.736V280.64H325.448V275.586C325.205 276.015 324.832 276.379 324.328 276.678C323.824 276.977 323.236 277.126 322.564 277.126C321.892 277.126 321.28 276.958 320.73 276.622C320.179 276.286 319.745 275.815 319.428 275.208C319.11 274.601 318.952 273.911 318.952 273.136ZM325.448 273.15C325.448 272.571 325.331 272.067 325.098 271.638C324.864 271.209 324.547 270.882 324.146 270.658C323.754 270.425 323.32 270.308 322.844 270.308C322.368 270.308 321.934 270.42 321.542 270.644C321.15 270.868 320.837 271.195 320.604 271.624C320.37 272.053 320.254 272.557 320.254 273.136C320.254 273.724 320.37 274.237 320.604 274.676C320.837 275.105 321.15 275.437 321.542 275.67C321.934 275.894 322.368 276.006 322.844 276.006C323.32 276.006 323.754 275.894 324.146 275.67C324.547 275.437 324.864 275.105 325.098 274.676C325.331 274.237 325.448 273.729 325.448 273.15ZM335.693 269.328V277H334.419V275.866C334.176 276.258 333.835 276.566 333.397 276.79C332.967 277.005 332.491 277.112 331.969 277.112C331.371 277.112 330.835 276.991 330.359 276.748C329.883 276.496 329.505 276.123 329.225 275.628C328.954 275.133 328.819 274.531 328.819 273.822V269.328H330.079V273.654C330.079 274.41 330.27 274.993 330.653 275.404C331.035 275.805 331.558 276.006 332.221 276.006C332.902 276.006 333.439 275.796 333.831 275.376C334.223 274.956 334.419 274.345 334.419 273.542V269.328H335.693ZM344.844 272.87C344.844 273.113 344.83 273.369 344.802 273.64H338.67C338.716 274.396 338.973 274.989 339.44 275.418C339.916 275.838 340.49 276.048 341.162 276.048C341.712 276.048 342.17 275.922 342.534 275.67C342.907 275.409 343.168 275.063 343.318 274.634H344.69C344.484 275.371 344.074 275.973 343.458 276.44C342.842 276.897 342.076 277.126 341.162 277.126C340.434 277.126 339.78 276.963 339.202 276.636C338.632 276.309 338.184 275.847 337.858 275.25C337.531 274.643 337.368 273.943 337.368 273.15C337.368 272.357 337.526 271.661 337.844 271.064C338.161 270.467 338.604 270.009 339.174 269.692C339.752 269.365 340.415 269.202 341.162 269.202C341.89 269.202 342.534 269.361 343.094 269.678C343.654 269.995 344.083 270.434 344.382 270.994C344.69 271.545 344.844 272.17 344.844 272.87ZM343.528 272.604C343.528 272.119 343.42 271.703 343.206 271.358C342.991 271.003 342.697 270.737 342.324 270.56C341.96 270.373 341.554 270.28 341.106 270.28C340.462 270.28 339.911 270.485 339.454 270.896C339.006 271.307 338.749 271.876 338.684 272.604H343.528ZM349.241 277.126C348.653 277.126 348.126 277.028 347.659 276.832C347.193 276.627 346.824 276.347 346.553 275.992C346.283 275.628 346.133 275.213 346.105 274.746H347.421C347.459 275.129 347.636 275.441 347.953 275.684C348.28 275.927 348.705 276.048 349.227 276.048C349.713 276.048 350.095 275.941 350.375 275.726C350.655 275.511 350.795 275.241 350.795 274.914C350.795 274.578 350.646 274.331 350.347 274.172C350.049 274.004 349.587 273.841 348.961 273.682C348.392 273.533 347.925 273.383 347.561 273.234C347.207 273.075 346.899 272.847 346.637 272.548C346.385 272.24 346.259 271.839 346.259 271.344C346.259 270.952 346.376 270.593 346.609 270.266C346.843 269.939 347.174 269.683 347.603 269.496C348.033 269.3 348.523 269.202 349.073 269.202C349.923 269.202 350.609 269.417 351.131 269.846C351.654 270.275 351.934 270.863 351.971 271.61H350.697C350.669 271.209 350.506 270.887 350.207 270.644C349.918 270.401 349.526 270.28 349.031 270.28C348.574 270.28 348.21 270.378 347.939 270.574C347.669 270.77 347.533 271.027 347.533 271.344C347.533 271.596 347.613 271.806 347.771 271.974C347.939 272.133 348.145 272.263 348.387 272.366C348.639 272.459 348.985 272.567 349.423 272.688C349.974 272.837 350.422 272.987 350.767 273.136C351.113 273.276 351.407 273.491 351.649 273.78C351.901 274.069 352.032 274.447 352.041 274.914C352.041 275.334 351.925 275.712 351.691 276.048C351.458 276.384 351.127 276.65 350.697 276.846C350.277 277.033 349.792 277.126 349.241 277.126ZM354.246 277.084C354.003 277.084 353.798 277 353.63 276.832C353.462 276.664 353.378 276.459 353.378 276.216C353.378 275.973 353.462 275.768 353.63 275.6C353.798 275.432 354.003 275.348 354.246 275.348C354.479 275.348 354.675 275.432 354.834 275.6C355.002 275.768 355.086 275.973 355.086 276.216C355.086 276.459 355.002 276.664 354.834 276.832C354.675 277 354.479 277.084 354.246 277.084Z" fill="#1F1F39"/>
<rect x="48" y="128" width="259" height="42" rx="8" fill="#1F1F39"/>
<path d="M116.72 155.084C116.136 155.084 115.608 154.984 115.136 154.784C114.672 154.584 114.304 154.296 114.032 153.92C113.76 153.544 113.62 153.1 113.612 152.588H115.412C115.436 152.932 115.556 153.204 115.772 153.404C115.996 153.604 116.3 153.704 116.684 153.704C117.076 153.704 117.384 153.612 117.608 153.428C117.832 153.236 117.944 152.988 117.944 152.684C117.944 152.436 117.868 152.232 117.716 152.072C117.564 151.912 117.372 151.788 117.14 151.7C116.916 151.604 116.604 151.5 116.204 151.388C115.66 151.228 115.216 151.072 114.872 150.92C114.536 150.76 114.244 150.524 113.996 150.212C113.756 149.892 113.636 149.468 113.636 148.94C113.636 148.444 113.76 148.012 114.008 147.644C114.256 147.276 114.604 146.996 115.052 146.804C115.5 146.604 116.012 146.504 116.588 146.504C117.452 146.504 118.152 146.716 118.688 147.14C119.232 147.556 119.532 148.14 119.588 148.892H117.74C117.724 148.604 117.6 148.368 117.368 148.184C117.144 147.992 116.844 147.896 116.468 147.896C116.14 147.896 115.876 147.98 115.676 148.148C115.484 148.316 115.388 148.56 115.388 148.88C115.388 149.104 115.46 149.292 115.604 149.444C115.756 149.588 115.94 149.708 116.156 149.804C116.38 149.892 116.692 149.996 117.092 150.116C117.636 150.276 118.08 150.436 118.424 150.596C118.768 150.756 119.064 150.996 119.312 151.316C119.56 151.636 119.684 152.056 119.684 152.576C119.684 153.024 119.568 153.44 119.336 153.824C119.104 154.208 118.764 154.516 118.316 154.748C117.868 154.972 117.336 155.084 116.72 155.084ZM127.321 151.532C127.321 151.772 127.305 151.988 127.273 152.18H122.413C122.453 152.66 122.621 153.036 122.917 153.308C123.213 153.58 123.577 153.716 124.009 153.716C124.633 153.716 125.077 153.448 125.341 152.912H127.153C126.961 153.552 126.593 154.08 126.049 154.496C125.505 154.904 124.837 155.108 124.045 155.108C123.405 155.108 122.829 154.968 122.317 154.688C121.813 154.4 121.417 153.996 121.129 153.476C120.849 152.956 120.708 152.356 120.708 151.676C120.708 150.988 120.849 150.384 121.129 149.864C121.409 149.344 121.801 148.944 122.305 148.664C122.809 148.384 123.389 148.244 124.045 148.244C124.677 148.244 125.241 148.38 125.737 148.652C126.241 148.924 126.629 149.312 126.901 149.816C127.181 150.312 127.321 150.884 127.321 151.532ZM125.581 151.052C125.573 150.62 125.417 150.276 125.113 150.02C124.809 149.756 124.437 149.624 123.997 149.624C123.581 149.624 123.229 149.752 122.941 150.008C122.661 150.256 122.489 150.604 122.425 151.052H125.581ZM130.227 146.12V155H128.547V146.12H130.227ZM138.067 151.532C138.067 151.772 138.051 151.988 138.019 152.18H133.159C133.199 152.66 133.367 153.036 133.663 153.308C133.959 153.58 134.323 153.716 134.755 153.716C135.379 153.716 135.823 153.448 136.087 152.912H137.899C137.707 153.552 137.339 154.08 136.795 154.496C136.251 154.904 135.583 155.108 134.791 155.108C134.151 155.108 133.575 154.968 133.063 154.688C132.559 154.4 132.163 153.996 131.875 153.476C131.595 152.956 131.455 152.356 131.455 151.676C131.455 150.988 131.595 150.384 131.875 149.864C132.155 149.344 132.547 148.944 133.051 148.664C133.555 148.384 134.135 148.244 134.791 148.244C135.423 148.244 135.987 148.38 136.483 148.652C136.987 148.924 137.375 149.312 137.647 149.816C137.927 150.312 138.067 150.884 138.067 151.532ZM136.327 151.052C136.319 150.62 136.163 150.276 135.859 150.02C135.555 149.756 135.183 149.624 134.743 149.624C134.327 149.624 133.975 149.752 133.687 150.008C133.407 150.256 133.235 150.604 133.171 151.052H136.327ZM138.861 151.676C138.861 150.988 139.001 150.388 139.281 149.876C139.561 149.356 139.949 148.956 140.445 148.676C140.941 148.388 141.509 148.244 142.149 148.244C142.973 148.244 143.653 148.452 144.189 148.868C144.733 149.276 145.097 149.852 145.281 150.596H143.469C143.373 150.308 143.209 150.084 142.977 149.924C142.753 149.756 142.473 149.672 142.137 149.672C141.657 149.672 141.277 149.848 140.997 150.2C140.717 150.544 140.577 151.036 140.577 151.676C140.577 152.308 140.717 152.8 140.997 153.152C141.277 153.496 141.657 153.668 142.137 153.668C142.817 153.668 143.261 153.364 143.469 152.756H145.281C145.097 153.476 144.733 154.048 144.189 154.472C143.645 154.896 142.965 155.108 142.149 155.108C141.509 155.108 140.941 154.968 140.445 154.688C139.949 154.4 139.561 154 139.281 153.488C139.001 152.968 138.861 152.364 138.861 151.676ZM146.08 151.676C146.08 150.988 146.22 150.388 146.5 149.876C146.78 149.356 147.168 148.956 147.664 148.676C148.16 148.388 148.728 148.244 149.368 148.244C150.192 148.244 150.872 148.452 151.408 148.868C151.952 149.276 152.316 149.852 152.5 150.596H150.688C150.592 150.308 150.428 150.084 150.196 149.924C149.972 149.756 149.692 149.672 149.356 149.672C148.876 149.672 148.496 149.848 148.216 150.2C147.936 150.544 147.796 151.036 147.796 151.676C147.796 152.308 147.936 152.8 148.216 153.152C148.496 153.496 148.876 153.668 149.356 153.668C150.036 153.668 150.48 153.364 150.688 152.756H152.5C152.316 153.476 151.952 154.048 151.408 154.472C150.864 154.896 150.184 155.108 149.368 155.108C148.728 155.108 148.16 154.968 147.664 154.688C147.168 154.4 146.78 154 146.5 153.488C146.22 152.968 146.08 152.364 146.08 151.676ZM154.582 147.56C154.286 147.56 154.038 147.468 153.838 147.284C153.646 147.092 153.55 146.856 153.55 146.576C153.55 146.296 153.646 146.064 153.838 145.88C154.038 145.688 154.286 145.592 154.582 145.592C154.878 145.592 155.122 145.688 155.314 145.88C155.514 146.064 155.614 146.296 155.614 146.576C155.614 146.856 155.514 147.092 155.314 147.284C155.122 147.468 154.878 147.56 154.582 147.56ZM155.41 148.352V155H153.73V148.352H155.41ZM160.022 155.108C159.382 155.108 158.806 154.968 158.294 154.688C157.782 154.4 157.378 153.996 157.082 153.476C156.794 152.956 156.65 152.356 156.65 151.676C156.65 150.996 156.798 150.396 157.094 149.876C157.398 149.356 157.81 148.956 158.33 148.676C158.85 148.388 159.43 148.244 160.07 148.244C160.71 148.244 161.29 148.388 161.81 148.676C162.33 148.956 162.738 149.356 163.034 149.876C163.338 150.396 163.49 150.996 163.49 151.676C163.49 152.356 163.334 152.956 163.022 153.476C162.718 153.996 162.302 154.4 161.774 154.688C161.254 154.968 160.67 155.108 160.022 155.108ZM160.022 153.644C160.326 153.644 160.61 153.572 160.874 153.428C161.146 153.276 161.362 153.052 161.522 152.756C161.682 152.46 161.762 152.1 161.762 151.676C161.762 151.044 161.594 150.56 161.258 150.224C160.93 149.88 160.526 149.708 160.046 149.708C159.566 149.708 159.162 149.88 158.834 150.224C158.514 150.56 158.354 151.044 158.354 151.676C158.354 152.308 158.51 152.796 158.822 153.14C159.142 153.476 159.542 153.644 160.022 153.644ZM168.407 148.256C169.199 148.256 169.839 148.508 170.327 149.012C170.815 149.508 171.059 150.204 171.059 151.1V155H169.379V151.328C169.379 150.8 169.247 150.396 168.983 150.116C168.719 149.828 168.359 149.684 167.903 149.684C167.439 149.684 167.071 149.828 166.799 150.116C166.535 150.396 166.403 150.8 166.403 151.328V155H164.723V148.352H166.403V149.18C166.627 148.892 166.911 148.668 167.255 148.508C167.607 148.34 167.991 148.256 168.407 148.256ZM172.224 151.652C172.224 150.98 172.356 150.384 172.62 149.864C172.892 149.344 173.256 148.944 173.712 148.664C174.176 148.384 174.692 148.244 175.26 148.244C175.756 148.244 176.188 148.344 176.556 148.544C176.932 148.744 177.232 148.996 177.456 149.3V148.352H179.148V155H177.456V154.028C177.24 154.34 176.94 154.6 176.556 154.808C176.18 155.008 175.744 155.108 175.248 155.108C174.688 155.108 174.176 154.964 173.712 154.676C173.256 154.388 172.892 153.984 172.62 153.464C172.356 152.936 172.224 152.332 172.224 151.652ZM177.456 151.676C177.456 151.268 177.376 150.92 177.216 150.632C177.056 150.336 176.84 150.112 176.568 149.96C176.296 149.8 176.004 149.72 175.692 149.72C175.38 149.72 175.092 149.796 174.828 149.948C174.564 150.1 174.348 150.324 174.18 150.62C174.02 150.908 173.94 151.252 173.94 151.652C173.94 152.052 174.02 152.404 174.18 152.708C174.348 153.004 174.564 153.232 174.828 153.392C175.1 153.552 175.388 153.632 175.692 153.632C176.004 153.632 176.296 153.556 176.568 153.404C176.84 153.244 177.056 153.02 177.216 152.732C177.376 152.436 177.456 152.084 177.456 151.676ZM182.469 149.384C182.685 149.032 182.965 148.756 183.309 148.556C183.661 148.356 184.061 148.256 184.509 148.256V150.02H184.065C183.537 150.02 183.137 150.144 182.865 150.392C182.601 150.64 182.469 151.072 182.469 151.688V155H180.789V148.352H182.469V149.384ZM193.636 153.404H190.3L189.748 155H187.984L190.996 146.612H192.952L195.964 155H194.188L193.636 153.404ZM193.18 152.06L191.968 148.556L190.756 152.06H193.18ZM198.77 149.384C198.986 149.032 199.266 148.756 199.61 148.556C199.962 148.356 200.362 148.256 200.81 148.256V150.02H200.366C199.838 150.02 199.438 150.144 199.166 150.392C198.902 150.64 198.77 151.072 198.77 151.688V155H197.09V148.352H198.77V149.384ZM201.509 151.676C201.509 150.988 201.649 150.388 201.929 149.876C202.209 149.356 202.597 148.956 203.093 148.676C203.589 148.388 204.157 148.244 204.797 148.244C205.621 148.244 206.301 148.452 206.837 148.868C207.381 149.276 207.745 149.852 207.929 150.596H206.117C206.021 150.308 205.857 150.084 205.625 149.924C205.401 149.756 205.121 149.672 204.785 149.672C204.305 149.672 203.925 149.848 203.645 150.2C203.365 150.544 203.225 151.036 203.225 151.676C203.225 152.308 203.365 152.8 203.645 153.152C203.925 153.496 204.305 153.668 204.785 153.668C205.465 153.668 205.909 153.364 206.117 152.756H207.929C207.745 153.476 207.381 154.048 206.837 154.472C206.293 154.896 205.613 155.108 204.797 155.108C204.157 155.108 203.589 154.968 203.093 154.688C202.597 154.4 202.209 154 201.929 153.488C201.649 152.968 201.509 152.364 201.509 151.676ZM212.904 148.256C213.408 148.256 213.856 148.368 214.248 148.592C214.64 148.808 214.944 149.132 215.16 149.564C215.384 149.988 215.496 150.5 215.496 151.1V155H213.816V151.328C213.816 150.8 213.684 150.396 213.42 150.116C213.156 149.828 212.796 149.684 212.34 149.684C211.876 149.684 211.508 149.828 211.236 150.116C210.972 150.396 210.84 150.8 210.84 151.328V155H209.16V146.12H210.84V149.18C211.056 148.892 211.344 148.668 211.704 148.508C212.064 148.34 212.464 148.256 212.904 148.256ZM217.946 147.56C217.65 147.56 217.402 147.468 217.202 147.284C217.01 147.092 216.914 146.856 216.914 146.576C216.914 146.296 217.01 146.064 217.202 145.88C217.402 145.688 217.65 145.592 217.946 145.592C218.242 145.592 218.486 145.688 218.678 145.88C218.878 146.064 218.978 146.296 218.978 146.576C218.978 146.856 218.878 147.092 218.678 147.284C218.486 147.468 218.242 147.56 217.946 147.56ZM218.774 148.352V155H217.094V148.352H218.774ZM223.205 153.452L224.885 148.352H226.673L224.213 155H222.173L219.725 148.352H221.525L223.205 153.452ZM230.569 155.108C229.929 155.108 229.353 154.968 228.841 154.688C228.329 154.4 227.925 153.996 227.629 153.476C227.341 152.956 227.197 152.356 227.197 151.676C227.197 150.996 227.345 150.396 227.641 149.876C227.945 149.356 228.357 148.956 228.877 148.676C229.397 148.388 229.977 148.244 230.617 148.244C231.257 148.244 231.837 148.388 232.357 148.676C232.877 148.956 233.285 149.356 233.581 149.876C233.885 150.396 234.037 150.996 234.037 151.676C234.037 152.356 233.881 152.956 233.569 153.476C233.265 153.996 232.849 154.4 232.321 154.688C231.801 154.968 231.217 155.108 230.569 155.108ZM230.569 153.644C230.873 153.644 231.157 153.572 231.421 153.428C231.693 153.276 231.909 153.052 232.069 152.756C232.229 152.46 232.309 152.1 232.309 151.676C232.309 151.044 232.141 150.56 231.805 150.224C231.477 149.88 231.073 149.708 230.593 149.708C230.113 149.708 229.709 149.88 229.381 150.224C229.061 150.56 228.901 151.044 228.901 151.676C228.901 152.308 229.057 152.796 229.369 153.14C229.689 153.476 230.089 153.644 230.569 153.644ZM237.813 155.108C237.269 155.108 236.781 155.012 236.349 154.82C235.917 154.62 235.573 154.352 235.317 154.016C235.069 153.68 234.933 153.308 234.909 152.9H236.601C236.633 153.156 236.757 153.368 236.973 153.536C237.197 153.704 237.473 153.788 237.801 153.788C238.121 153.788 238.369 153.724 238.545 153.596C238.729 153.468 238.821 153.304 238.821 153.104C238.821 152.888 238.709 152.728 238.485 152.624C238.269 152.512 237.921 152.392 237.441 152.264C236.945 152.144 236.537 152.02 236.217 151.892C235.905 151.764 235.633 151.568 235.401 151.304C235.177 151.04 235.065 150.684 235.065 150.236C235.065 149.868 235.169 149.532 235.377 149.228C235.593 148.924 235.897 148.684 236.289 148.508C236.689 148.332 237.157 148.244 237.693 148.244C238.485 148.244 239.117 148.444 239.589 148.844C240.061 149.236 240.321 149.768 240.369 150.44H238.761C238.737 150.176 238.625 149.968 238.425 149.816C238.233 149.656 237.973 149.576 237.645 149.576C237.341 149.576 237.105 149.632 236.937 149.744C236.777 149.856 236.697 150.012 236.697 150.212C236.697 150.436 236.809 150.608 237.033 150.728C237.257 150.84 237.605 150.956 238.077 151.076C238.557 151.196 238.953 151.32 239.265 151.448C239.577 151.576 239.845 151.776 240.069 152.048C240.301 152.312 240.421 152.664 240.429 153.104C240.429 153.488 240.321 153.832 240.105 154.136C239.897 154.44 239.593 154.68 239.193 154.856C238.801 155.024 238.341 155.108 237.813 155.108Z" fill="white"/>
<path d="M181.75 71.2499H146.125C144.634 71.2483 143.204 70.6551 142.149 69.6006C141.095 68.546 140.502 67.1163 140.5 65.6249H179.875C180.123 65.6273 180.368 65.5806 180.598 65.4875C180.828 65.3943 181.036 65.2566 181.213 65.0822C181.389 64.9079 181.528 64.7004 181.624 64.4717C181.719 64.243 181.768 63.9977 181.768 63.75C181.768 63.5022 181.719 63.2569 181.624 63.0282C181.528 62.7996 181.389 62.592 181.213 62.4177C181.036 62.2434 180.828 62.1056 180.598 62.0125C180.368 61.9193 180.123 61.8726 179.875 61.875H140.5V20.6249C140.502 19.1336 141.095 17.7038 142.149 16.6493C143.204 15.5948 144.634 15.0016 146.125 14.9999H206.125C207.616 15.0016 209.046 15.5948 210.101 16.6493C211.155 17.7038 211.748 19.1336 211.75 20.6249V42.1875C211.755 42.6816 211.954 43.1539 212.306 43.5016C212.657 43.8493 213.131 44.0444 213.625 44.0444C214.119 44.0444 214.593 43.8493 214.944 43.5016C215.296 43.1539 215.495 42.6816 215.5 42.1875V20.6249C215.497 18.1394 214.509 15.7565 212.751 13.9989C210.994 12.2414 208.611 11.2528 206.125 11.25H146.125C143.639 11.2528 141.256 12.2414 139.499 13.9989C137.741 15.7565 136.753 18.1394 136.75 20.6249V65.6249C136.753 68.1105 137.741 70.4934 139.499 72.2509C141.256 74.0085 143.639 74.9971 146.125 74.9999H181.75C182.244 74.9951 182.716 74.7955 183.064 74.4443C183.412 74.0932 183.607 73.6191 183.607 73.1249C183.607 72.6308 183.412 72.1566 183.064 71.8055C182.716 71.4544 182.244 71.2547 181.75 71.2499V71.2499Z" fill="#1F1F39"/>
<path d="M169.281 25.2478C168.74 24.9351 168.125 24.7705 167.5 24.7705C166.875 24.7705 166.26 24.9351 165.719 25.2478C165.177 25.5605 164.727 26.0102 164.415 26.5518C164.102 27.0934 163.938 27.7077 163.938 28.3331V50.4168C163.935 51.0431 164.098 51.6589 164.41 52.2018C164.722 52.7448 165.172 53.1957 165.715 53.5088C166.257 53.8219 166.873 53.9862 167.499 53.985C168.125 53.9838 168.74 53.8172 169.281 53.5019L188.406 42.4601C188.948 42.1474 189.397 41.6977 189.71 41.1562C190.023 40.6147 190.187 40.0004 190.187 39.3751C190.187 38.7498 190.023 38.1356 189.71 37.5941C189.397 37.0525 188.948 36.6028 188.406 36.2902L169.281 25.2478ZM167.687 50.0918V28.6579L186.25 39.3749L167.687 50.0918Z" fill="#1F1F39"/>
<path d="M204.638 54.924C204.287 54.5725 203.81 54.375 203.313 54.375C202.815 54.375 202.338 54.5725 201.987 54.924L197.299 59.6116C196.952 59.9641 196.758 60.4396 196.76 60.9345C196.762 61.4294 196.959 61.9035 197.309 62.2534C197.659 62.6034 198.133 62.8008 198.628 62.8026C199.123 62.8044 199.598 62.6106 199.951 62.2632L201.437 60.7766V69.375C201.442 69.8691 201.642 70.3414 201.993 70.6891C202.344 71.0368 202.818 71.2319 203.312 71.2319C203.807 71.2319 204.281 71.0368 204.632 70.6891C204.983 70.3414 205.183 69.8691 205.187 69.375V60.7766L206.674 62.2632C206.848 62.4395 207.054 62.5796 207.282 62.6756C207.51 62.7715 207.755 62.8214 208.003 62.8223C208.25 62.8232 208.495 62.7752 208.724 62.6809C208.953 62.5867 209.161 62.4481 209.335 62.2731C209.51 62.0982 209.649 61.8903 209.743 61.6616C209.837 61.4328 209.886 61.1877 209.885 60.9403C209.884 60.6929 209.834 60.4481 209.738 60.2201C209.642 59.992 209.502 59.7852 209.326 59.6116L204.638 54.924Z" fill="#1F1F39"/>
<path d="M203.313 46.875C200.16 46.875 197.079 47.8097 194.458 49.561C191.837 51.3122 189.794 53.8013 188.588 56.7135C187.382 59.6257 187.066 62.8302 187.681 65.9218C188.296 69.0134 189.814 71.8532 192.043 74.0821C194.272 76.311 197.112 77.8289 200.203 78.4439C203.295 79.0588 206.499 78.7432 209.412 77.5369C212.324 76.3307 214.813 74.2879 216.564 71.667C218.315 69.0461 219.25 65.9647 219.25 62.8126C219.245 58.5871 217.565 54.5361 214.577 51.5482C211.589 48.5604 207.538 46.8797 203.313 46.875V46.875ZM203.313 75C200.902 75 198.546 74.2852 196.542 72.946C194.537 71.6069 192.975 69.7035 192.053 67.4765C191.13 65.2495 190.889 62.799 191.359 60.4349C191.83 58.0708 192.99 55.8992 194.695 54.1947C196.399 52.4903 198.571 51.3296 200.935 50.8593C203.299 50.389 205.75 50.6304 207.976 51.5528C210.203 52.4753 212.107 54.0374 213.446 56.0416C214.785 58.0458 215.5 60.4021 215.5 62.8126C215.496 66.0437 214.211 69.1415 211.926 71.4263C209.642 73.7111 206.544 74.9963 203.313 75Z" fill="#1F1F39"/>
</svg>
