<svg width="93" height="47" viewBox="0 0 93 47" fill="none" xmlns="http://www.w3.org/2000/svg">
<path d="M3.576 42.084C3.024 42.084 2.528 41.988 2.088 41.796C1.656 41.596 1.316 41.324 1.068 40.98C0.82 40.628 0.692 40.224 0.684 39.768H1.848C1.888 40.16 2.048 40.492 2.328 40.764C2.616 41.028 3.032 41.16 3.576 41.16C4.096 41.16 4.504 41.032 4.8 40.776C5.104 40.512 5.256 40.176 5.256 39.768C5.256 39.448 5.168 39.188 4.992 38.988C4.816 38.788 4.596 38.636 4.332 38.532C4.068 38.428 3.712 38.316 3.264 38.196C2.712 38.052 2.268 37.908 1.932 37.764C1.604 37.62 1.32 37.396 1.08 37.092C0.848 36.78 0.732 36.364 0.732 35.844C0.732 35.388 0.848 34.984 1.08 34.632C1.312 34.28 1.636 34.008 2.052 33.816C2.476 33.624 2.96 33.528 3.504 33.528C4.288 33.528 4.928 33.724 5.424 34.116C5.928 34.508 6.212 35.028 6.276 35.676H5.076C5.036 35.356 4.868 35.076 4.572 34.836C4.276 34.588 3.884 34.464 3.396 34.464C2.94 34.464 2.568 34.584 2.28 34.824C1.992 35.056 1.848 35.384 1.848 35.808C1.848 36.112 1.932 36.36 2.1 36.552C2.276 36.744 2.488 36.892 2.736 36.996C2.992 37.092 3.348 37.204 3.804 37.332C4.356 37.484 4.8 37.636 5.136 37.788C5.472 37.932 5.76 38.16 6 38.472C6.24 38.776 6.36 39.192 6.36 39.72C6.36 40.128 6.252 40.512 6.036 40.872C5.82 41.232 5.5 41.524 5.076 41.748C4.652 41.972 4.152 42.084 3.576 42.084ZM13.799 35.424V42H12.707V41.028C12.499 41.364 12.207 41.628 11.831 41.82C11.463 42.004 11.055 42.096 10.607 42.096C10.095 42.096 9.63497 41.992 9.22697 41.784C8.81897 41.568 8.49497 41.248 8.25497 40.824C8.02297 40.4 7.90697 39.884 7.90697 39.276V35.424H8.98697V39.132C8.98697 39.78 9.15097 40.28 9.47897 40.632C9.80697 40.976 10.255 41.148 10.823 41.148C11.407 41.148 11.867 40.968 12.203 40.608C12.539 40.248 12.707 39.724 12.707 39.036V35.424H13.799ZM16.7348 36.648C16.9588 36.256 17.2868 35.936 17.7188 35.688C18.1508 35.44 18.6428 35.316 19.1948 35.316C19.7868 35.316 20.3188 35.456 20.7908 35.736C21.2628 36.016 21.6348 36.412 21.9068 36.924C22.1788 37.428 22.3148 38.016 22.3148 38.688C22.3148 39.352 22.1788 39.944 21.9068 40.464C21.6348 40.984 21.2587 41.388 20.7787 41.676C20.3068 41.964 19.7788 42.108 19.1948 42.108C18.6268 42.108 18.1268 41.984 17.6948 41.736C17.2708 41.488 16.9508 41.172 16.7348 40.788V42H15.6428V33.12H16.7348V36.648ZM21.1988 38.688C21.1988 38.192 21.0988 37.76 20.8988 37.392C20.6988 37.024 20.4268 36.744 20.0828 36.552C19.7468 36.36 19.3748 36.264 18.9668 36.264C18.5668 36.264 18.1948 36.364 17.8508 36.564C17.5148 36.756 17.2428 37.04 17.0348 37.416C16.8348 37.784 16.7348 38.212 16.7348 38.7C16.7348 39.196 16.8348 39.632 17.0348 40.008C17.2428 40.376 17.5148 40.66 17.8508 40.86C18.1948 41.052 18.5668 41.148 18.9668 41.148C19.3748 41.148 19.7468 41.052 20.0828 40.86C20.4268 40.66 20.6988 40.376 20.8988 40.008C21.0988 39.632 21.1988 39.192 21.1988 38.688ZM24.3161 34.356C24.1081 34.356 23.9321 34.284 23.7881 34.14C23.6441 33.996 23.5721 33.82 23.5721 33.612C23.5721 33.404 23.6441 33.228 23.7881 33.084C23.9321 32.94 24.1081 32.868 24.3161 32.868C24.5161 32.868 24.6841 32.94 24.8201 33.084C24.9641 33.228 25.0361 33.404 25.0361 33.612C25.0361 33.82 24.9641 33.996 24.8201 34.14C24.6841 34.284 24.5161 34.356 24.3161 34.356ZM24.8441 35.424V42H23.7521V35.424H24.8441ZM27.7973 36.492C27.9893 36.116 28.2613 35.824 28.6133 35.616C28.9733 35.408 29.4093 35.304 29.9213 35.304V36.432H29.6333C28.4093 36.432 27.7973 37.096 27.7973 38.424V42H26.7053V35.424H27.7973V36.492ZM42.289 35.304C42.801 35.304 43.257 35.412 43.657 35.628C44.057 35.836 44.373 36.152 44.605 36.576C44.837 37 44.953 37.516 44.953 38.124V42H43.873V38.28C43.873 37.624 43.709 37.124 43.381 36.78C43.061 36.428 42.625 36.252 42.073 36.252C41.505 36.252 41.053 36.436 40.717 36.804C40.381 37.164 40.213 37.688 40.213 38.376V42H39.133V38.28C39.133 37.624 38.969 37.124 38.641 36.78C38.321 36.428 37.885 36.252 37.333 36.252C36.765 36.252 36.313 36.436 35.977 36.804C35.641 37.164 35.473 37.688 35.473 38.376V42H34.381V35.424H35.473V36.372C35.689 36.028 35.977 35.764 36.337 35.58C36.705 35.396 37.109 35.304 37.549 35.304C38.101 35.304 38.589 35.428 39.013 35.676C39.437 35.924 39.753 36.288 39.961 36.768C40.145 36.304 40.449 35.944 40.873 35.688C41.297 35.432 41.769 35.304 42.289 35.304ZM47.3083 34.356C47.1003 34.356 46.9243 34.284 46.7803 34.14C46.6363 33.996 46.5643 33.82 46.5643 33.612C46.5643 33.404 46.6363 33.228 46.7803 33.084C46.9243 32.94 47.1003 32.868 47.3083 32.868C47.5083 32.868 47.6763 32.94 47.8123 33.084C47.9563 33.228 48.0283 33.404 48.0283 33.612C48.0283 33.82 47.9563 33.996 47.8123 34.14C47.6763 34.284 47.5083 34.356 47.3083 34.356ZM47.8363 35.424V42H46.7443V35.424H47.8363ZM52.9014 35.304C53.7014 35.304 54.3494 35.548 54.8454 36.036C55.3414 36.516 55.5894 37.212 55.5894 38.124V42H54.5094V38.28C54.5094 37.624 54.3454 37.124 54.0174 36.78C53.6894 36.428 53.2414 36.252 52.6734 36.252C52.0974 36.252 51.6374 36.432 51.2934 36.792C50.9574 37.152 50.7894 37.676 50.7894 38.364V42H49.6974V35.424H50.7894V36.36C51.0054 36.024 51.2974 35.764 51.6654 35.58C52.0414 35.396 52.4534 35.304 52.9014 35.304ZM57.9372 34.356C57.7292 34.356 57.5532 34.284 57.4092 34.14C57.2652 33.996 57.1932 33.82 57.1932 33.612C57.1932 33.404 57.2652 33.228 57.4092 33.084C57.5532 32.94 57.7292 32.868 57.9372 32.868C58.1372 32.868 58.3052 32.94 58.4412 33.084C58.5852 33.228 58.6572 33.404 58.6572 33.612C58.6572 33.82 58.5852 33.996 58.4412 34.14C58.3052 34.284 58.1372 34.356 57.9372 34.356ZM58.4652 35.424V42H57.3732V35.424H58.4652ZM59.9183 38.688C59.9183 38.016 60.0543 37.428 60.3263 36.924C60.5983 36.412 60.9703 36.016 61.4423 35.736C61.9223 35.456 62.4543 35.316 63.0383 35.316C63.6143 35.316 64.1143 35.44 64.5383 35.688C64.9623 35.936 65.2783 36.248 65.4863 36.624V35.424H66.5903V42H65.4863V40.776C65.2703 41.16 64.9463 41.48 64.5143 41.736C64.0903 41.984 63.5943 42.108 63.0263 42.108C62.4423 42.108 61.9143 41.964 61.4423 41.676C60.9703 41.388 60.5983 40.984 60.3263 40.464C60.0543 39.944 59.9183 39.352 59.9183 38.688ZM65.4863 38.7C65.4863 38.204 65.3863 37.772 65.1863 37.404C64.9863 37.036 64.7143 36.756 64.3703 36.564C64.0343 36.364 63.6623 36.264 63.2543 36.264C62.8463 36.264 62.4743 36.36 62.1383 36.552C61.8023 36.744 61.5343 37.024 61.3343 37.392C61.1343 37.76 61.0343 38.192 61.0343 38.688C61.0343 39.192 61.1343 39.632 61.3343 40.008C61.5343 40.376 61.8023 40.66 62.1383 40.86C62.4743 41.052 62.8463 41.148 63.2543 41.148C63.6623 41.148 64.0343 41.052 64.3703 40.86C64.7143 40.66 64.9863 40.376 65.1863 40.008C65.3863 39.632 65.4863 39.196 65.4863 38.7ZM69.7677 36.324V40.2C69.7677 40.52 69.8357 40.748 69.9717 40.884C70.1077 41.012 70.3437 41.076 70.6797 41.076H71.4837V42H70.4997C69.8917 42 69.4357 41.86 69.1317 41.58C68.8277 41.3 68.6757 40.84 68.6757 40.2V36.324H67.8237V35.424H68.6757V33.768H69.7677V35.424H71.4837V36.324H69.7677ZM78.6388 35.424V42H77.5468V41.028C77.3388 41.364 77.0468 41.628 76.6708 41.82C76.3028 42.004 75.8948 42.096 75.4468 42.096C74.9348 42.096 74.4748 41.992 74.0668 41.784C73.6588 41.568 73.3348 41.248 73.0948 40.824C72.8628 40.4 72.7468 39.884 72.7468 39.276V35.424H73.8268V39.132C73.8268 39.78 73.9908 40.28 74.3188 40.632C74.6468 40.976 75.0948 41.148 75.6628 41.148C76.2468 41.148 76.7068 40.968 77.0428 40.608C77.3788 40.248 77.5468 39.724 77.5468 39.036V35.424H78.6388ZM81.5746 36.492C81.7666 36.116 82.0386 35.824 82.3906 35.616C82.7506 35.408 83.1866 35.304 83.6986 35.304V36.432H83.4106C82.1866 36.432 81.5746 37.096 81.5746 38.424V42H80.4826V35.424H81.5746V36.492ZM84.5512 38.688C84.5512 38.016 84.6872 37.428 84.9592 36.924C85.2312 36.412 85.6032 36.016 86.0752 35.736C86.5552 35.456 87.0872 35.316 87.6712 35.316C88.2472 35.316 88.7472 35.44 89.1712 35.688C89.5952 35.936 89.9112 36.248 90.1192 36.624V35.424H91.2232V42H90.1192V40.776C89.9032 41.16 89.5792 41.48 89.1472 41.736C88.7232 41.984 88.2272 42.108 87.6592 42.108C87.0752 42.108 86.5472 41.964 86.0752 41.676C85.6032 41.388 85.2312 40.984 84.9592 40.464C84.6872 39.944 84.5512 39.352 84.5512 38.688ZM90.1192 38.7C90.1192 38.204 90.0192 37.772 89.8192 37.404C89.6192 37.036 89.3472 36.756 89.0032 36.564C88.6672 36.364 88.2952 36.264 87.8872 36.264C87.4792 36.264 87.1072 36.36 86.7712 36.552C86.4352 36.744 86.1672 37.024 85.9672 37.392C85.7672 37.76 85.6672 38.192 85.6672 38.688C85.6672 39.192 85.7672 39.632 85.9672 40.008C86.1672 40.376 86.4352 40.66 86.7712 40.86C87.1072 41.052 87.4792 41.148 87.8872 41.148C88.2952 41.148 88.6672 41.052 89.0032 40.86C89.3472 40.66 89.6192 40.376 89.8192 40.008C90.0192 39.632 90.1192 39.196 90.1192 38.7Z" fill="#B8B8D2"/>
<path d="M43.4492 8.79594C43.8636 8.79594 44.261 8.63132 44.5541 8.33829C44.8471 8.04527 45.0117 7.64784 45.0117 7.23344C45.0117 6.81904 44.8471 6.42161 44.5541 6.12858C44.261 5.83556 43.8636 5.67094 43.4492 5.67094C43.0348 5.67094 42.6374 5.83556 42.3444 6.12858C42.0513 6.42161 41.8867 6.81904 41.8867 7.23344C41.8867 7.64784 42.0513 8.04527 42.3444 8.33829C42.6374 8.63132 43.0348 8.79594 43.4492 8.79594ZM43.4492 6.42301C43.6642 6.42301 43.8703 6.50839 44.0223 6.66038C44.1743 6.81236 44.2596 7.0185 44.2596 7.23344C44.2596 7.44838 44.1743 7.65451 44.0223 7.8065C43.8703 7.95848 43.6642 8.04387 43.4492 8.04387C43.2343 8.04387 43.0281 7.95848 42.8762 7.8065C42.7242 7.65451 42.6388 7.44838 42.6388 7.23344C42.6388 7.0185 42.7242 6.81236 42.8762 6.66038C43.0281 6.50839 43.2343 6.42301 43.4492 6.42301V6.42301ZM53.4586 13.8355C53.4206 13.7875 53.3723 13.7488 53.3173 13.7221C53.2622 13.6955 53.2018 13.6816 53.1406 13.6816C53.0794 13.6816 53.0191 13.6955 52.964 13.7221C52.9089 13.7488 52.8606 13.7875 52.8227 13.8355L50.8695 16.5699C50.8279 16.6287 50.8033 16.6979 50.7985 16.7698C50.7936 16.8417 50.8087 16.9135 50.8421 16.9774C50.8755 17.0412 50.9258 17.0946 50.9876 17.1317C51.0494 17.1688 51.1202 17.1881 51.1923 17.1875L51.9688 17.178V20.3125C51.9688 20.4161 52.0099 20.5155 52.0832 20.5887C52.1564 20.662 52.2558 20.7031 52.3594 20.7031H53.9219C54.0255 20.7031 54.1248 20.662 54.1981 20.5887C54.2713 20.5155 54.3125 20.4161 54.3125 20.3125V17.1875H55.0938C55.1651 17.1866 55.2349 17.1662 55.2956 17.1286C55.3563 17.0911 55.4056 17.0377 55.4383 16.9742C55.471 16.9108 55.4858 16.8396 55.4811 16.7684C55.4764 16.6971 55.4524 16.6285 55.4117 16.5699L53.4586 13.8355ZM53.9219 16.4062C53.8183 16.4062 53.7189 16.4474 53.6457 16.5207C53.5724 16.5939 53.5312 16.6933 53.5312 16.7969V19.9219H52.75V16.7828C52.7502 16.731 52.74 16.6798 52.7201 16.632C52.7003 16.5842 52.6711 16.5409 52.6342 16.5045C52.5974 16.4682 52.5538 16.4395 52.5057 16.4202C52.4577 16.4009 52.4063 16.3914 52.3546 16.3921L51.9531 16.3971L53.1406 14.7346L54.3346 16.4062H53.9219ZM55.0938 12.5011V3.90625C55.0934 3.59555 54.9698 3.29768 54.7501 3.07799C54.5304 2.85829 54.2326 2.73472 53.9219 2.73438H35.9531C35.6424 2.73472 35.3446 2.85829 35.1249 3.07799C34.9052 3.29768 34.7816 3.59555 34.7812 3.90625V17.9687C34.7816 18.2794 34.9052 18.5773 35.1249 18.797C35.3446 19.0167 35.6424 19.1403 35.9531 19.1406H48.4543C48.775 19.9106 49.2805 20.5897 49.9261 21.118C50.5717 21.6462 51.3375 22.0072 52.1557 22.1691C52.974 22.331 53.8196 22.2888 54.6177 22.0463C55.4158 21.8038 56.1418 21.3683 56.7316 20.7785C57.3215 20.1887 57.7569 19.4626 57.9994 18.6645C58.242 17.8664 58.2841 17.0209 58.1222 16.2026C57.9603 15.3843 57.5993 14.6186 57.0711 13.973C56.5429 13.3274 55.8638 12.8219 55.0938 12.5011V12.5011ZM46.5117 16.7969L43.7773 13.4258L47.6367 8.75391C47.6788 8.70775 47.7301 8.67089 47.7873 8.64567C47.8445 8.62044 47.9063 8.60742 47.9687 8.60742C48.0312 8.60742 48.093 8.62044 48.1502 8.64567C48.2074 8.67089 48.2587 8.70775 48.3008 8.75391L51.381 12.4302C50.4719 12.7675 49.6782 13.3578 49.0937 14.1316C48.5092 14.9053 48.1582 15.8301 48.0823 16.7969H46.5117ZM37.125 16.7969V14.1836L40.0234 10.8477C40.0641 10.8001 40.1148 10.762 40.1718 10.7362C40.2288 10.7103 40.2908 10.6973 40.3534 10.698C40.416 10.6988 40.4777 10.7133 40.534 10.7405C40.5904 10.7677 40.6401 10.8069 40.6797 10.8555L45.5039 16.7969H37.125ZM52.75 12.1292C52.5542 12.1433 52.3594 12.1687 52.1666 12.2054L48.9023 8.25391C48.7876 8.11806 48.6447 8.00889 48.4834 7.934C48.3222 7.85911 48.1465 7.82031 47.9687 7.82031C47.791 7.82031 47.6153 7.85911 47.4541 7.934C47.2928 8.00889 47.1499 8.11806 47.0352 8.25391L43.2734 12.8086L41.2891 10.3633C41.1764 10.227 41.0354 10.1169 40.876 10.0404C40.7166 9.96394 40.5425 9.92299 40.3657 9.92039C40.1889 9.91779 40.0136 9.9536 39.852 10.0253C39.6904 10.0971 39.5463 10.2031 39.4297 10.3359L37.125 12.9927V5.07812H52.75V12.1292ZM35.9531 18.3594C35.8496 18.3593 35.7503 18.3181 35.677 18.2449C35.6038 18.1716 35.5626 18.0723 35.5625 17.9687V3.90625C35.5626 3.80268 35.6038 3.70338 35.677 3.63014C35.7503 3.5569 35.8496 3.51572 35.9531 3.51562H53.9219C54.0254 3.51572 54.1247 3.5569 54.198 3.63014C54.2712 3.70338 54.3124 3.80268 54.3125 3.90625V12.2513C54.0557 12.1902 53.7945 12.1494 53.5312 12.1292V4.6875C53.5312 4.5839 53.4901 4.48454 53.4168 4.41129C53.3436 4.33803 53.2442 4.29687 53.1406 4.29687H36.7344C36.6308 4.29687 36.5314 4.33803 36.4582 4.41129C36.3849 4.48454 36.3438 4.5839 36.3438 4.6875V17.1875C36.3438 17.2911 36.3849 17.3905 36.4582 17.4637C36.5314 17.537 36.6308 17.5781 36.7344 17.5781H48.0823C48.1025 17.8413 48.1433 18.1026 48.2045 18.3594H35.9531ZM53.1406 21.4844C52.2908 21.4844 51.46 21.2324 50.7534 20.7602C50.0468 20.2881 49.4961 19.617 49.1708 18.8318C48.8456 18.0467 48.7605 17.1827 48.9263 16.3492C49.0921 15.5157 49.5013 14.7501 50.1023 14.1491C50.7032 13.5482 51.4688 13.139 52.3023 12.9732C53.1359 12.8074 53.9998 12.8925 54.785 13.2177C55.5701 13.5429 56.2412 14.0937 56.7133 14.8003C57.1855 15.5069 57.4375 16.3377 57.4375 17.1875C57.4362 18.3267 56.9831 19.4189 56.1775 20.2244C55.372 21.03 54.2798 21.4831 53.1406 21.4844V21.4844Z" fill="#B8B8D2"/>
</svg>
