<svg xmlns="http://www.w3.org/2000/svg" viewBox="0 0 46.51 53.7"><defs><style>.cls-1{fill:#1e1f39;}.cls-2{fill:#fff;}</style></defs><g id="Capa_2" data-name="Capa 2"><g id="Layer_1" data-name="Layer 1"><rect class="cls-1" x="0.72" y="1.13" width="44.32" height="51"/><path class="cls-2" d="M0,26.85V53.7H46.51V0H0V26.85Zm44.33,0V52L23,52H1.72V1.72H44.33V26.86Z"/><path class="cls-2" d="M13.65,9.27a3.09,3.09,0,0,0-2.31,2.1c-.07.23-.08,1.74-.09,15.19,0,16.39,0,15.41.29,16.1A3.6,3.6,0,0,0,12.85,44a3,3,0,0,0,2.89-.14A3.05,3.05,0,0,0,17,42.25l.11-.36V11.58L17,11.25a2.71,2.71,0,0,0-.66-1.09,3,3,0,0,0-1.21-.78,3.94,3.94,0,0,0-1.44-.11Z"/><path class="cls-2" d="M25.71,9.3a3,3,0,0,0-2.28,2.84,2.7,2.7,0,0,0,.89,2.07,2.87,2.87,0,0,0,.69.55c.59.28.68.29,2.8.33s2.29.06,3.15.42a6.18,6.18,0,0,1,3,3,4.32,4.32,0,0,1,.38,2.16,4.59,4.59,0,0,1-.11,1.42,6.67,6.67,0,0,1-.82,1.73A7.87,7.87,0,0,1,32,25.24a6.38,6.38,0,0,1-1.82.87,9,9,0,0,1-2.48.17,7.54,7.54,0,0,0-2.3.14,3,3,0,0,0-1.82,1.8,2.28,2.28,0,0,0-.13,1,2.32,2.32,0,0,0,.12.94,3,3,0,0,0,2,1.89,33.5,33.5,0,0,0,4.71,0,11,11,0,0,0,6.42-3.11,10.93,10.93,0,0,0,2.41-3.26,10.69,10.69,0,0,0,1.08-5,14.41,14.41,0,0,0-.07-1.55,11,11,0,0,0-3.42-6.68,11,11,0,0,0-6.91-3.19,34.07,34.07,0,0,0-4.1,0Z"/></g></g></svg>