<svg viewBox="0 0 1296 729" fill="none" xmlns="http://www.w3.org/2000/svg">
<path d="M1.36892e-05 31.8343C1.36892e-05 14.2528 12.6967 0.00017897 28.3589 0.00017897H1267.64C1283.3 0.00017897 1296 14.2528 1296 31.8342V697.166C1296 714.747 1283.3 729 1267.64 729H28.3589C12.6967 729 1.36892e-05 714.747 1.36892e-05 697.166V31.8343Z" fill="#C4C4C4"/>
<path d="M0 81.246L1296 73.9925V0H0V81.246Z" fill="#FAA31A"/>
<path d="M4.52591e-06 117.682L1296 95.8206V71.5298L4.52591e-06 78.8439V117.682Z" fill="#F98A30"/>
<path d="M4.52591e-06 146.77L1296 124.936V93.3914L4.52591e-06 115.233V146.77Z" fill="#F17341"/>
<path d="M4.52591e-06 255.937L1296 292.326V122.507L4.52591e-06 144.341V255.937Z" fill="#E45F4E"/>
<path d="M4.52591e-06 328.715L1296 386.939V289.904L4.52591e-06 253.508V328.715Z" fill="#D14F59"/>
<path d="M4.52591e-06 350.55L1296 408.773V384.516L4.52591e-06 326.293V350.55Z" fill="#BB4361"/>
<path d="M4.52591e-06 416.054L1296 452.443V406.344L4.52591e-06 348.121V416.054Z" fill="#A13C64"/>
<path d="M4.52591e-06 452.443L1296 503.386V450.013L4.52591e-06 413.625V452.443Z" fill="#853664"/>
<path d="M4.52591e-06 496.105L1296 525.227V500.937L4.52591e-06 449.993V496.105Z" fill="#69325F"/>
<path d="M4.52591e-06 539.775L1296 554.329V522.792L4.52591e-06 493.683V539.775Z" fill="#4D2D56"/>
<path d="M4.52591e-06 568.883L1296 590.718V551.907L4.52591e-06 537.373V568.883Z" fill="#342749"/>
<path d="M4.52591e-06 729H1296V588.296L4.52591e-06 566.461V729Z" fill="#1F1F39"/>
<path d="M617.344 326.361C608.433 322.483 601.208 325.66 601.208 333.449V390.931C601.208 398.728 608.433 401.901 617.344 398.027L683.587 369.213C692.501 365.335 692.501 359.051 683.587 355.174L617.344 326.361Z" fill="white"/>
</svg>
