<svg viewBox="0 0 257 91" fill="none" xmlns="http://www.w3.org/2000/svg">
  <path d="M0 45.5V91H257V0H0V45.5ZM75.1082 45.5214L75.0868 88.1268L38.9997 88.1482L2.91267 88.1696V2.91612H75.1297L75.1082 45.5214ZM103.451 31.3474C103.861 31.5189 104.308 31.9572 104.529 32.4032L104.727 32.8063V44.0848C104.727 56.5469 104.769 55.6069 104.179 56.2811C103.39 57.1816 101.781 57.1816 100.987 56.2811C100.403 55.6164 100.446 56.5212 100.423 44.3421C100.408 36.7345 100.43 33.1828 100.494 32.8749C100.765 31.5627 102.193 30.8251 103.451 31.3474ZM115.136 31.3534C117.595 31.8929 119.74 33.5885 120.883 35.894C121.549 37.2397 121.681 37.8495 121.681 39.582C121.681 41.1944 121.591 41.7193 121.122 42.8498C120.404 44.5823 118.848 46.2539 117.149 47.1184C115.805 47.8046 114.673 48.0302 112.609 48.0302C111.067 48.0302 110.758 47.9701 110.236 47.573C109.165 46.7556 109.127 45.1235 110.159 44.2409C110.65 43.8207 110.998 43.7418 112.369 43.7418C113.791 43.7418 114.39 43.6448 115.127 43.2949C115.77 42.9896 116.61 42.1851 116.953 41.5461C117.258 40.9775 117.425 40.3451 117.441 39.7C117.456 39.0549 117.32 38.4152 117.044 37.8323C116.711 37.1213 115.838 36.2542 115.073 35.8768L114.431 35.5595L112.705 35.5037C111.188 35.4548 110.936 35.4265 110.627 35.2696C110.194 35.0349 109.831 34.6877 109.578 34.2644C109.383 33.9059 109.389 32.7377 109.588 32.3689C109.911 31.8055 110.441 31.3902 111.064 31.211C111.498 31.0952 114.422 31.1982 115.133 31.3534H115.136ZM137.752 31.3946C138.18 31.6133 138.724 32.2402 138.85 32.6605C138.926 32.9092 138.951 35.8425 138.951 44.1363V55.2776L138.747 55.7064C138.348 56.5435 137.709 56.9483 136.793 56.9449C136.141 56.9449 135.672 56.7493 135.243 56.3068C134.618 55.6644 134.658 56.5298 134.686 43.9476L134.711 32.6176L134.968 32.1974C135.237 31.7599 135.925 31.2668 136.37 31.1904C136.756 31.1253 137.414 31.2222 137.749 31.3946H137.752ZM149.36 31.3483C150.79 31.6614 152.11 32.3547 153.181 33.3552C155.065 35.1049 155.93 37.069 155.93 39.582C155.93 41.1516 155.661 42.2614 154.968 43.5531C154.128 45.1429 152.794 46.4162 151.167 47.1811L150.414 47.5413L153.459 50.5946C155.726 52.8675 156.549 53.7466 156.679 54.0339C156.88 54.5006 156.907 55.0242 156.755 55.5091C156.623 55.9466 156.046 56.5933 155.613 56.7905C155.134 57.0092 154.226 57.0024 153.746 56.7768C153.266 56.5512 143.986 47.2694 143.809 46.8277C143.335 45.6784 143.745 44.4897 144.798 43.963C145.217 43.7538 145.321 43.74 146.529 43.7375C148.507 43.7323 149.318 43.4973 150.264 42.6508C151.266 41.7545 151.683 40.7382 151.62 39.3487C151.587 38.6368 151.546 38.4644 151.266 37.8735C150.853 36.9904 150.144 36.2806 149.261 35.8682L148.593 35.5492L146.918 35.508C145.488 35.4677 145.192 35.436 144.862 35.285C144.592 35.1521 144.352 34.9664 144.154 34.7388C143.957 34.5112 143.808 34.2463 143.714 33.9599C143.549 33.4024 143.548 33.2489 143.714 32.6991C143.817 32.3505 144.007 32.0343 144.268 31.781C144.528 31.5276 144.849 31.3458 145.2 31.2531C145.753 31.0944 148.447 31.1587 149.363 31.3525L149.36 31.3483ZM208.795 31.4538C209.052 31.6018 209.277 31.7991 209.457 32.0344C209.817 32.5576 213.753 42.3266 213.803 42.8155C213.863 43.4158 213.684 43.9399 213.254 44.4193C212.798 44.9288 212.333 45.1295 211.627 45.1235C210.779 45.1175 210.151 44.7598 209.803 44.0848C209.717 43.9202 208.734 41.5289 207.617 38.7758L205.587 33.7669L205.619 33.1923C205.662 32.4289 205.984 31.8869 206.624 31.5018C206.835 31.3684 207.062 31.2634 207.3 31.1896C207.737 31.1141 208.387 31.229 208.8 31.4538H208.795ZM225.637 31.229C225.912 31.2888 226.171 31.404 226.399 31.5675C226.627 31.7311 226.82 31.9396 226.964 32.1802C227.083 32.3826 228.087 34.7961 229.197 37.5407C231.038 42.095 231.214 42.5762 231.213 43.0299C231.208 44.2529 230.298 45.1226 229.021 45.1226C228.344 45.1226 227.822 44.9005 227.46 44.4622C227.314 44.2847 226.797 43.1328 226.194 41.6404C225.632 40.251 225.15 39.1454 225.119 39.1789C225.088 39.2123 223.552 42.987 221.703 47.5756C218.097 56.5212 218.13 56.45 217.388 56.7879C216.895 57.0118 215.991 57.0024 215.494 56.7682C214.751 56.4191 214.312 55.7064 214.312 54.8487C214.312 54.3736 214.5 53.871 216.758 48.2875C218.104 44.9597 220.099 40.0237 221.191 37.3091C222.284 34.5946 223.257 32.2488 223.352 32.0944C223.625 31.6829 224.038 31.3855 224.515 31.2582C225.029 31.1193 225.115 31.1175 225.637 31.229ZM243.43 31.3448C244.184 31.6596 244.673 32.4289 244.673 33.3038C244.673 33.8227 244.568 34.11 242.775 38.5185C241.732 41.0847 239.758 45.9631 238.389 49.3596C237.02 52.756 235.831 55.6738 235.745 55.8436C235.357 56.6155 234.658 56.9904 233.707 56.9363C232.953 56.8934 232.403 56.577 232.03 55.9723C231.797 55.5932 231.773 55.4834 231.773 54.8573V54.1626L236.159 43.3172C238.57 37.3563 240.638 32.3131 240.752 32.1202C241.248 31.2736 242.43 30.9306 243.424 31.3483L243.43 31.3448ZM178.324 32.4667C178.607 32.637 178.843 32.8752 179.01 33.1597C179.178 33.4442 179.273 33.7661 179.285 34.0963C179.348 35.074 178.975 35.731 178.092 36.1924C176.61 36.9686 175.357 38.0296 174.532 39.208C172.842 41.6207 172.519 44.6629 173.661 47.4161C174.215 48.754 175.483 50.3322 176.619 51.1041C176.894 51.2902 177.433 51.605 177.827 51.8091C178.675 52.2491 179.076 52.6771 179.272 53.3529C179.615 54.5202 178.838 55.7604 177.613 56.0117C177.022 56.1335 176.628 56.0443 175.711 55.5829C172.456 53.9464 169.915 50.7533 169.063 47.2368C168.492 44.8782 168.589 42.24 169.328 40.0065C170.083 37.7251 171.74 35.3648 173.595 33.9307C174.466 33.2575 174.948 32.9564 175.874 32.5104C176.559 32.1793 176.64 32.1605 177.253 32.1845C177.801 32.2059 177.97 32.2514 178.324 32.471V32.4667ZM187.456 32.6159C190.842 34.3596 193.423 37.7122 194.206 41.3831C194.469 42.6148 194.531 44.6766 194.343 45.946C194.022 48.1159 193.249 49.9771 191.912 51.804C191.29 52.6522 189.966 53.955 189.101 54.5691C188.193 55.2141 186.714 55.9731 186.222 56.0478C184.929 56.2425 183.659 55.0589 183.776 53.7681C183.862 52.8563 184.312 52.2894 185.383 51.7559C187.182 50.8605 188.458 49.5568 189.334 47.73C189.956 46.4349 190.135 45.6029 190.127 44.0419C190.121 42.9355 190.089 42.6388 189.9 41.9235C189.472 40.311 188.358 38.5528 187.122 37.5416C186.505 37.0364 185.599 36.4557 185.109 36.2551C183.447 35.562 183.363 33.2008 184.971 32.3878C185.362 32.1905 185.511 32.1622 186.042 32.1845C186.573 32.2068 186.762 32.2634 187.456 32.6202V32.6159Z" fill="white" />
  <path d="M19.7548 17.4109C17.9652 17.7334 16.4412 19.1263 15.8561 20.9686C15.7336 21.3545 15.7182 23.919 15.6985 46.699C15.6754 74.4879 15.6454 72.8171 16.1979 73.9819C16.5646 74.7538 17.6346 75.843 18.4013 76.2238C19.9604 76.9958 21.8742 76.91 23.2928 75.988C24.2791 75.3552 25.0173 74.4013 25.3831 73.2871L25.5716 72.6868V21.3116L25.3711 20.7542C25.142 20.0638 24.7561 19.4362 24.2437 18.9204C23.6441 18.2806 22.9133 17.8054 22.2023 17.5833C21.5598 17.3843 20.3682 17.302 19.7522 17.4118L19.7548 17.4109Z" fill="white" />
  <path d="M40.1778 17.459C37.9642 17.935 36.3228 19.9754 36.3228 22.262C36.3185 23.6686 36.7742 24.7424 37.816 25.7785C38.2529 26.2142 38.6872 26.5564 38.9896 26.7022C39.9825 27.1825 40.1461 27.2022 43.7355 27.2674C47.4106 27.3343 47.6025 27.3592 49.064 27.9673C51.1063 28.8164 53.2856 30.9992 54.1372 33.049C54.6974 34.3982 54.7788 34.8587 54.7831 36.7028C54.7831 38.1866 54.7642 38.4576 54.5895 39.1043C54.3436 40.0134 53.7731 41.2287 53.2128 42.0375C52.7211 42.746 51.6083 43.8858 50.8459 44.4605C50.0834 45.0351 48.747 45.6715 47.7619 45.9348C46.9275 46.157 46.8195 46.1647 43.5642 46.2187C40.386 46.2719 40.1966 46.2839 39.6749 46.47C38.9709 46.7209 38.3301 47.1228 37.7974 47.6475C37.2647 48.1723 36.8529 48.8072 36.5909 49.5079C36.3965 50.0431 36.3665 50.2627 36.3665 51.1547C36.3665 52.0124 36.399 52.28 36.5644 52.7586C37.0861 54.2766 38.4533 55.5623 39.9645 55.9568C40.6935 56.1473 46.4923 56.1447 47.9486 55.9568C50.1931 55.6627 51.9133 55.1515 53.8425 54.2072C55.8042 53.2466 57.1698 52.2783 58.8026 50.6907C60.6941 48.8501 61.8686 47.26 62.8829 45.1561C64.1824 42.4647 64.7136 40.0271 64.7136 36.7508C64.7136 35.7559 64.6639 34.5851 64.6031 34.1349C64.0034 29.6835 62.1521 26.0727 58.8026 22.8135C55.453 19.5543 51.6828 17.8175 47.1168 17.4109C45.6176 17.278 40.8631 17.3097 40.1778 17.4573V17.459Z" fill="white" />
</svg>
