<svg xmlns="http://www.w3.org/2000/svg" viewBox="0 0 151.83 53.7"><defs><style>.cls-1{fill:#1e1f39;}</style></defs><g id="Capa_2" data-name="Capa 2"><g id="Layer_1" data-name="Layer 1"><path class="cls-1" d="M0,26.85V53.7H151.83V0H0V26.85Zm44.33,0V52L23,52H1.72V1.72H44.33V26.86ZM61.09,18.5a1.42,1.42,0,0,1,.64.62l.11.24V26c0,7.36,0,6.8-.32,7.2a1.31,1.31,0,0,1-1.88,0c-.35-.39-.32.14-.34-7,0-4.49,0-6.59,0-6.77a1.28,1.28,0,0,1,1.75-.9Zm6.91,0a5,5,0,0,1,3.39,2.68,3.83,3.83,0,0,1,.47,2.18,3.92,3.92,0,0,1-.33,1.92,5,5,0,0,1-5,3.06c-.91,0-1.09,0-1.4-.27a1.27,1.27,0,0,1,0-2c.29-.25.49-.3,1.3-.3A3.42,3.42,0,0,0,68,25.55a2.89,2.89,0,0,0,1.08-1,2.44,2.44,0,0,0,.05-2.2A2.8,2.8,0,0,0,68,21.17L67.58,21l-1,0a3.08,3.08,0,0,1-1.23-.14,1.75,1.75,0,0,1-.62-.59,1.86,1.86,0,0,1,0-1.12,1.45,1.45,0,0,1,.87-.68A12.53,12.53,0,0,1,68,18.5Zm13.38,0a1.67,1.67,0,0,1,.65.75c0,.15.06,1.89.06,6.8v6.61L82,32.9a1.3,1.3,0,0,1-2.08.36c-.37-.39-.35.13-.33-7.33V19.22l.16-.25a1.53,1.53,0,0,1,.83-.6,1.63,1.63,0,0,1,.82.12Zm6.84,0a4.81,4.81,0,0,1,2.25,1.18,4.72,4.72,0,0,1,1.63,3.68,4.51,4.51,0,0,1-.57,2.34,4.91,4.91,0,0,1-2.25,2.14l-.44.21,1.8,1.8a17.82,17.82,0,0,1,1.9,2,1.24,1.24,0,0,1,0,.87,1.5,1.5,0,0,1-.67.76,1.54,1.54,0,0,1-1.1,0c-.29-.13-5.77-5.61-5.88-5.87a1.28,1.28,0,0,1,.59-1.69c.24-.12.31-.13,1-.13a2.78,2.78,0,0,0,2.21-.64,2.27,2.27,0,0,0,.8-2,1.78,1.78,0,0,0-.21-.87,2.4,2.4,0,0,0-1.19-1.18L87.76,21l-1,0a3,3,0,0,1-1.21-.13,1.34,1.34,0,0,1-.68-.78,1,1,0,0,1,0-.75,1.22,1.22,0,0,1,.88-.85,9.87,9.87,0,0,1,2.46.06Zm35.11.06a1.43,1.43,0,0,1,.39.34c.21.31,2.54,6.07,2.57,6.36a1.18,1.18,0,0,1-.33.95,1.28,1.28,0,0,1-2-.2c0-.09-.63-1.5-1.29-3.13l-1.2-3,0-.33a1.14,1.14,0,0,1,.59-1,2.2,2.2,0,0,1,.4-.19,1.64,1.64,0,0,1,.89.16Zm10-.13a1.21,1.21,0,0,1,.78.56c.07.12.67,1.54,1.32,3.16,1.09,2.69,1.19,3,1.19,3.24a1.22,1.22,0,0,1-1.29,1.24,1.18,1.18,0,0,1-.93-.39,15.2,15.2,0,0,1-.74-1.67,14.79,14.79,0,0,0-.64-1.45s-.92,2.25-2,4.95c-2.13,5.28-2.11,5.24-2.55,5.44a1.57,1.57,0,0,1-1.11,0,1.22,1.22,0,0,1-.7-1.14c0-.28.11-.57,1.44-3.87.8-2,2-4.87,2.62-6.47s1.22-3,1.28-3.08a1.2,1.2,0,0,1,.68-.5,1,1,0,0,1,.67,0Zm10.5.07a1.22,1.22,0,0,1,.74,1.15c0,.31-.06.48-1.12,3.08-.62,1.51-1.79,4.39-2.59,6.4s-1.52,3.72-1.57,3.82a1.17,1.17,0,0,1-1.2.65,1.18,1.18,0,0,1-1-.57.93.93,0,0,1-.15-.66V32l2.59-6.4c1.43-3.52,2.65-6.49,2.72-6.61a1.26,1.26,0,0,1,1.57-.45Zm-38.45.66a1.15,1.15,0,0,1,.56,1,1.17,1.17,0,0,1-.7,1.23,5.89,5.89,0,0,0-2.1,1.78,5,5,0,0,0-.52,4.85,5.51,5.51,0,0,0,1.75,2.17c.16.11.48.3.71.42a1.46,1.46,0,0,1,.86.91,1.27,1.27,0,0,1-1,1.57,1.55,1.55,0,0,1-1.13-.25,7.68,7.68,0,0,1-3.92-4.93A7.93,7.93,0,0,1,100,23.6,8.08,8.08,0,0,1,102.53,20a6.28,6.28,0,0,1,1.35-.84,1.21,1.21,0,0,1,.81-.19,1,1,0,0,1,.64.17Zm5.39.09a7.76,7.76,0,0,1,4,5.17,9.32,9.32,0,0,1,.08,2.69,7.54,7.54,0,0,1-1.44,3.46,8.84,8.84,0,0,1-1.66,1.63,6.19,6.19,0,0,1-1.7.87,1.29,1.29,0,0,1-1.44-1.34,1.38,1.38,0,0,1,1-1.19,4.94,4.94,0,0,0,2.33-2.38A4.23,4.23,0,0,0,112.3,26a3.61,3.61,0,0,0-.14-1.25,5.4,5.4,0,0,0-1.64-2.59,5.81,5.81,0,0,0-1.19-.76,1.26,1.26,0,0,1-.08-2.28,1,1,0,0,1,.64-.12,1.57,1.57,0,0,1,.83.26Z"/><path class="cls-1" d="M11.65,10.27a3.09,3.09,0,0,0-2.31,2.1c-.07.23-.08,1.74-.09,15.19,0,16.39,0,15.41.29,16.1A3.6,3.6,0,0,0,10.85,45a3,3,0,0,0,2.89-.14A3.05,3.05,0,0,0,15,43.25l.11-.36V12.58L15,12.25a2.71,2.71,0,0,0-.66-1.09,3,3,0,0,0-1.21-.78,3.94,3.94,0,0,0-1.44-.11Z"/><path class="cls-1" d="M23.71,10.3a3,3,0,0,0-2.28,2.84,2.7,2.7,0,0,0,.89,2.07,2.87,2.87,0,0,0,.69.55c.59.28.68.29,2.8.33s2.29.06,3.15.42a6.18,6.18,0,0,1,3,3,4.32,4.32,0,0,1,.38,2.16,4.59,4.59,0,0,1-.11,1.42,6.67,6.67,0,0,1-.82,1.73A7.87,7.87,0,0,1,30,26.24a6.38,6.38,0,0,1-1.82.87,9,9,0,0,1-2.48.17,7.54,7.54,0,0,0-2.3.14,3,3,0,0,0-1.82,1.8,2.28,2.28,0,0,0-.13,1,2.32,2.32,0,0,0,.12.94,3,3,0,0,0,2,1.89,33.5,33.5,0,0,0,4.71,0,11,11,0,0,0,6.42-3.11,10.93,10.93,0,0,0,2.41-3.26,10.69,10.69,0,0,0,1.08-5,14.41,14.41,0,0,0-.07-1.55,11,11,0,0,0-3.42-6.68,11,11,0,0,0-6.91-3.19,34.07,34.07,0,0,0-4.1,0Z"/></g></g></svg>