<svg viewBox="0 0 1400 617" fill="none" xmlns="http://www.w3.org/2000/svg">
<g clip-path="url(#clip0_915_267)">
<path d="M0 68.7635L1400 62.6244V-0.000244141H0V68.7635Z" fill="#FAA31A"/>
<path d="M0 99.6021L1400 81.0991V60.5403L0 66.7307V99.6021Z" fill="#F98A30"/>
<path d="M0 124.221L1400 105.741V79.0432L0 97.5291V124.221Z" fill="#F17341"/>
<path d="M0 216.616L1400 247.414V103.685L0 122.165V216.616Z" fill="#E45F4E"/>
<path d="M0 278.213L1400 327.491V245.364L0 214.56V278.213Z" fill="#D14F59"/>
<path d="M0 296.693L1400 345.971V325.441L0 276.163V296.693Z" fill="#BB4361"/>
<path d="M0 352.133L1400 382.931V343.915L0 294.637V352.133Z" fill="#A13C64"/>
<path d="M0 382.931L1400 426.048V380.876L0 350.077V382.931Z" fill="#853664"/>
<path d="M0 419.886L1400 444.534V423.975L0 380.859V419.886Z" fill="#69325F"/>
<path d="M0 456.846L1400 469.164V442.472L0 417.836V456.846Z" fill="#4D2D56"/>
<path d="M0 481.483L1400 499.963V467.115L0 454.813V481.483Z" fill="#342749"/>
<path d="M0 617H1400V497.913L0 479.433V617Z" fill="#1F1F39"/>
</g>
<defs>
<clipPath id="clip0_915_267">
<rect width="1400" height="617" fill="white"/>
</clipPath>
</defs>
</svg>
