<svg width="27" height="27" viewBox="0 0 27 27" fill="none" xmlns="http://www.w3.org/2000/svg">
<g clip-path="url(#clip0_286_935)">
<path d="M26.4437 7.0186C26.1325 5.86195 25.2205 4.95023 24.0641 4.63877C21.9512 4.06055 13.4997 4.06055 13.4997 4.06055C13.4997 4.06055 5.04847 4.06055 2.9356 4.61673C1.80141 4.92798 0.86723 5.86216 0.555975 7.0186C0 9.13127 0 13.5127 0 13.5127C0 13.5127 0 17.9162 0.555975 20.0069C0.867436 21.1633 1.77916 22.0752 2.93581 22.3867C5.07072 22.9649 13.4999 22.9649 13.4999 22.9649C13.4999 22.9649 21.9512 22.9649 24.0641 22.4087C25.2207 22.0975 26.1325 21.1856 26.4439 20.0291C26.9999 17.9162 26.9999 13.535 26.9999 13.535C26.9999 13.535 27.0221 9.13127 26.4437 7.0186Z" fill="#FF0000"/>
<path d="M10.8091 17.5609L17.837 13.5131L10.8091 9.46533V17.5609Z" fill="white"/>
</g>
<defs>
<clipPath id="clip0_286_935">
<rect width="27" height="27" fill="white"/>
</clipPath>
</defs>
</svg>
