<svg xmlns="http://www.w3.org/2000/svg" xmlns:xlink="http://www.w3.org/1999/xlink" preserveAspectRatio="xMidYMid meet" width="475" height="450" viewBox="0 0 475 450" style="width:100%;height:100%"><defs><animateTransform repeatCount="indefinite" dur="2s" begin="0s" xlink:href="#_R_G_L_4_G" fill="freeze" attributeName="transform" from="0.56 0.56" to="0.56 0.56" type="scale" additive="sum" keyTimes="0;0.5;1" values="0.56 0.56;-0.00034 0.56;0.56 0.56" keySplines="0.167 0.167 0.833 0.833;0.167 0.167 0.833 0.833" calcMode="spline"/><animateTransform repeatCount="indefinite" dur="2s" begin="0s" xlink:href="#_R_G_L_4_G" fill="freeze" attributeName="transform" from="-150 -150" to="-150 -150" type="translate" additive="sum" keyTimes="0;1" values="-150 -150;-150 -150" keySplines="0 0 1 1" calcMode="spline"/><animateTransform repeatCount="indefinite" dur="2s" begin="0s" xlink:href="#_R_G_L_3_G" fill="freeze" attributeName="transform" from="0.56 0.56" to="0.56 0.56" type="scale" additive="sum" keyTimes="0;0.5;1" values="0.56 0.56;-0.00034 0.56;0.56 0.56" keySplines="0.167 0.167 0.833 0.833;0.167 0.167 0.833 0.833" calcMode="spline"/><animateTransform repeatCount="indefinite" dur="2s" begin="0s" xlink:href="#_R_G_L_3_G" fill="freeze" attributeName="transform" from="-150 -150" to="-150 -150" type="translate" additive="sum" keyTimes="0;1" values="-150 -150;-150 -150" keySplines="0 0 1 1" calcMode="spline"/><animateTransform repeatCount="indefinite" dur="2s" begin="0s" xlink:href="#_R_G_L_2_G" fill="freeze" attributeName="transform" from="0.56 0.56" to="0.56 0.56" type="scale" additive="sum" keyTimes="0;0.5;1" values="0.56 0.56;-0.00034 0.56;0.56 0.56" keySplines="0.167 0.167 0.833 0.833;0.167 0.167 0.833 0.833" calcMode="spline"/><animateTransform repeatCount="indefinite" dur="2s" begin="0s" xlink:href="#_R_G_L_2_G" fill="freeze" attributeName="transform" from="-150 -150" to="-150 -150" type="translate" additive="sum" keyTimes="0;1" values="-150 -150;-150 -150" keySplines="0 0 1 1" calcMode="spline"/><animateTransform repeatCount="indefinite" dur="2s" begin="0s" xlink:href="#_R_G_L_1_G" fill="freeze" attributeName="transform" from="0.56 0.56" to="0.56 0.56" type="scale" additive="sum" keyTimes="0;0.5;1" values="0.56 0.56;-0.00034 0.56;0.56 0.56" keySplines="0.167 0.167 0.833 0.833;0.167 0.167 0.833 0.833" calcMode="spline"/><animateTransform repeatCount="indefinite" dur="2s" begin="0s" xlink:href="#_R_G_L_1_G" fill="freeze" attributeName="transform" from="-150 -150" to="-150 -150" type="translate" additive="sum" keyTimes="0;1" values="-150 -150;-150 -150" keySplines="0 0 1 1" calcMode="spline"/><animateTransform repeatCount="indefinite" dur="2s" begin="0s" xlink:href="#_R_G_L_0_G" fill="freeze" attributeName="transform" from="0.56 0.56" to="0.56 0.56" type="scale" additive="sum" keyTimes="0;0.5;1" values="0.56 0.56;-0.00034 0.56;0.56 0.56" keySplines="0.167 0.167 0.833 0.833;0.167 0.167 0.833 0.833" calcMode="spline"/><animateTransform repeatCount="indefinite" dur="2s" begin="0s" xlink:href="#_R_G_L_0_G" fill="freeze" attributeName="transform" from="-150 -150" to="-150 -150" type="translate" additive="sum" keyTimes="0;1" values="-150 -150;-150 -150" keySplines="0 0 1 1" calcMode="spline"/><animate attributeType="XML" attributeName="opacity" dur="2s" from="0" to="1" xlink:href="#time_group"/></defs><g id="_R_G"><g id="_R_G_L_4_G" transform=" translate(305, 119)"><path id="_R_G_L_4_G_D_0_P_0" fill="#d38d00" fill-opacity="1" fill-rule="nonzero" d=" M289.78 135.95 C291.9,151.4 291.29,167.37 287.66,183.14 C287.66,183.14 287.66,183.15 287.66,183.15 C286.05,190.13 283.85,197.07 281.03,203.91 C280.22,205.89 279.36,207.84 278.45,209.76 C248.78,273.06 174.28,302.5 108.95,275.59 C105.95,274.35 103.03,273.02 100.17,271.59 C38.9,241.02 10.78,167.82 37.27,103.51 C44.99,84.76 56.54,68.75 70.64,56 C104.9,25 154.23,13.28 200.31,28.48 C203.34,29.48 206.35,30.59 209.35,31.83 C254.37,50.37 283.63,90.96 289.78,135.95z "/></g><g id="_R_G_L_3_G" transform=" translate(305, 119)"><path id="_R_G_L_3_G_D_0_P_0" fill="#ffc606" fill-opacity="1" fill-rule="nonzero" d=" M263.2 196.56 C261.55,200.58 259.72,204.48 257.72,208.24 C227.8,264.69 161.13,291.7 100.17,271.59 C97.14,270.6 94.12,269.48 91.12,268.25 C23.81,240.52 -8.28,163.47 19.44,96.16 C25.84,80.62 34.87,66.96 45.8,55.48 C45.82,55.46 45.83,55.45 45.84,55.44 C52.69,48.25 60.29,41.91 68.45,36.51 C68.65,36.38 68.75,36.31 68.75,36.31 C103.95,13.14 149.62,7.22 191.52,24.48 C194.52,25.72 197.45,27.05 200.31,28.48 C261.57,59.05 289.69,132.25 263.2,196.56z "/></g><g id="_R_G_L_2_G" transform=" translate(305, 119)"><path id="_R_G_L_2_G_D_0_P_0" fill="#f5b400" fill-opacity="1" fill-rule="nonzero" d=" M239.08 186.63 C216.84,240.61 155.05,266.35 101.06,244.12 C47.07,221.88 21.33,160.09 43.57,106.1 C65.81,52.11 127.6,26.37 181.59,48.61 C235.57,70.85 261.31,132.64 239.08,186.63z "/></g><g id="_R_G_L_1_G" transform=" translate(305, 119)"><path id="_R_G_L_1_G_D_0_P_0" fill="#d38d00" fill-opacity="1" fill-rule="nonzero" d=" M48.6 114.56 C70.84,60.57 132.63,34.83 186.62,57.07 C206.83,65.4 223.08,79.27 234.34,96.2 C223.18,75.46 205.07,58.28 181.58,48.61 C127.6,26.37 65.8,52.11 43.57,106.1 C30.98,136.67 33.78,169.74 48.38,196.72 C42.71,182.78 40,167.64 40.66,152.31 C40.96,139.69 43.51,126.92 48.6,114.56z "/></g><g id="_R_G_L_0_G" transform=" translate(305, 119)"><path id="_R_G_L_0_G_D_0_P_0" fill="#fce267" fill-opacity="1" fill-rule="nonzero" d=" M170.02 92.04 C170.02,92.04 174.61,80.9 174.61,80.9 C174.61,80.9 163.26,76.22 163.26,76.22 C163.26,76.22 158.67,87.37 158.67,87.37 C139.93,80.71 131.5,84.82 123.56,104.08 C116.67,120.83 115.58,127.54 120.1,134.47 C125.05,142.4 138.26,152.26 141.9,160.29 C143.52,163.54 143.15,165.32 141.6,169.21 C141.37,169.77 141.13,170.37 140.86,171.02 C136.48,181.65 134.39,184.16 126.47,180.9 C118.36,177.56 119.75,172.65 123.17,164.37 C124.13,162.03 125.05,160.3 125.82,158.94 C125.82,158.94 105.84,150.7 105.84,150.7 C103.96,153.72 101.89,157.71 99.89,162.58 C92.03,181.67 97.73,190.33 113.28,197.58 C113.28,197.58 107.5,211.61 107.5,211.61 C107.5,211.61 118.84,216.28 118.84,216.28 C118.84,216.28 124.7,202.07 124.7,202.07 C143.49,208.26 152.24,202.81 161.91,181.5 C162.74,179.68 163.57,177.74 164.43,175.68 C172.06,157.13 167.4,153.1 160.93,145.8 C156.28,140.73 150.61,136.08 145.21,130.27 C140.2,125.05 140.03,123.93 143.89,114.56 C147.6,105.56 150.29,104.14 156.77,106.81 C164.33,109.93 163.86,114.15 160.74,121.71 C159.63,124.42 158.89,126.22 158.04,127.76 C158.04,127.76 177.85,135.92 177.85,135.92 C179.32,133.37 181.09,130.1 183.09,125.24 C190.14,108.13 186.65,99.74 170.02,92.04z "/></g></g><g id="time_group"/></svg>