<svg width="40" height="40" viewBox="0 0 40 40" fill="none" xmlns="http://www.w3.org/2000/svg">
<g clip-path="url(#clip0_467_103)">
<path d="M36.9184 25.1276C36.3682 25.1276 35.9222 25.5735 35.9222 26.1238V34.969C35.9203 36.619 34.5836 37.9561 32.9336 37.9576H4.98104C3.33107 37.9561 1.99436 36.619 1.99241 34.969V9.00887C1.99436 7.35929 3.33107 6.02219 4.98104 6.02025H13.8263C14.3765 6.02025 14.8225 5.57429 14.8225 5.02404C14.8225 4.47418 14.3765 4.02783 13.8263 4.02783H4.98104C2.23135 4.03095 0.00311315 6.25918 0 9.00887V34.9694C0.00311315 37.7191 2.23135 39.9473 4.98104 39.9504H32.9336C35.6833 39.9473 37.9115 37.7191 37.9146 34.9694V26.1238C37.9146 25.5735 37.4687 25.1276 36.9184 25.1276Z" fill="white"/>
<path d="M37.5205 1.46443C35.7697 -0.286322 32.9313 -0.286322 31.1805 1.46443L13.4075 19.2374C13.2857 19.3592 13.1978 19.5102 13.1519 19.676L10.8147 28.1138C10.7186 28.4597 10.8162 28.8302 11.07 29.0843C11.3241 29.338 11.6945 29.4357 12.0405 29.34L20.4783 27.0024C20.6441 26.9564 20.7951 26.8685 20.9169 26.7467L38.6894 8.97335C40.4375 7.22142 40.4375 4.38535 38.6894 2.63342L37.5205 1.46443ZM15.5782 19.8849L30.124 5.33875L34.8151 10.0299L20.2689 24.5761L15.5782 19.8849ZM14.6411 21.7653L18.389 25.5135L13.2048 26.9498L14.6411 21.7653ZM37.2807 7.56465L36.2242 8.62117L31.5327 3.92966L32.5896 2.87313C33.5621 1.90066 35.1389 1.90066 36.1114 2.87313L37.2807 4.04212C38.2517 5.01576 38.2517 6.5914 37.2807 7.56465Z" fill="white"/>
</g>
<defs>
<clipPath id="clip0_467_103">
<rect width="40" height="40" fill="white"/>
</clipPath>
</defs>
</svg>
