<svg width="40" height="40" viewBox="0 0 40 40" fill="none" xmlns="http://www.w3.org/2000/svg">
<path d="M35.8596 4.33897C35.7779 4.33565 35.6961 4.33509 35.6142 4.3374H32.5299V1.68677C32.53 0.626521 31.5179 0 30.4576 0H27.6143C26.554 0 25.783 0.626521 25.783 1.68677V4.33731H14.2167V1.68677C14.2167 0.626521 13.4456 0 12.3854 0H9.54195C8.48179 0 7.46969 0.626521 7.46969 1.68677V4.33731H4.38542C2.41657 4.28242 0.776013 5.83406 0.721127 7.80282C0.718821 7.88455 0.719375 7.96646 0.722696 8.04819V35.9035C0.722696 38.024 2.26483 39.9999 4.38533 39.9999H35.6143C37.7348 39.9999 39.277 38.024 39.277 35.9035V8.04819C39.3576 6.08026 37.8275 4.41959 35.8596 4.33897ZM27.6143 1.92771H30.6023V7.22888H27.6143V1.92771ZM9.54204 1.92771H12.2891V7.22888H9.54204V1.92771ZM37.3492 35.9035C37.3492 36.9638 36.6746 38.0722 35.6143 38.0722H4.38542C3.32517 38.0722 2.6505 36.9638 2.6505 35.9035V15.4217H37.3492V35.9035ZM37.3492 8.04819V13.494H2.65041V8.04819C2.56877 7.14697 3.23321 6.35016 4.13443 6.26853C4.21782 6.26096 4.30176 6.25986 4.38533 6.26511H7.46969V7.32537C7.46969 8.38562 8.4817 9.15668 9.54195 9.15668H12.3854C13.3698 9.18371 14.1897 8.40748 14.2167 7.42305C14.2176 7.39049 14.2176 7.35793 14.2167 7.32537V6.26502H25.783V7.32527C25.7559 8.3097 26.5322 9.12956 27.5166 9.15659C27.5492 9.15751 27.5817 9.15751 27.6143 9.15659H30.4577C31.518 9.15659 32.53 8.38552 32.53 7.32527V6.26502H35.6143C36.5175 6.20811 37.2957 6.89413 37.3527 7.79729C37.3579 7.88086 37.3568 7.9648 37.3492 8.04819Z" fill="#FFA400"/>
<path d="M14.6507 28.5782L13.7832 33.3975C13.7489 33.6042 13.7828 33.8166 13.88 34.0023C14.1267 34.4739 14.7091 34.6563 15.1808 34.4095L19.5181 32.1445L23.8554 34.4095L24.2891 34.5059C24.4982 34.5096 24.7024 34.4415 24.8674 34.3131C25.1555 34.1027 25.3037 33.7505 25.253 33.3974L24.3855 28.5781L27.9036 25.2047C28.1554 24.9327 28.2467 24.5489 28.1446 24.1927C28.0148 23.8634 27.7224 23.6258 27.3735 23.5662L22.5542 22.8432L20.3856 18.4577C20.291 18.2625 20.1335 18.1049 19.9383 18.0104C19.4592 17.7784 18.8827 17.9787 18.6506 18.4577L16.482 22.8432L11.6627 23.5662C11.3138 23.6257 11.0214 23.8634 10.8916 24.1927C10.7895 24.5489 10.8809 24.9327 11.1326 25.2047L14.6507 28.5782ZM17.3013 24.6746C17.6039 24.6294 17.8604 24.4279 17.976 24.1445L19.5181 21.0602L21.0602 24.1445C21.1759 24.4279 21.4322 24.6294 21.7349 24.6746L25.1566 25.1565L22.6988 27.518C22.4698 27.7446 22.3624 28.0667 22.4096 28.3854L22.9878 31.8071L19.9517 30.1686L19.518 30.0722L19.0843 30.1686L16.0482 31.8071L16.6264 28.3854C16.6737 28.0667 16.5662 27.7446 16.3372 27.518L13.8794 25.1565L17.3013 24.6746Z" fill="#FFA400"/>
</svg>
