<svg width="40" height="40" viewBox="0 0 40 40" fill="none" xmlns="http://www.w3.org/2000/svg">
<path d="M19.9998 31.2502C19.0382 31.2483 18.0789 31.1587 17.1336 30.9827C16.8403 30.9358 16.5733 30.786 16.3805 30.5602C16.1876 30.3344 16.0815 30.0472 16.0811 29.7502C16.0842 29.5671 16.1269 29.3868 16.2062 29.2217C16.2856 29.0566 16.3997 28.9107 16.5408 28.7938C16.6818 28.677 16.8465 28.592 17.0235 28.5448C17.2004 28.4976 17.3855 28.4892 17.5661 28.5202C18.3686 28.6713 19.1832 28.7483 19.9998 28.7502C27.4048 28.7502 33.8361 22.2665 35.8586 20.0002C34.5109 18.4917 33.0299 17.1078 31.4336 15.8652C31.3037 15.7647 31.1949 15.6396 31.1135 15.497C31.032 15.3544 30.9794 15.1972 30.9587 15.0343C30.9168 14.7053 31.0074 14.3731 31.2104 14.1109C31.4135 13.8486 31.7124 13.6778 32.0414 13.636C32.2043 13.6153 32.3697 13.6268 32.5281 13.67C32.6866 13.7132 32.835 13.7872 32.9648 13.8877C34.9999 15.4557 36.8516 17.2483 38.4848 19.2315C38.657 19.4515 38.7506 19.7228 38.7506 20.0021C38.7506 20.2815 38.657 20.5528 38.4848 20.7727C38.1486 21.199 30.1548 31.2502 19.9998 31.2502Z" fill="white"/>
<path d="M33.3833 6.61598C33.1489 6.38164 32.831 6.25 32.4996 6.25C32.1681 6.25 31.8502 6.38164 31.6158 6.61598L27.6408 10.591C26.1359 9.86576 24.5435 9.33806 22.9033 9.02098C21.9459 8.84095 20.9738 8.75015 19.9996 8.74973C9.84456 8.74973 1.85081 18.801 1.51581 19.2285C1.34358 19.4484 1.25 19.7197 1.25 19.9991C1.25 20.2785 1.34358 20.5498 1.51581 20.7697C3.14737 22.7512 4.99742 24.5421 7.03081 26.1085C7.99269 26.8624 9.00046 27.5558 10.0483 28.1847L6.61581 31.616C6.49642 31.7313 6.40119 31.8692 6.33568 32.0217C6.27017 32.1742 6.23569 32.3383 6.23424 32.5042C6.2328 32.6702 6.26443 32.8348 6.32728 32.9884C6.39013 33.142 6.48295 33.2816 6.60031 33.399C6.71768 33.5163 6.85724 33.6092 7.01086 33.672C7.16448 33.7349 7.32908 33.7665 7.49506 33.765C7.66103 33.7636 7.82506 33.7291 7.97756 33.6636C8.13007 33.5981 8.268 33.5029 8.38331 33.3835L33.3833 8.38348C33.6176 8.14907 33.7493 7.83119 33.7493 7.49973C33.7493 7.16828 33.6176 6.85039 33.3833 6.61598V6.61598ZM8.56581 24.136C6.96944 22.8931 5.48844 21.5087 4.14081 19.9997C6.16331 17.7347 12.5946 11.2497 19.9996 11.2497C20.822 11.2504 21.6426 11.3274 22.4508 11.4797C23.5824 11.695 24.6878 12.0302 25.7483 12.4797L23.4458 14.7822C22.244 13.9881 20.8048 13.6336 19.3717 13.7784C17.9385 13.9233 16.5994 14.5588 15.5809 15.5773C14.5623 16.5959 13.9269 17.935 13.782 19.3681C13.6371 20.8012 13.9917 22.2404 14.7858 23.4422L11.8746 26.3585C10.7169 25.7026 9.61077 24.9596 8.56581 24.136ZM16.6246 21.6047C16.381 21.1046 16.2528 20.5561 16.2496 19.9997C16.2498 19.0081 16.6415 18.0566 17.3396 17.3522C17.896 16.823 18.5981 16.4724 19.3555 16.3454C20.1129 16.2184 20.8909 16.3209 21.5896 16.6397L16.6246 21.6047Z" fill="white"/>
</svg>
