<svg width="40" height="40" viewBox="0 0 40 40" fill="none" xmlns="http://www.w3.org/2000/svg">
<path d="M21.7848 10.981C20.7927 11.971 19.1847 11.971 18.1926 10.981C17.2008 9.99103 17.2008 8.3858 18.1926 7.39581C19.1847 6.40582 20.7927 6.40582 21.7848 7.39581C22.7766 8.3858 22.7766 9.99103 21.7848 10.981Z" fill="#FFA400"/>
<path d="M25.2547 14.8222C24.9453 14.8222 24.6358 14.7041 24.4002 14.4676C23.929 13.9958 23.9299 13.2313 24.4017 12.7605C25.3579 11.8062 25.8843 10.5376 25.8843 9.18837C25.8843 7.83919 25.3579 6.57057 24.4017 5.61629C23.9299 5.1451 23.929 4.38094 24.4002 3.90883C24.8711 3.43703 25.6356 3.43611 26.1074 3.9073C27.5207 5.31783 28.2989 7.19313 28.2989 9.18837C28.2989 11.1833 27.5207 13.0589 26.1074 14.4694C25.8718 14.7047 25.5633 14.8222 25.2547 14.8222Z" fill="#FFA400"/>
<path d="M27.9852 18.3768C27.6757 18.3768 27.3663 18.2587 27.1307 18.0225C26.6595 17.5504 26.6604 16.7862 27.1322 16.315C29.0396 14.4113 30.0903 11.8805 30.0903 9.18855C30.0903 6.4966 29.0396 3.96578 27.1322 2.06209C26.6604 1.5909 26.6595 0.826737 27.1307 0.35463C27.6019 -0.117172 28.366 -0.118087 28.8378 0.353104C31.2024 2.71303 32.5048 5.85085 32.5045 9.18855C32.5045 12.5263 31.2024 15.6644 28.8378 18.0243C28.6023 18.2593 28.2937 18.3768 27.9852 18.3768Z" fill="#FFA400"/>
<path d="M14.7163 14.8223C14.4078 14.8223 14.0992 14.7048 13.8633 14.4696C12.4501 13.059 11.6719 11.1834 11.6719 9.18848C11.6719 7.19325 12.4501 5.31794 13.8633 3.90742C14.3351 3.43623 15.0996 3.43684 15.5705 3.90894C16.0417 4.38075 16.0408 5.14521 15.569 5.6164C14.6129 6.57069 14.0864 7.8393 14.0864 9.18848C14.0864 10.5377 14.6129 11.8063 15.569 12.7606C16.0408 13.2315 16.0417 13.9959 15.5705 14.4677C15.3349 14.7039 15.0255 14.8223 14.7163 14.8223Z" fill="#FFA400"/>
<path d="M11.986 18.3767C11.6771 18.3767 11.3686 18.2592 11.133 18.0239C8.76849 15.664 7.46631 12.5262 7.46631 9.18846C7.46631 5.85045 8.76849 2.71263 11.133 0.352708C11.6048 -0.118179 12.3693 -0.117568 12.8402 0.354539C13.3113 0.82634 13.3104 1.5905 12.8386 2.06169C10.9313 3.96538 9.88056 6.4962 9.88056 9.18816C9.88056 11.8801 10.9313 14.4112 12.8386 16.3149C13.3104 16.7861 13.3113 17.5503 12.8402 18.0224C12.6046 18.2586 12.2951 18.3767 11.986 18.3767Z" fill="#FFA400"/>
<path d="M35.8968 20.4639H4.07409C2.51434 20.4639 1.25 21.7282 1.25 23.2877V37.1759C1.25 38.7356 2.51434 40 4.07409 40H35.8965C37.4563 40 38.7206 38.7356 38.7206 37.1759V23.2877C38.7206 21.7282 37.4563 20.4639 35.8968 20.4639ZM10.5368 36.3766H6.08886C5.42235 36.3766 4.88189 35.8361 4.88189 35.1693V25.2945C4.88189 24.628 5.42235 24.0872 6.08886 24.0872C6.75566 24.0872 7.29613 24.6277 7.29613 25.2945V33.9621H10.5368C11.2036 33.9621 11.7441 34.5025 11.7441 35.1693C11.7441 35.8361 11.2036 36.3766 10.5368 36.3766ZM15.4843 35.1693C15.4843 35.8361 14.9438 36.3766 14.277 36.3766C13.6102 36.3766 13.0697 35.8361 13.0697 35.1693V25.2945C13.0697 24.628 13.6102 24.0872 14.277 24.0872C14.9438 24.0872 15.4843 24.6277 15.4843 25.2945V35.1693ZM25.6417 25.6436L22.6605 35.5182C22.6602 35.5191 22.6599 35.52 22.6596 35.5209C22.3358 36.6259 20.6851 36.5988 20.35 35.5209C20.3497 35.52 20.3494 35.5191 20.3491 35.5182L17.3678 25.6436C17.1753 25.0052 17.5363 24.3317 18.1747 24.1388C18.8125 23.9462 19.4867 24.3072 19.6792 24.9457L21.5048 30.9921L23.3303 24.9457C23.5232 24.3072 24.1967 23.9459 24.8352 24.1388C25.4733 24.3317 25.8346 25.0052 25.6417 25.6436ZM33.0688 28.403C33.7356 28.403 34.2761 28.9435 34.2761 29.6103C34.2761 30.2768 33.7356 30.8175 33.0688 30.8175H29.6429V33.9621H33.7191C34.3859 33.9621 34.9264 34.5025 34.9264 35.1693C34.9264 35.8361 34.3859 36.3766 33.7191 36.3766H28.4356C27.7688 36.3766 27.2283 35.8361 27.2283 35.1693V25.2945C27.2283 24.628 27.7688 24.0872 28.4356 24.0872H33.8818C34.5483 24.0872 35.089 24.6277 35.089 25.2945C35.089 25.9613 34.5483 26.5018 33.8818 26.5018H29.6426V28.403H33.0688Z" fill="#FFA400"/>
</svg>
