<svg width="102" height="36" viewBox="0 0 102 36" fill="none" xmlns="http://www.w3.org/2000/svg">
<path d="M0 18V36H102V0H0V18ZM29.8095 18.0085L29.801 34.8633L15.4785 34.8718L1.156 34.8803V1.15363H29.818L29.8095 18.0085ZM41.0584 12.4012C41.2213 12.469 41.3984 12.6424 41.4861 12.8188L41.565 12.9783V17.4402C41.565 22.3702 41.5817 21.9983 41.3474 22.265C41.0343 22.6213 40.3954 22.6213 40.0806 22.265C39.8487 22.0021 39.8657 22.36 39.8565 17.5419C39.8507 14.5323 39.8592 13.1273 39.8847 13.0055C39.9922 12.4863 40.5593 12.1945 41.0584 12.4012V12.4012ZM45.696 12.4035C46.6718 12.617 47.5232 13.2878 47.9767 14.1998C48.2412 14.7322 48.2936 14.9734 48.2936 15.6588C48.2936 16.2967 48.2579 16.5044 48.0719 16.9516C47.787 17.6369 47.1692 18.2982 46.495 18.6403C45.9615 18.9117 45.5124 19.0009 44.693 19.0009C44.081 19.0009 43.9583 18.9772 43.7512 18.8201C43.3262 18.4967 43.3112 17.851 43.7206 17.5019C43.9154 17.3356 44.0538 17.3044 44.5978 17.3044C45.1622 17.3044 45.3999 17.2661 45.6926 17.1277C45.9476 17.0069 46.2811 16.6886 46.4171 16.4358C46.5381 16.2109 46.6044 15.9607 46.6107 15.7055C46.6169 15.4503 46.563 15.1972 46.4532 14.9666C46.3213 14.6854 45.9748 14.3423 45.6712 14.193L45.4162 14.0675L44.7311 14.0454C44.1293 14.0261 44.029 14.0149 43.9066 13.9528C43.7345 13.86 43.5906 13.7226 43.4901 13.5551C43.4126 13.4133 43.4149 12.9512 43.4942 12.8053C43.6223 12.5824 43.8325 12.4181 44.08 12.3472C44.252 12.3014 45.4128 12.3421 45.695 12.4035H45.696ZM54.672 12.4198C54.842 12.5064 55.0579 12.7544 55.1079 12.9206C55.1378 13.019 55.148 14.1795 55.148 17.4605V21.868L55.0671 22.0377C54.9086 22.3689 54.655 22.529 54.2912 22.5277C54.0328 22.5277 53.8465 22.4503 53.6761 22.2752C53.4283 22.0211 53.4439 22.3634 53.4551 17.3859L53.465 12.9037L53.567 12.7374C53.6738 12.5644 53.9468 12.3693 54.1236 12.3391C54.2766 12.3133 54.5377 12.3516 54.671 12.4198H54.672ZM59.279 12.4015C59.8468 12.5254 60.3706 12.7997 60.7954 13.1955C61.5434 13.8877 61.8868 14.6647 61.8868 15.6588C61.8868 16.2797 61.78 16.7188 61.505 17.2298C61.1713 17.8587 60.6419 18.3624 59.9964 18.665L59.6972 18.8075L60.9059 20.0155C61.8055 20.9146 62.1323 21.2624 62.184 21.3761C62.2638 21.5607 62.2746 21.7678 62.2142 21.9597C62.1615 22.1327 61.9327 22.3885 61.761 22.4666C61.5706 22.5531 61.2102 22.5504 61.0198 22.4611C60.8294 22.3719 57.1462 18.7 57.0758 18.5252C56.8878 18.0706 57.0506 17.6003 57.4685 17.392C57.6348 17.3092 57.6759 17.3038 58.1553 17.3027C58.9407 17.3007 59.2623 17.2077 59.6377 16.8728C60.0355 16.5183 60.2011 16.1162 60.1759 15.5665C60.163 15.2849 60.1467 15.2167 60.0355 14.9829C59.8717 14.6336 59.5901 14.3528 59.2399 14.1896L58.9747 14.0634L58.31 14.0471C57.7422 14.0312 57.6249 14.0186 57.494 13.9589C57.3868 13.9063 57.2913 13.8329 57.213 13.7428C57.1348 13.6528 57.0754 13.548 57.0384 13.4347C56.9728 13.2141 56.9724 13.1534 57.0384 12.9359C57.0791 12.798 57.1547 12.6729 57.258 12.5727C57.3613 12.4725 57.4887 12.4005 57.628 12.3638C57.8476 12.3011 58.9166 12.3265 59.2804 12.4032L59.279 12.4015ZM82.8682 12.4432C82.97 12.5018 83.0592 12.5799 83.1307 12.6729C83.2735 12.8799 84.8358 16.7446 84.8555 16.938C84.8796 17.1755 84.8082 17.3828 84.6379 17.5725C84.4567 17.774 84.2724 17.8534 83.9919 17.851C83.6553 17.8487 83.4061 17.7072 83.268 17.4402C83.234 17.375 82.8437 16.429 82.4007 15.3399L81.5949 13.3583L81.6075 13.131C81.6245 12.829 81.7523 12.6146 82.0063 12.4622C82.09 12.4095 82.1803 12.3679 82.2749 12.3387C82.4483 12.3089 82.706 12.3543 82.8699 12.4432H82.8682ZM89.5526 12.3543C89.6614 12.378 89.7643 12.4235 89.8548 12.4883C89.9454 12.553 90.0218 12.6354 90.0793 12.7306C90.1262 12.8107 90.525 13.7655 90.9653 14.8513C91.696 16.653 91.766 16.8433 91.7653 17.0228C91.7636 17.5067 91.4022 17.8507 90.8956 17.8507C90.627 17.8507 90.4196 17.7628 90.2758 17.5894C90.218 17.5192 90.013 17.0635 89.7736 16.4731C89.5506 15.9235 89.3591 15.4861 89.3469 15.4993C89.3347 15.5126 88.725 17.0058 87.991 18.8211C86.5599 22.36 86.5732 22.3319 86.2784 22.4656C86.0829 22.5541 85.7242 22.5504 85.527 22.4578C85.2319 22.3197 85.0578 22.0377 85.0578 21.6984C85.0578 21.5104 85.1323 21.3116 86.0285 19.1027C86.5626 17.7862 87.3545 15.8336 87.788 14.7597C88.2215 13.6858 88.6077 12.7578 88.6455 12.6967C88.7538 12.5339 88.918 12.4162 89.1072 12.3659C89.3112 12.3109 89.3452 12.3102 89.5526 12.3543V12.3543ZM96.6144 12.4002C96.9136 12.5247 97.1074 12.829 97.1074 13.1751C97.1074 13.3804 97.0659 13.4941 96.3543 15.2381C95.9402 16.2533 95.1568 18.1832 94.6135 19.5269C94.0702 20.8705 93.5983 22.0248 93.5643 22.092C93.4102 22.3974 93.1328 22.5456 92.7554 22.5243C92.4562 22.5073 92.2376 22.3821 92.0897 22.1429C91.9972 21.9929 91.9877 21.9495 91.9877 21.7018V21.427L93.7285 17.1365C94.6852 14.7783 95.506 12.7832 95.5512 12.7069C95.7481 12.372 96.2173 12.2363 96.6117 12.4015L96.6144 12.4002ZM70.7744 12.844C70.8866 12.9113 70.9803 13.0056 71.0469 13.1181C71.1135 13.2307 71.151 13.358 71.1559 13.4886C71.181 13.8754 71.0328 14.1353 70.6826 14.3179C70.0944 14.625 69.597 15.0447 69.2696 15.5109C68.5987 16.4653 68.4706 17.6688 68.9238 18.758C69.1438 19.2873 69.647 19.9116 70.0978 20.217C70.2069 20.2906 70.4208 20.4152 70.5772 20.4959C70.9138 20.67 71.0729 20.8393 71.1508 21.1067C71.2868 21.5684 70.9784 22.0591 70.4922 22.1585C70.2576 22.2067 70.1012 22.1714 69.7374 21.9888C68.4454 21.3415 67.437 20.0782 67.099 18.6871C66.8722 17.754 66.9106 16.7103 67.2041 15.8268C67.5036 14.9242 68.1615 13.9905 68.8976 13.4231C69.2434 13.1568 69.4348 13.0377 69.802 12.8613C70.074 12.7303 70.1063 12.7228 70.3494 12.7323C70.567 12.7408 70.634 12.7588 70.7744 12.8457V12.844ZM74.3988 12.903C75.7428 13.5928 76.7672 14.9191 77.078 16.3713C77.1824 16.8586 77.2069 17.6743 77.1324 18.1764C77.0049 19.0349 76.6979 19.7712 76.1675 20.4939C75.9206 20.8294 75.395 21.3448 75.0516 21.5878C74.6912 21.8429 74.1044 22.1432 73.9092 22.1727C73.3958 22.2498 72.8919 21.7815 72.9385 21.2709C72.9725 20.9102 73.151 20.6859 73.576 20.4749C74.29 20.1206 74.7966 19.6049 75.1444 18.8822C75.3913 18.3698 75.462 18.0407 75.4589 17.4232C75.4565 16.9855 75.444 16.8681 75.3688 16.5851C75.1988 15.9472 74.7568 15.2516 74.2662 14.8516C74.0214 14.6518 73.6617 14.4221 73.4672 14.3427C72.8076 14.0685 72.7743 13.1344 73.4128 12.8127C73.5678 12.7347 73.627 12.7235 73.8378 12.7323C74.0486 12.7411 74.1234 12.7635 74.3988 12.9047V12.903Z" fill="white"/>
<path d="M7.84044 6.88769C7.13018 7.01527 6.52532 7.56629 6.2931 8.29512C6.24448 8.4478 6.23836 9.46232 6.23054 18.4742C6.22136 29.4676 6.20946 28.8066 6.42876 29.2674C6.57428 29.5728 6.99894 30.0037 7.30324 30.1543C7.92204 30.4597 8.6816 30.4258 9.24464 30.061C9.63607 29.8107 9.92907 29.4333 10.0742 28.9926L10.149 28.7551V8.43084L10.0695 8.21029C9.97856 7.9372 9.8254 7.68888 9.62204 7.48486C9.38404 7.23174 9.09402 7.04377 8.81182 6.95589C8.55682 6.87717 8.08388 6.8446 7.83942 6.88803L7.84044 6.88769Z" fill="white"/>
<path d="M15.946 6.90674C15.0675 7.09505 14.416 7.90225 14.416 8.80683C14.4143 9.36329 14.5952 9.78809 15.0086 10.198C15.182 10.3703 15.3544 10.5057 15.4744 10.5634C15.8685 10.7534 15.9334 10.7612 17.358 10.787C18.8166 10.8135 18.8928 10.8233 19.4728 11.0639C20.2834 11.3998 21.1484 12.2633 21.4863 13.0742C21.7087 13.608 21.741 13.7902 21.7427 14.5197C21.7427 15.1067 21.7352 15.2139 21.6659 15.4697C21.5683 15.8294 21.3418 16.3102 21.1195 16.6301C20.9243 16.9104 20.4827 17.3613 20.1801 17.5887C19.8775 17.816 19.3471 18.0678 18.9561 18.1719C18.6249 18.2598 18.582 18.2629 17.29 18.2842C16.0286 18.3053 15.9535 18.31 15.7464 18.3836C15.467 18.4829 15.2127 18.6419 15.0013 18.8495C14.7899 19.0571 14.6264 19.3082 14.5224 19.5855C14.4453 19.7972 14.4334 19.884 14.4334 20.2369C14.4334 20.5762 14.4463 20.6821 14.5119 20.8714C14.719 21.472 15.2616 21.9806 15.8614 22.1367C16.1507 22.212 18.4522 22.211 19.0302 22.1367C19.921 22.0203 20.6037 21.8181 21.3694 21.4445C22.148 21.0645 22.6899 20.6814 23.338 20.0534C24.0887 19.3252 24.5548 18.6961 24.9574 17.8638C25.4732 16.7991 25.684 15.8348 25.684 14.5387C25.684 14.1451 25.6643 13.6819 25.6401 13.5038C25.4021 11.7428 24.6674 10.3144 23.338 9.025C22.0086 7.73565 20.5122 7.04857 18.7 6.88774C18.105 6.83515 16.218 6.8477 15.946 6.90606V6.90674Z" fill="white"/>
</svg>
