<svg width="40" height="40" viewBox="0 0 40 40" fill="none" xmlns="http://www.w3.org/2000/svg">
<path d="M36.25 6.87492H27.3869C27.0939 5.12758 26.191 3.54067 24.8385 2.39613C23.4861 1.2516 21.7717 0.623535 20 0.623535C18.2283 0.623535 16.5139 1.2516 15.1615 2.39613C13.809 3.54067 12.9061 5.12758 12.6131 6.87492H3.75C2.9215 6.87591 2.12722 7.20547 1.54139 7.7913C0.955551 8.37714 0.625992 9.17142 0.625 9.99992V28.7499C0.625992 29.5784 0.955551 30.3727 1.54139 30.9585C2.12722 31.5444 2.9215 31.8739 3.75 31.8749H15.625V34.3749H14.3319C13.7599 34.3768 13.1939 34.4916 12.6664 34.7126C12.1389 34.9337 11.6601 35.2567 11.2577 35.6631C10.8553 36.0696 10.537 36.5515 10.3212 37.0812C10.1054 37.6109 9.99621 38.178 10 38.7499C10 38.9157 10.0658 39.0746 10.1831 39.1919C10.3003 39.3091 10.4592 39.3749 10.625 39.3749H29.3312C29.4957 39.3749 29.6536 39.3101 29.7706 39.1945C29.8876 39.0789 29.9543 38.9219 29.9562 38.7574C29.963 38.1843 29.856 37.6156 29.6414 37.0842C29.4268 36.5528 29.1088 36.0692 28.7059 35.6616C28.303 35.2539 27.8233 34.9303 27.2944 34.7094C26.7656 34.4886 26.1981 34.3749 25.625 34.3749H24.375V31.8749H36.25C37.0785 31.8739 37.8728 31.5444 38.4586 30.9585C39.0444 30.3727 39.374 29.5784 39.375 28.7499V9.99992C39.374 9.17142 39.0444 8.37714 38.4586 7.7913C37.8728 7.20547 37.0785 6.87591 36.25 6.87492ZM13.7731 7.67492C13.8848 6.09966 14.5893 4.62527 15.7448 3.54881C16.9003 2.47234 18.4208 1.87382 20 1.87382C21.5792 1.87382 23.0997 2.47234 24.2552 3.54881C25.4107 4.62527 26.1152 6.09966 26.2269 7.67492C26.2332 7.76375 26.2585 7.85019 26.301 7.92847C26.3434 8.00674 26.4021 8.07503 26.4732 8.12877C26.5442 8.18251 26.6259 8.22045 26.7127 8.24005C26.7996 8.25965 26.8897 8.26045 26.9769 8.24242C27.7474 8.0824 28.543 8.08586 29.3121 8.25256C30.0812 8.41927 30.8068 8.74551 31.442 9.2102C32.0771 9.67488 32.6077 10.2677 32.9994 10.9503C33.3911 11.6328 33.6352 12.39 33.7159 13.1729C33.7966 13.9557 33.7122 14.7468 33.4681 15.4949C33.2239 16.2431 32.8255 16.9317 32.2986 17.5162C31.7716 18.1007 31.1279 18.5682 30.409 18.8884C29.6901 19.2085 28.912 19.3743 28.125 19.3749H11.875C11.088 19.3743 10.3099 19.2085 9.59101 18.8884C8.87209 18.5682 8.22836 18.1007 7.70143 17.5162C7.17449 16.9317 6.77608 16.2431 6.53194 15.4949C6.2878 14.7468 6.20337 13.9557 6.2841 13.1729C6.36484 12.39 6.60894 11.6328 7.00064 10.9503C7.39233 10.2677 7.9229 9.67488 8.55805 9.2102C9.19319 8.74551 9.91878 8.41927 10.6879 8.25256C11.457 8.08586 12.2526 8.0824 13.0231 8.24242C13.1104 8.26112 13.2006 8.2607 13.2877 8.24117C13.3748 8.22164 13.4566 8.18347 13.5275 8.12929C13.5985 8.07543 13.6571 8.00703 13.6994 7.92866C13.7418 7.8503 13.7669 7.76378 13.7731 7.67492ZM3.75 8.12492H7.9375C6.73942 8.9622 5.83965 10.1598 5.369 11.5436C4.89835 12.9274 4.88137 14.4253 5.32052 15.8194C5.75967 17.2135 6.63205 18.4313 7.81084 19.2955C8.98962 20.1597 10.4133 20.6254 11.875 20.6249H28.125C29.5869 20.6261 31.0111 20.1609 32.1904 19.2969C33.3697 18.4329 34.2426 17.2152 34.6821 15.8209C35.1217 14.4266 35.105 12.9285 34.6344 11.5444C34.1638 10.1602 33.2639 8.96236 32.0656 8.12492H36.25C36.7473 8.12492 37.2242 8.32246 37.5758 8.67409C37.9275 9.02572 38.125 9.50264 38.125 9.99992V25.6249H1.875V9.99992C1.875 9.50264 2.07254 9.02572 2.42417 8.67409C2.77581 8.32246 3.25272 8.12492 3.75 8.12492ZM27.8169 36.5405C28.2471 36.9736 28.5381 37.5253 28.6525 38.1249H11.305C11.4412 37.4218 11.8176 36.7878 12.3698 36.3317C12.922 35.8757 13.6157 35.6258 14.3319 35.6249H25.625C26.0329 35.6239 26.4369 35.7043 26.8133 35.8616C27.1897 36.0188 27.5309 36.2496 27.8169 36.5405ZM23.125 34.3749H16.875V31.8749H23.125V34.3749ZM36.25 30.6249H3.75C3.25272 30.6249 2.77581 30.4274 2.42417 30.0757C2.07254 29.7241 1.875 29.2472 1.875 28.7499V26.8749H38.125V28.7499C38.125 29.2472 37.9275 29.7241 37.5758 30.0757C37.2242 30.4274 36.7473 30.6249 36.25 30.6249Z" fill="white"/>
</svg>
