<svg width="35" height="35" viewBox="0 0 35 35" fill="none" xmlns="http://www.w3.org/2000/svg">
<path d="M18.2292 20.4169H29.8959C30.2984 20.4169 30.6251 20.0902 30.6251 19.6877C30.6251 19.2852 30.2984 18.9585 29.8959 18.9585H18.2292C17.8267 18.9585 17.5 19.2852 17.5 19.6877C17.5 20.0902 17.8267 20.4169 18.2292 20.4169Z" fill="white"/>
<path d="M35 13.8542V10.9375C35 10.2331 34.79 9.58125 34.4429 9.02269C34.4342 9.00519 34.4328 8.98475 34.4225 8.96875L29.9133 1.72081C29.2439 0.644561 28.0861 0 26.8173 0H8.18419C6.914 0 5.7575 0.644561 5.08812 1.72081L0.578936 8.96875C0.570186 8.98331 0.570186 8.99937 0.561436 9.01544C0.211436 9.57394 0 10.2302 0 10.9375V13.8542C0 15.05 0.587685 16.1059 1.48169 16.7709C0.587685 17.4358 0 18.4902 0 19.6875V22.6042C0 23.8 0.587685 24.8559 1.48169 25.5209C0.587685 26.1858 0 27.2402 0 28.4375V31.3542C0 33.3638 1.63625 35 3.64581 35H13.2066C13.6106 35 13.9358 34.6733 13.9358 34.2708C13.9358 33.8683 13.6091 33.5416 13.2066 33.5416H3.64581C2.43975 33.5416 1.45831 32.5602 1.45831 31.3541V28.4375C1.45831 27.23 2.43975 26.25 3.64581 26.25H15.8433C16.2458 26.25 16.5725 25.9233 16.5725 25.5208C16.5725 25.1183 16.2458 24.7916 15.8433 24.7916H3.64581C2.43975 24.7916 1.45831 23.8102 1.45831 22.6041V19.6875C1.45831 18.48 2.43975 17.5 3.64581 17.5H31.3541C32.5602 17.5 33.5416 18.4814 33.5416 19.6875V22.6042C33.5416 22.925 33.4629 23.2473 33.3112 23.5579C33.1347 23.9196 33.2835 24.3556 33.6451 24.5336C34.0082 24.7115 34.4443 24.5628 34.6207 24.1996C34.8731 23.6863 34.9999 23.1511 34.9999 22.6042V19.6875C34.9999 18.4917 34.4122 17.4358 33.5182 16.7708C34.4123 16.1044 35 15.05 35 13.8542ZM6.32625 2.49081C6.72731 1.84475 7.42144 1.45831 8.18268 1.45831H26.8158C27.5771 1.45831 28.2712 1.84475 28.6737 2.49081L31.6823 7.32519C31.5729 7.3135 31.4665 7.29162 31.3542 7.29162H3.64581C3.5335 7.29162 3.42706 7.3135 3.31769 7.32368L6.32625 2.49081ZM33.5417 13.8542C33.5417 15.0603 32.5603 16.0417 31.3542 16.0417H3.64581C2.43975 16.0417 1.45831 15.0603 1.45831 13.8542V10.9375C1.45831 9.73 2.43975 8.75 3.64581 8.75H31.3541C32.5602 8.75 33.5416 9.73 33.5416 10.9375V13.8542H33.5417Z" fill="white"/>
<path d="M2.91699 29.896C2.91699 31.1021 3.89843 32.0835 5.10449 32.0835C6.31056 32.0835 7.29199 31.1021 7.29199 29.896C7.29199 28.6899 6.31056 27.7085 5.10449 27.7085C3.89843 27.7085 2.91699 28.6885 2.91699 29.896ZM5.83361 29.896C5.83361 30.2985 5.50692 30.6252 5.10442 30.6252C4.70192 30.6252 4.3753 30.2985 4.3753 29.896C4.3753 29.4935 4.70199 29.1668 5.10449 29.1668C5.50699 29.1668 5.83361 29.4935 5.83361 29.896Z" fill="white"/>
<path d="M29.8954 24.7917C29.7628 24.7917 29.63 24.799 29.5003 24.8106C28.2854 22.9877 26.2453 21.875 24.0621 21.875C20.6671 21.875 17.8657 24.4664 17.5332 27.7754C15.8546 28.0992 14.583 29.5809 14.583 31.3542C14.583 33.3637 16.2193 35 18.2288 35H29.8955C32.7101 35 34.9996 32.7104 34.9996 29.8958C34.9996 27.0812 32.7101 24.7917 29.8954 24.7917ZM29.8954 33.5417H18.2288C17.0228 33.5417 16.0413 32.5603 16.0413 31.3542C16.0413 30.1481 17.0228 29.1667 18.2288 29.1667C18.6313 29.1667 18.958 28.84 18.958 28.4375C18.958 25.6229 21.2476 23.3333 24.0622 23.3333C25.8851 23.3333 27.5841 24.3381 28.4926 25.9554C28.6443 26.2252 28.9447 26.3681 29.2568 26.3156C29.4654 26.2791 29.6768 26.2499 29.8956 26.2499C31.9051 26.2499 33.5414 27.8862 33.5414 29.8957C33.5414 31.9053 31.9051 33.5417 29.8954 33.5417Z" fill="white"/>
<path d="M29.8958 10.2085H18.2292C17.8267 10.2085 17.5 10.5352 17.5 10.9377C17.5 11.3402 17.8267 11.6669 18.2292 11.6669H29.8959C30.2984 11.6669 30.6251 11.3402 30.6251 10.9377C30.6251 10.5352 30.2983 10.2085 29.8958 10.2085Z" fill="white"/>
<path d="M29.8958 13.125H18.2292C17.8267 13.125 17.5 13.4517 17.5 13.8542C17.5 14.2567 17.8267 14.5834 18.2292 14.5834H29.8959C30.2984 14.5834 30.6251 14.2567 30.6251 13.8542C30.6251 13.4517 30.2983 13.125 29.8958 13.125Z" fill="white"/>
<path d="M5.10449 10.2085C3.89843 10.2085 2.91699 11.1885 2.91699 12.396C2.91699 13.6035 3.89843 14.5835 5.10449 14.5835C6.31056 14.5835 7.29199 13.6021 7.29199 12.396C7.29199 11.19 6.31049 10.2085 5.10449 10.2085ZM5.10449 13.1252C4.70199 13.1252 4.3753 12.7985 4.3753 12.396C4.3753 11.9935 4.70199 11.6668 5.10449 11.6668C5.50699 11.6668 5.83368 11.9935 5.83368 12.396C5.83368 12.7985 5.50699 13.1252 5.10449 13.1252Z" fill="white"/>
<path d="M2.91699 21.146C2.91699 22.3521 3.89843 23.3335 5.10449 23.3335C6.31056 23.3335 7.29199 22.3521 7.29199 21.146C7.29199 19.9399 6.31056 18.9585 5.10449 18.9585C3.89843 18.9585 2.91699 19.9385 2.91699 21.146ZM5.83361 21.146C5.83361 21.5485 5.50692 21.8752 5.10442 21.8752C4.70192 21.8752 4.3753 21.5485 4.3753 21.146C4.3753 20.7435 4.70199 20.4168 5.10449 20.4168C5.50699 20.4168 5.83361 20.7435 5.83361 21.146Z" fill="white"/>
</svg>
