<svg width="40" height="40" viewBox="0 0 40 40" fill="none" xmlns="http://www.w3.org/2000/svg">
<path d="M32.4998 26.8752C31.5508 26.8761 30.6176 27.1174 29.787 27.5764C28.9564 28.0354 28.2556 28.6972 27.7498 29.5002L12.9154 21.5002C13.1946 20.5196 13.1946 19.4807 12.9154 18.5002L27.7498 10.5002C28.4748 11.6417 29.5875 12.4832 30.8833 12.87C32.1791 13.2569 33.571 13.163 34.8031 12.6056C36.0352 12.0482 37.0248 11.0649 37.5899 9.83631C38.155 8.60772 38.2576 7.21644 37.879 5.91822C37.5003 4.61999 36.6658 3.50206 35.5288 2.7699C34.3919 2.03774 33.0288 1.74057 31.6903 1.933C30.3517 2.12543 29.1276 2.79453 28.2429 3.81732C27.3582 4.84011 26.8724 6.14785 26.8748 7.50016C26.8754 7.70523 26.8871 7.91011 26.9098 8.11391L11.7267 16.3014C10.9738 15.4387 9.97549 14.8264 8.86527 14.5462C7.75504 14.266 6.58575 14.3313 5.51363 14.7333C4.4415 15.1354 3.51761 15.8551 2.86542 16.7962C2.21322 17.7374 1.86377 18.8551 1.86377 20.0002C1.86377 21.1452 2.21322 22.263 2.86542 23.2041C3.51761 24.1452 4.4415 24.8649 5.51363 25.267C6.58575 25.6691 7.75504 25.7343 8.86527 25.4541C9.97549 25.1739 10.9738 24.5616 11.7267 23.6989L26.9098 31.8864C26.8871 32.0902 26.8754 32.2951 26.8748 32.5002C26.8748 33.6127 27.2047 34.7002 27.8228 35.6252C28.4409 36.5503 29.3194 37.2712 30.3472 37.697C31.375 38.1227 32.506 38.2341 33.5972 38.0171C34.6883 37.8 35.6906 37.2643 36.4773 36.4776C37.264 35.691 37.7997 34.6887 38.0167 33.5975C38.2338 32.5064 38.1224 31.3754 37.6966 30.3476C37.2709 29.3197 36.5499 28.4412 35.6249 27.8231C34.6999 27.2051 33.6123 26.8752 32.4998 26.8752V26.8752Z" fill="white"/>
</svg>
