<svg width="35" height="35" viewBox="0 0 35 35" fill="none" xmlns="http://www.w3.org/2000/svg">
<path d="M32.2656 19.9067V3.82812C32.2656 2.69732 31.3457 1.77734 30.2149 1.77734H2.05077C0.919977 1.77734 0 2.69732 0 3.82812V28.4374C0 29.5682 0.919977 30.4882 2.05077 30.4882H21.6842C23.0645 32.1573 25.1505 33.2225 27.4805 33.2225C31.6268 33.2225 35 29.8493 35 25.703C35 23.373 33.9347 21.2871 32.2656 19.9067ZM2.05077 29.1209C1.67384 29.1209 1.36718 28.8143 1.36718 28.4373V3.82805C1.36718 3.45112 1.67384 3.14446 2.05077 3.14446H30.2149C30.5918 3.14446 30.8985 3.45112 30.8985 3.82805V19.0061C30.4653 18.7841 30.0078 18.6029 29.5313 18.4676V5.1953C29.5313 4.81775 29.2252 4.51171 28.8477 4.51171H3.41796C3.04048 4.51171 2.73436 4.81775 2.73436 5.1953V27.0702C2.73436 27.4478 3.04048 27.7538 3.41796 27.7538H20.2452C20.3805 28.2303 20.5617 28.6877 20.7836 29.121H2.05077V29.1209ZM20.4755 22.9686H7.8613C7.8613 22.5911 7.55519 22.285 7.17771 22.285C6.80023 22.285 6.49412 22.5911 6.49412 22.9686V24.3358C6.49412 24.7133 6.80023 25.0194 7.17771 25.0194C7.55519 25.0194 7.8613 24.7133 7.8613 24.3358H20.0855C20.0037 24.7792 19.961 25.2362 19.961 25.703C19.961 25.9333 19.9715 26.1614 19.9918 26.3866H4.10155V5.87882H28.1641V18.2143C27.9389 18.1939 27.7109 18.1835 27.4805 18.1835C24.2984 18.1835 21.5716 20.1704 20.4755 22.9686ZM27.4805 31.8554C24.0881 31.8554 21.3282 29.0954 21.3282 25.703C21.3282 22.3106 24.0881 19.5507 27.4805 19.5507C30.8729 19.5507 33.6328 22.3106 33.6328 25.703C33.6328 29.0954 30.8729 31.8554 27.4805 31.8554Z" fill="white"/>
<path d="M29.5728 25.0189H28.1641V21.5176C28.1641 21.14 27.8579 20.834 27.4805 20.834C27.103 20.834 26.7969 21.14 26.7969 21.5176V25.7025C26.7969 26.08 27.103 26.3861 27.4805 26.3861H29.5728C29.9503 26.3861 30.2564 26.08 30.2564 25.7025C30.2564 25.3249 29.9504 25.0189 29.5728 25.0189Z" fill="white"/>
<path d="M22.9475 25.0186H22.947C22.5695 25.0186 22.2637 25.3246 22.2637 25.7021C22.2637 26.0797 22.57 26.3857 22.9475 26.3857C23.3251 26.3857 23.6311 26.0797 23.6311 25.7021C23.6311 25.3246 23.3251 25.0186 22.9475 25.0186Z" fill="white"/>
<path d="M27.4805 29.5522C27.103 29.5522 26.7969 29.8583 26.7969 30.2358V30.2363C26.7969 30.6139 27.103 30.9197 27.4805 30.9197C27.8579 30.9197 28.1641 30.6134 28.1641 30.2358C28.1641 29.8583 27.8579 29.5522 27.4805 29.5522Z" fill="white"/>
<path d="M32.0137 25.0186C31.6362 25.0186 31.3301 25.3246 31.3301 25.7021C31.3301 26.0797 31.6362 26.3857 32.0137 26.3857H32.0142C32.3917 26.3857 32.6975 26.0797 32.6975 25.7021C32.6975 25.3246 32.3912 25.0186 32.0137 25.0186Z" fill="white"/>
<path d="M19.6604 12.615L14.3854 9.5725C14.109 9.3921 13.7887 9.29688 13.4571 9.29688C12.5201 9.29688 11.7578 10.0587 11.7578 10.9951V17.1707C11.7576 17.466 11.8375 17.7601 11.9889 18.0214C12.3033 18.5636 12.8743 18.8667 13.4602 18.8667C13.7482 18.8667 14.0399 18.7934 14.3065 18.6392L19.6451 15.5601C19.9082 15.4119 20.1274 15.1952 20.2792 14.9333C20.5065 14.5413 20.5674 14.0842 20.4506 13.6463C20.3338 13.2085 20.0535 12.8424 19.6604 12.615ZM19.0964 14.2475C19.0663 14.2994 19.0248 14.3404 18.9732 14.3693C18.9706 14.3707 18.968 14.3722 18.9654 14.3737L13.6225 17.4554C13.465 17.5464 13.2627 17.4928 13.1717 17.3357C13.1411 17.2829 13.1249 17.2262 13.1249 17.1711V10.9951C13.1249 10.8125 13.274 10.664 13.457 10.664C13.5414 10.664 13.6045 10.6946 13.6426 10.7204C13.656 10.7295 13.6697 10.738 13.6838 10.7462L18.9765 13.7988C19.0792 13.8582 19.1165 13.9495 19.1296 13.9986C19.1426 14.0477 19.1557 14.1452 19.0964 14.2475Z" fill="white"/>
</svg>
