<svg width="34" height="40" viewBox="0 0 34 40" fill="none" xmlns="http://www.w3.org/2000/svg">
<path d="M3.40764 11.9079V34.9878C3.40764 36.352 3.90785 37.6331 4.78168 38.5523C5.65148 39.474 6.86196 39.9973 8.12879 39.9995H25.8527C27.1199 39.9973 28.3304 39.474 29.1998 38.5523C30.0736 37.6331 30.5738 36.352 30.5738 34.9878V11.9079C32.3109 11.4468 33.4365 9.76871 33.2041 7.98629C32.9714 6.20424 31.4531 4.87118 29.6557 4.87081H24.8596V3.69986C24.8651 2.71516 24.4757 1.76961 23.7786 1.07399C23.0815 0.378732 22.1345 -0.00841552 21.1498 -0.000365198H12.8316C11.8469 -0.00841552 10.8999 0.378732 10.2028 1.07399C9.50576 1.76961 9.11642 2.71516 9.12191 3.69986V4.87081H4.32574C2.52832 4.87118 1.0101 6.20424 0.777375 7.98629C0.545014 9.76871 1.6706 11.4468 3.40764 11.9079ZM25.8527 38.126H8.12879C6.52714 38.126 5.28117 36.7501 5.28117 34.9878V11.9902H28.7003V34.9878C28.7003 36.7501 27.4543 38.126 25.8527 38.126ZM10.9954 3.69986C10.9892 3.21208 11.181 2.7426 11.5271 2.39827C11.8729 2.05393 12.3435 1.86475 12.8316 1.87317H21.1498C21.638 1.86475 22.1085 2.05393 22.4543 2.39827C22.8005 2.74223 22.9923 3.21208 22.986 3.69986V4.87081H10.9954V3.69986ZM4.32574 6.74434H29.6557C30.587 6.74434 31.3419 7.49925 31.3419 8.43052C31.3419 9.3618 30.587 10.1167 29.6557 10.1167H4.32574C3.39446 10.1167 2.63956 9.3618 2.63956 8.43052C2.63956 7.49925 3.39446 6.74434 4.32574 6.74434Z" fill="white"/>
</svg>
