<svg width="24" height="24" viewBox="0 0 24 24" fill="none" xmlns="http://www.w3.org/2000/svg">
<g clip-path="url(#clip0_550_193)">
<path d="M7.78125 9.1875C7.78125 11.5137 9.67378 13.4062 12 13.4062C14.3262 13.4062 16.2188 11.5137 16.2188 9.1875C16.2188 6.86128 14.3262 4.96875 12 4.96875C9.67378 4.96875 7.78125 6.86128 7.78125 9.1875ZM15.2812 9.1875C15.2812 10.9968 13.8093 12.4688 12 12.4688C10.1907 12.4688 8.71875 10.9968 8.71875 9.1875C8.71875 7.37822 10.1907 5.90625 12 5.90625C13.8093 5.90625 15.2812 7.37822 15.2812 9.1875Z" fill="white"/>
<path d="M20.625 4.78125C20.8839 4.78125 21.0938 4.57138 21.0938 4.3125C21.0938 4.05362 20.8839 3.84375 20.625 3.84375C20.3661 3.84375 20.1562 4.05362 20.1562 4.3125C20.1562 4.57138 20.3661 4.78125 20.625 4.78125Z" fill="white"/>
<path d="M12 24C18.6518 24 24 18.6128 24 12C24 9.79833 23.3997 7.64606 22.2642 5.77584C22.1298 5.55459 21.8416 5.48414 21.6202 5.61844C21.3989 5.75283 21.3285 6.04111 21.4628 6.26241C22.5093 7.98595 23.0625 9.96998 23.0625 12C23.0625 15.2076 21.7139 18.1826 19.3371 20.282C18.6135 16.8691 15.5872 14.3438 12 14.3438C8.41275 14.3438 5.38617 16.8694 4.66336 20.2824C2.28628 18.1828 0.9375 15.2076 0.9375 12C0.9375 5.90011 5.90011 0.9375 12 0.9375C14.4839 0.9375 16.8296 1.73977 18.7836 3.25763C18.988 3.41644 19.2825 3.37941 19.4413 3.17498C19.6001 2.97056 19.5631 2.67605 19.3587 2.51723C17.2387 0.870422 14.6941 0 12 0C8.79206 0 5.77791 1.24763 3.51267 3.513C1.24748 5.77828 0 8.79234 0 12C0 18.6295 5.36527 24 12 24V24ZM12 15.2812C15.3139 15.2812 18.0647 17.7019 18.5026 20.9535C16.6063 22.3341 14.3639 23.0625 12 23.0625C9.63638 23.0625 7.39425 22.334 5.49792 20.9533C5.93517 17.7018 8.6857 15.2812 12 15.2812V15.2812Z" fill="white"/>
</g>
<defs>
<clipPath id="clip0_550_193">
<rect width="24" height="24" fill="white"/>
</clipPath>
</defs>
</svg>
