<svg width="35" height="35" viewBox="0 0 35 35" fill="none" xmlns="http://www.w3.org/2000/svg">
<path d="M31.582 2.73438H20.5853C20.2079 2.73438 19.9017 3.04042 19.9017 3.41797C19.9017 3.79552 20.2079 4.10156 20.5853 4.10156H31.582C32.7128 4.10156 33.6328 5.02154 33.6328 6.15234V22.6953H1.36719V6.15234C1.36719 5.02154 2.28717 4.10156 3.41797 4.10156H14.433C14.8105 4.10156 15.1166 3.79552 15.1166 3.41797C15.1166 3.04042 14.8105 2.73438 14.433 2.73438H3.41797C1.5333 2.73438 0 4.26768 0 6.15234V28.8477C0 30.7323 1.5333 32.2656 3.41797 32.2656H31.582C33.4667 32.2656 35 30.7323 35 28.8477V6.15234C35 4.26768 33.4667 2.73438 31.582 2.73438ZM31.582 30.8984H3.41797C2.28717 30.8984 1.36719 29.9785 1.36719 28.8477V24.0625H33.6328V28.8477C33.6328 29.9785 32.7128 30.8984 31.582 30.8984Z" fill="white"/>
<path d="M6.83105 25.4297C5.70025 25.4297 4.78027 26.3497 4.78027 27.4805C4.78027 28.6113 5.70025 29.5312 6.83105 29.5312C7.96186 29.5312 8.88184 28.6113 8.88184 27.4805C8.88184 26.3497 7.96186 25.4297 6.83105 25.4297ZM6.83105 28.1641C6.45412 28.1641 6.14746 27.8574 6.14746 27.4805C6.14746 27.1035 6.45412 26.7969 6.83105 26.7969C7.20799 26.7969 7.51465 27.1035 7.51465 27.4805C7.51465 27.8574 7.20792 28.1641 6.83105 28.1641Z" fill="white"/>
<path d="M29.5362 26.7969H12.5088C12.1312 26.7969 11.8252 27.1029 11.8252 27.4805C11.8252 27.858 12.1312 28.1641 12.5088 28.1641H29.5362C29.9136 28.1641 30.2197 27.858 30.2197 27.4805C30.2197 27.1029 29.9137 26.7969 29.5362 26.7969Z" fill="white"/>
<path d="M14.0059 11.3262V15.472C14.0059 16.1768 14.3703 16.808 14.9807 17.1604C15.2859 17.3366 15.6207 17.4247 15.9555 17.4247C16.2903 17.4247 16.6251 17.3366 16.9303 17.1604L20.5206 15.0875C21.1309 14.7351 21.4954 14.1039 21.4954 13.3991C21.4954 12.6943 21.1309 12.0631 20.5206 11.7107L16.9303 9.63783C16.32 9.28544 15.5912 9.28544 14.9807 9.63783C14.3703 9.99022 14.0059 10.6215 14.0059 11.3262ZM15.373 11.3262C15.373 11.0227 15.5768 10.8724 15.6643 10.8218C15.7175 10.7911 15.824 10.7417 15.9585 10.7417C16.0452 10.7417 16.1437 10.7623 16.2467 10.8218L19.837 12.8947C20.0998 13.0464 20.1282 13.298 20.1282 13.3991C20.1282 13.5002 20.0998 13.7518 19.837 13.9035L16.2467 15.9764C15.9838 16.128 15.7519 16.0269 15.6643 15.9764C15.5768 15.9258 15.3731 15.7755 15.3731 15.472V11.3262H15.373Z" fill="white"/>
<path d="M17.5088 4.10156C17.6886 4.10156 17.8649 4.02842 17.9921 3.90127C18.1192 3.77412 18.1924 3.59775 18.1924 3.41797C18.1924 3.23818 18.1192 3.06182 17.9921 2.93467C17.8649 2.80752 17.6886 2.73438 17.5088 2.73438C17.329 2.73438 17.1526 2.80752 17.0248 2.93467C16.8977 3.06182 16.8252 3.23818 16.8252 3.41797C16.8252 3.59775 16.8977 3.77412 17.0248 3.90127C17.1526 4.02842 17.329 4.10156 17.5088 4.10156Z" fill="white"/>
</svg>
